<svg width="60" height="60" viewBox="0 0 60 60" fill="none" xmlns="http://www.w3.org/2000/svg">
<circle cx="30" cy="30" r="29" fill="white" stroke="black" stroke-width="2"/>
<path d="M24.58 37.76L32.34 30L24.58 22.24C24.3948 22.0548 24.248 21.835 24.1478 21.5931C24.0476 21.3511 23.996 21.0918 23.996 20.83C23.996 20.5681 24.0476 20.3088 24.1478 20.0669C24.248 19.825 24.3948 19.6051 24.58 19.42C24.7652 19.2348 24.985 19.0879 25.2269 18.9877C25.4689 18.8875 25.7282 18.8359 25.99 18.8359C26.2519 18.8359 26.5112 18.8875 26.7531 18.9877C26.995 19.0879 27.2148 19.2348 27.4 19.42L36.58 28.6C37.36 29.38 37.36 30.64 36.58 31.42L27.4 40.6C27.215 40.7854 26.9952 40.9325 26.7533 41.0328C26.5113 41.1332 26.2519 41.1849 25.99 41.1849C25.7281 41.1849 25.4687 41.1332 25.2268 41.0328C24.9848 40.9325 24.765 40.7854 24.58 40.6C23.82 39.82 23.8 38.54 24.58 37.76Z" fill="black"/>
</svg>
