<svg width="347" height="86" viewBox="0 0 347 86" fill="none" xmlns="http://www.w3.org/2000/svg">
<rect x="7.00006" y="7" width="339" height="78" rx="17" fill="white" stroke="black" stroke-width="2"/>
<rect x="1" y="1.00049" width="339" height="78" rx="17" fill="#FFCF10"/>
<rect x="1" y="1.00049" width="339" height="78" rx="17" stroke="black" stroke-width="2"/>
<path d="M78.592 39.1525L77.176 41.0245C75.184 39.9445 73.552 38.7925 71.728 37.2325C69.784 38.9605 68.152 40.1605 66.112 41.2645L64.6 39.4885C66.424 38.4085 67.984 37.2325 69.472 35.7685C70.12 35.1445 70.36 34.4725 70.36 33.6805V32.7685H65.464V30.5125H70.36V28.3525H73.096V30.5125H77.992V32.7685H73.096V33.6805C73.096 34.5205 73.336 35.1205 73.984 35.7205C75.328 36.9685 76.792 38.0965 78.592 39.1525ZM84.928 48.5365L83.584 50.4325C81.016 49.3285 78.496 48.0085 76.168 46.2085C73.84 48.0085 71.32 49.3285 68.752 50.4325L67.408 48.5365C69.832 47.4325 72.208 46.0645 73.96 44.6005C74.536 44.1205 74.8 43.4965 74.8 42.7285V41.7925H77.536V42.7285C77.536 43.4965 77.8 44.1205 78.376 44.6005C80.128 46.0645 82.504 47.4325 84.928 48.5365ZM83.488 42.9925H80.824V36.4165H76.912V34.0165H80.824V28.6405H83.488V42.9925ZM111.918 50.3605H109.254V28.6405H111.918V50.3605ZM105.75 29.9125C105.486 37.4005 100.494 43.3045 94.4697 46.5205L92.9097 44.6965C98.5017 41.4085 101.886 37.2085 102.678 32.2165H94.1337V29.9125H105.75ZM133.585 39.3925H117.841V29.1925H120.505V32.0725H130.921V29.1925H133.585V39.3925ZM127.081 50.3605H124.345V43.6885H114.985V41.3845H136.465V43.6885H127.081V50.3605ZM130.921 37.1365V34.3045H120.505V37.1365H130.921ZM150.572 40.3285C150.572 43.6885 148.028 46.0645 144.62 46.0645C141.212 46.0645 138.668 43.6885 138.668 40.3285C138.668 36.9685 141.212 34.5925 144.62 34.5925C148.028 34.5925 150.572 36.9685 150.572 40.3285ZM155.708 50.3605H153.044V28.6405H155.708V37.2805H158.972V39.5845H155.708V50.3605ZM151.268 33.6085H137.876V31.3525H143.252V28.6405H145.988V31.3525H151.268V33.6085ZM147.908 40.3285C147.908 38.1445 146.42 36.8485 144.62 36.8485C142.82 36.8485 141.332 38.1445 141.332 40.3285C141.332 42.5125 142.82 43.8085 144.62 43.8085C146.42 43.8085 147.908 42.5125 147.908 40.3285ZM180.856 47.6005H159.376V45.2965H167.056V37.8805H169.792V45.2965H180.856V47.6005ZM178.168 29.7925C178 34.3525 177.52 39.1285 176.896 42.7525H174.328C174.904 39.2005 175.36 35.1685 175.456 32.0965H161.992V29.7925H178.168ZM200.765 29.9125C200.501 37.4005 195.629 43.3045 189.725 46.5205L188.165 44.6965C191.309 42.8485 193.685 40.7365 195.293 38.3125H188.957V36.1045H196.541C197.093 34.8565 197.477 33.5605 197.693 32.1685H189.389V29.9125H200.765ZM206.933 50.3605H204.269V28.6405H206.933V50.3605ZM229.129 41.8165H226.465V28.6405H229.129V41.8165ZM211.585 40.7125V33.9205H220.105V31.6165H211.585V29.4325H222.769V36.0565H214.249V38.5285H217.153C219.913 38.5285 222.649 38.4085 225.313 37.9765V40.1125C222.721 40.5685 219.913 40.7125 217.153 40.7125H211.585ZM229.177 46.5205C229.177 49.4005 226.321 51.3925 222.289 51.3925C218.257 51.3925 215.401 49.4005 215.401 46.5205C215.401 43.6405 218.257 41.6485 222.289 41.6485C226.321 41.6485 229.177 43.6405 229.177 46.5205ZM226.465 46.5205C226.465 44.8885 224.617 43.9045 222.289 43.9045C219.961 43.9045 218.113 44.8885 218.113 46.5205C218.113 48.1525 219.961 49.1365 222.289 49.1365C224.617 49.1365 226.465 48.1525 226.465 46.5205ZM244.748 39.8725H233.66V29.4325H236.324V32.5045H242.084V29.4325H244.748V39.8725ZM251.204 50.1445H235.7V42.0325H250.844V44.2885H238.364V47.8885H251.204V50.1445ZM250.724 41.1925H248.06V28.6405H250.724V33.2005H253.868V35.5045H250.724V41.1925ZM242.084 37.6165V34.7365H236.324V37.6165H242.084ZM273.519 50.3605H270.855V28.6405H273.519V50.3605ZM267.351 29.9125C267.087 37.4005 262.095 43.3045 256.071 46.5205L254.511 44.6965C260.103 41.4085 263.487 37.2085 264.279 32.2165H255.735V29.9125H267.351Z" fill="black"/>
</svg>
