<svg width="464" height="86" viewBox="0 0 464 86" fill="none" xmlns="http://www.w3.org/2000/svg">
<rect x="7" y="7" width="456" height="78" rx="17" fill="white" stroke="black" stroke-width="2"/>
<rect x="1" y="1" width="454" height="78" rx="17" fill="#3A35F5"/>
<rect x="1" y="1" width="454" height="78" rx="17" stroke="black" stroke-width="2"/>
<path d="M78.888 50.144H63.864V41.792H78.888V50.144ZM74.472 38.552L73.056 40.424C71.064 39.344 69.432 38.192 67.608 36.632C65.664 38.36 64.032 39.56 61.992 40.664L60.48 38.888C62.304 37.808 63.864 36.632 65.352 35.168C66 34.544 66.24 33.872 66.24 33.08V32.768H61.344V30.512H66.24V28.352H68.976V30.512H73.872V32.768H68.976V33.08C68.976 33.92 69.216 34.52 69.864 35.12C71.208 36.368 72.672 37.496 74.472 38.552ZM78.888 40.952H76.224V28.64H78.888V33.536H82.032V35.84H78.888V40.952ZM76.224 47.888V44.048H66.528V47.888H76.224ZM101.683 50.36H99.0193V40.736H94.7473C93.5713 42.512 91.6753 43.472 89.6833 43.472C86.3953 43.472 83.3953 40.856 83.3953 36.392C83.3953 31.928 86.3953 29.312 89.6833 29.312C91.6513 29.312 93.4993 30.248 94.6753 31.952H99.0193V28.64H101.683V50.36ZM93.2833 36.392C93.2833 33.44 91.7473 31.568 89.6833 31.568C87.6193 31.568 86.0833 33.44 86.0833 36.392C86.0833 39.344 87.6193 41.216 89.6833 41.216C91.7473 41.216 93.2833 39.344 93.2833 36.392ZM95.9713 36.392C95.9713 37.136 95.8753 37.808 95.7313 38.432H99.0193V34.256H95.7073C95.8753 34.904 95.9713 35.624 95.9713 36.392ZM130.113 44.312H127.449V28.64H130.113V44.312ZM124.113 34.592C124.113 37.976 121.473 40.352 117.921 40.352C114.369 40.352 111.729 37.976 111.729 34.592C111.729 31.208 114.369 28.832 117.921 28.832C121.473 28.832 124.113 31.208 124.113 34.592ZM130.593 50.024H115.089V42.872H117.753V47.72H130.593V50.024ZM121.425 34.592C121.425 32.36 119.793 31.088 117.921 31.088C116.049 31.088 114.417 32.36 114.417 34.592C114.417 36.824 116.049 38.096 117.921 38.096C119.793 38.096 121.425 36.824 121.425 34.592ZM150.916 46.592C150.916 49.448 148.012 51.392 143.908 51.392C139.804 51.392 136.9 49.448 136.9 46.592C136.9 43.736 139.804 41.792 143.908 41.792C148.012 41.792 150.916 43.736 150.916 46.592ZM152.092 31.448H145.276C145.348 32.048 145.636 32.48 146.188 32.792C148.276 33.944 150.46 34.784 153.028 35.624L152.044 37.52C149.284 36.752 146.788 35.888 143.908 34.448C141.028 35.888 138.532 36.752 135.772 37.52L134.788 35.624C137.356 34.784 139.54 33.944 141.628 32.792C142.18 32.48 142.468 32.048 142.516 31.448H135.724V29.192H152.092V31.448ZM154.66 40.568H133.18V38.36H154.66V40.568ZM148.204 46.592C148.204 44.984 146.308 44.048 143.908 44.048C141.508 44.048 139.612 44.984 139.612 46.592C139.612 48.2 141.508 49.136 143.908 49.136C146.308 49.136 148.204 48.2 148.204 46.592ZM168.768 40.328C168.768 43.688 166.224 46.064 162.816 46.064C159.408 46.064 156.864 43.688 156.864 40.328C156.864 36.968 159.408 34.592 162.816 34.592C166.224 34.592 168.768 36.968 168.768 40.328ZM173.904 50.36H171.24V28.64H173.904V37.28H177.168V39.584H173.904V50.36ZM169.464 33.608H156.072V31.352H161.448V28.64H164.184V31.352H169.464V33.608ZM166.104 40.328C166.104 38.144 164.616 36.848 162.816 36.848C161.016 36.848 159.528 38.144 159.528 40.328C159.528 42.512 161.016 43.808 162.816 43.808C164.616 43.808 166.104 42.512 166.104 40.328ZM199.051 47.6H177.571V45.296H185.251V37.88H187.987V45.296H199.051V47.6ZM196.363 29.792C196.195 34.352 195.715 39.128 195.091 42.752H192.523C193.099 39.2 193.555 35.168 193.651 32.096H180.187V29.792H196.363ZM207.465 40.712V33.92H215.745V31.616H207.465V29.432H218.409V36.056H210.129V38.528H212.625C215.385 38.528 218.121 38.408 220.785 37.976V40.112C218.193 40.568 215.385 40.712 212.625 40.712H207.465ZM224.529 50.36H221.865V44.816H209.265V42.512H224.529V50.36ZM224.529 41.672H221.865V28.64H224.529V33.56H227.673V35.864H224.529V41.672ZM239.548 34.592C239.548 37.976 237.172 40.352 234.004 40.352C230.836 40.352 228.46 37.976 228.46 34.592C228.46 31.208 230.836 28.832 234.004 28.832C237.172 28.832 239.548 31.208 239.548 34.592ZM243.148 44.072H240.58V28.928H243.148V33.632H245.116V28.64H247.684V44.552H245.116V36.032H243.148V44.072ZM248.164 50.024H232.42V42.872H235.084V47.72H248.164V50.024ZM236.884 34.592C236.884 32.408 235.588 31.088 234.004 31.088C232.42 31.088 231.124 32.408 231.124 34.592C231.124 36.776 232.42 38.096 234.004 38.096C235.588 38.096 236.884 36.776 236.884 34.592ZM251.855 40.712V33.92H260.135V31.616H251.855V29.432H262.799V36.056H254.519V38.528H257.015C259.775 38.528 262.511 38.408 265.175 37.976V40.112C262.583 40.568 259.775 40.712 257.015 40.712H251.855ZM268.919 50.36H266.255V44.816H253.655V42.512H268.919V50.36ZM268.919 41.672H266.255V28.64H268.919V33.56H272.063V35.864H268.919V41.672ZM297.973 38.336V40.592H291.157V45.296H300.301V47.6H278.821V45.296H288.421V40.592H281.677V29.792H297.613V32.048H284.341V38.336H297.973ZM320.144 50.36H317.48V28.64H320.144V50.36ZM315.632 44.36L313.976 46.016C311.768 44.24 309.944 42.464 308.192 40.352C306.56 42.512 304.616 44.48 302.384 46.232L300.632 44.624C302.936 42.68 304.76 40.664 306.248 38.408C306.704 37.712 306.824 36.656 306.824 35.72V29.432H309.56V35.72C309.56 36.656 309.8 37.808 310.208 38.408C311.696 40.568 313.424 42.464 315.632 44.36ZM324.676 40.712V33.92H332.956V31.616H324.676V29.432H335.62V36.056H327.34V38.528H329.836C332.596 38.528 335.332 38.408 337.996 37.976V40.112C335.404 40.568 332.596 40.712 329.836 40.712H324.676ZM341.74 50.36H339.076V44.816H326.476V42.512H341.74V50.36ZM341.74 41.672H339.076V28.64H341.74V33.56H344.884V35.864H341.74V41.672ZM364.193 39.872H353.105V29.432H355.769V32.504H361.529V29.432H364.193V39.872ZM370.649 50.144H355.145V42.032H370.289V44.288H357.809V47.888H370.649V50.144ZM370.169 41.192H367.505V28.64H370.169V33.2H373.313V35.504H370.169V41.192ZM361.529 37.616V34.736H355.769V37.616H361.529ZM392.965 50.36H390.301V28.64H392.965V50.36ZM386.797 29.912C386.533 37.4 381.541 43.304 375.517 46.52L373.957 44.696C379.549 41.408 382.933 37.208 383.725 32.216H375.181V29.912H386.797Z" fill="white"/>
</svg>
