<svg width="48" height="48" viewBox="0 0 48 48" fill="none" xmlns="http://www.w3.org/2000/svg">
<path d="M16.24 18.5801L24 26.3401L31.76 18.5801C31.9451 18.395 32.1649 18.2481 32.4069 18.1479C32.6488 18.0477 32.9081 17.9961 33.1699 17.9961C33.4318 17.9961 33.6911 18.0477 33.933 18.1479C34.175 18.2481 34.3948 18.395 34.58 18.5801C34.7651 18.7653 34.912 18.9851 35.0122 19.227C35.1124 19.469 35.164 19.7283 35.164 19.9901C35.164 20.252 35.1124 20.5113 35.0122 20.7532C34.912 20.9951 34.7651 21.215 34.58 21.4001L25.4 30.5801C25.2149 30.7655 24.9951 30.9126 24.7532 31.013C24.5113 31.1134 24.2519 31.165 23.99 31.165C23.728 31.165 23.4686 31.1134 23.2267 31.013C22.9848 30.9126 22.765 30.7655 22.58 30.5801L13.4 21.4001C13.2145 21.2151 13.0674 20.9953 12.9671 20.7534C12.8667 20.5114 12.8151 20.2521 12.8151 19.9901C12.8151 19.7282 12.8667 19.4688 12.9671 19.2269C13.0674 18.9849 13.2145 18.7652 13.4 18.5801C14.18 17.8201 15.46 17.8001 16.24 18.5801Z" fill="#306D5D"/>
</svg>
