<svg width="422" height="90" viewBox="0 0 422 90" fill="none" xmlns="http://www.w3.org/2000/svg">
<rect x="7" y="7" width="414" height="82" rx="17" fill="white" stroke="black" stroke-width="2"/>
<rect x="1" y="1" width="414" height="81" rx="17" fill="#93CFF2"/>
<rect x="1" y="1" width="414" height="81" rx="17" stroke="black" stroke-width="2"/>
<path d="M141.08 55.192H119.128V47.672H136.888V45.944H119.128V43.096H127.96V40.92H115.48V38.04H144.12V40.92H131.608V43.096H140.44V50.424H122.68V52.344H141.08V55.192ZM140.44 36.376H119.128V27.256H140.44V36.376ZM136.888 33.432V30.2H122.68V33.432H136.888ZM170.034 55.192H148.722V45.016H157.554V42.712H145.074V39.768H173.714V42.712H161.202V45.016H170.034V55.192ZM171.25 37.976H147.506V35.032H151.73L151.634 30.2H147.986V27.256H170.77V30.2H167.122L167.026 35.032H171.25V37.976ZM166.482 52.184V48.024H152.274V52.184H166.482ZM155.186 30.2L155.282 35.032H163.474L163.57 30.2H155.186ZM208.484 55.48H204.932V26.52H208.484V55.48ZM200.26 28.216C199.908 38.2 193.252 46.072 185.22 50.36L183.14 47.928C190.596 43.544 195.108 37.944 196.164 31.288H184.772V28.216H200.26ZM237.374 40.856H216.382V27.256H219.934V31.096H233.822V27.256H237.374V40.856ZM228.702 55.48H225.054V46.584H212.574V43.512H241.214V46.584H228.702V55.48ZM233.822 37.848V34.072H219.934V37.848H233.822ZM260.024 42.104C260.024 46.584 256.632 49.752 252.088 49.752C247.544 49.752 244.152 46.584 244.152 42.104C244.152 37.624 247.544 34.456 252.088 34.456C256.632 34.456 260.024 37.624 260.024 42.104ZM266.872 55.48H263.32V26.52H266.872V38.04H271.224V41.112H266.872V55.48ZM260.952 33.144H243.096V30.136H250.264V26.52H253.912V30.136H260.952V33.144ZM256.472 42.104C256.472 39.192 254.488 37.464 252.088 37.464C249.688 37.464 247.704 39.192 247.704 42.104C247.704 45.016 249.688 46.744 252.088 46.744C254.488 46.744 256.472 45.016 256.472 42.104ZM297.265 55.48H293.713V26.52H297.265V55.48ZM289.041 28.216C288.689 38.2 282.033 46.072 274.001 50.36L271.921 47.928C279.377 43.544 283.889 37.944 284.945 31.288H273.553V28.216H289.041Z" fill="black"/>
</svg>
