<svg width="360" height="62" viewBox="0 0 360 62" fill="none" xmlns="http://www.w3.org/2000/svg">
<path d="M16 1H348C354.075 1 359 5.92487 359 12V46C359 52.0751 354.075 57 348 57H16C9.92487 57 5 52.0751 5 46V12C5 5.92487 9.92487 1 16 1Z" fill="white" stroke="black" stroke-width="2"/>
<rect x="1" y="5" width="354" height="56" rx="11" fill="white"/>
<rect x="1" y="5" width="354" height="56" rx="11" stroke="black" stroke-width="2"/>
<path d="M154.3 41.62H140.58V36.92H151.68V35.84H140.58V34.06H146.1V32.7H138.3V30.9H156.2V32.7H148.38V34.06H153.9V38.64H142.8V39.84H154.3V41.62ZM153.9 29.86H140.58V24.16H153.9V29.86ZM151.68 28.02V26H142.8V28.02H151.68ZM172.396 41.62H159.076V35.26H164.596V33.82H156.796V31.98H174.696V33.82H166.876V35.26H172.396V41.62ZM173.156 30.86H158.316V29.02H160.956L160.896 26H158.616V24.16H172.856V26H170.576L170.516 29.02H173.156V30.86ZM170.176 39.74V37.14H161.296V39.74H170.176ZM163.116 26L163.176 29.02H168.296L168.356 26H163.116ZM196.428 41.8H194.208V23.7H196.428V41.8ZM191.288 24.76C191.068 31 186.908 35.92 181.888 38.6L180.588 37.08C185.248 34.34 188.068 30.84 188.728 26.68H181.608V24.76H191.288ZM214.484 32.66H201.364V24.16H203.584V26.56H212.264V24.16H214.484V32.66ZM209.064 41.8H206.784V36.24H198.984V34.32H216.884V36.24H209.064V41.8ZM212.264 30.78V28.42H203.584V30.78H212.264Z" fill="black"/>
</svg>
