<svg width="255" height="41" viewBox="0 0 255 41" fill="none" xmlns="http://www.w3.org/2000/svg">
<mask id="path-1-outside-1_607_198" maskUnits="userSpaceOnUse" x="0" y="0" width="255" height="41" fill="black">
<rect fill="white" width="255" height="41"/>
<path d="M5.90234 7.52539H11.4746V30.1133H27.4531V35H5.90234V7.52539ZM31.2324 24.5586C31.2324 23.1523 31.5195 21.8105 32.0938 20.5332C32.668 19.2441 33.4941 18.1074 34.5723 17.123C35.6504 16.1387 36.9688 15.3535 38.5273 14.7676C40.0977 14.1816 41.8789 13.8887 43.8711 13.8887C45.8516 13.8887 47.6328 14.1875 49.2148 14.7852C50.8086 15.3711 52.1562 16.1797 53.2578 17.2109C54.3711 18.2422 55.2207 19.4551 55.8066 20.8496C56.4043 22.2441 56.7031 23.7383 56.7031 25.332C56.7031 25.5312 56.6973 25.748 56.6855 25.9824C56.6855 26.2051 56.6738 26.4102 56.6504 26.5977H37.0332C37.2559 27.2188 37.6133 27.7871 38.1055 28.3027C38.6094 28.8184 39.2363 29.2637 39.9863 29.6387C40.7363 30.0137 41.6035 30.3066 42.5879 30.5176C43.5723 30.7168 44.6621 30.8164 45.8574 30.8164C47.0527 30.8164 48.2422 30.6934 49.4258 30.4473C50.6094 30.1895 51.7402 29.8672 52.8184 29.4805L54.5762 33.4531C53.8965 33.7695 53.2051 34.0508 52.502 34.2969C51.8105 34.5312 51.084 34.7305 50.3223 34.8945C49.5723 35.0469 48.7812 35.1641 47.9492 35.2461C47.1289 35.3281 46.2617 35.3691 45.3477 35.3691C43.0156 35.3691 40.9707 35.0879 39.2129 34.5254C37.4551 33.9629 35.9844 33.1953 34.8008 32.2227C33.6172 31.25 32.7266 30.1074 32.1289 28.7949C31.5312 27.4824 31.2324 26.0703 31.2324 24.5586ZM51.1836 22.5371C50.9961 21.9629 50.7031 21.4297 50.3047 20.9375C49.918 20.4336 49.4316 20 48.8457 19.6367C48.2598 19.2617 47.5801 18.9688 46.8066 18.7578C46.0332 18.5469 45.1836 18.4414 44.2578 18.4414C43.2734 18.4414 42.377 18.5527 41.5684 18.7754C40.7598 18.998 40.0508 19.2969 39.4414 19.6719C38.832 20.0469 38.3223 20.4805 37.9121 20.9727C37.5137 21.4648 37.2207 21.9863 37.0332 22.5371H51.1836ZM65.4395 18.1602H60.4297V14.2578H65.4395V7.80664H70.6426V14.2578H75.6523V18.1602H70.6426V35H65.4395V18.1602ZM84.4941 5.83789C85.1152 5.83789 85.6836 5.9375 86.1992 6.13672C86.7266 6.33594 87.1777 6.62891 87.5527 7.01562C87.9277 7.39062 88.2207 7.84766 88.4316 8.38672C88.6426 8.92578 88.748 9.53516 88.748 10.2148C88.748 11.75 88.2207 13.2207 87.166 14.627C86.123 16.0215 84.5996 17.2637 82.5957 18.3535L80.6621 15.5938C81.1895 15.3125 81.6523 15.0371 82.0508 14.7676C82.4609 14.498 82.8125 14.2227 83.1055 13.9414C83.4102 13.6602 83.668 13.373 83.8789 13.0801C84.1016 12.7754 84.3008 12.4531 84.4766 12.1133C83.9023 12.1133 83.3809 12.0312 82.9121 11.8672C82.4551 11.7031 82.0566 11.4805 81.7168 11.1992C81.3887 10.9062 81.1309 10.5723 80.9434 10.1973C80.7676 9.81055 80.6797 9.40039 80.6797 8.9668C80.6797 8.5332 80.7676 8.12891 80.9434 7.75391C81.1309 7.36719 81.3887 7.0332 81.7168 6.75195C82.0566 6.4707 82.4609 6.24805 82.9297 6.08398C83.3984 5.91992 83.9199 5.83789 84.4941 5.83789ZM96.1836 28.6367C97.5898 29.4805 99.1367 30.1016 100.824 30.5C102.512 30.8984 104.24 31.0977 106.01 31.0977C107.205 31.0977 108.201 31.0156 108.998 30.8516C109.795 30.6875 110.434 30.4766 110.914 30.2188C111.395 29.9609 111.734 29.668 111.934 29.3398C112.133 29.0117 112.232 28.6777 112.232 28.3379C112.232 27.8457 112.016 27.4238 111.582 27.0723C111.16 26.7207 110.457 26.5449 109.473 26.5449C109.016 26.5449 108.523 26.5742 107.996 26.6328C107.469 26.6914 106.912 26.7559 106.326 26.8262C105.752 26.8848 105.148 26.9434 104.516 27.002C103.895 27.0605 103.262 27.0898 102.617 27.0898C101.211 27.0898 100.01 26.9375 99.0137 26.6328C98.0293 26.3281 97.2266 25.9121 96.6055 25.3848C95.9844 24.8574 95.5332 24.2363 95.252 23.5215C94.9707 22.7949 94.8301 22.0156 94.8301 21.1836C94.8301 20.1289 95.0762 19.1562 95.5684 18.2656C96.0605 17.375 96.7637 16.6074 97.6777 15.9629C98.5918 15.3066 99.6934 14.7969 100.982 14.4336C102.283 14.0703 103.73 13.8887 105.324 13.8887C106.156 13.8887 107.023 13.9414 107.926 14.0469C108.84 14.1406 109.736 14.2695 110.615 14.4336C111.494 14.5977 112.338 14.791 113.146 15.0137C113.955 15.2246 114.67 15.4531 115.291 15.6992L113.656 19.7422C112.332 19.25 111.008 18.8633 109.684 18.582C108.371 18.2891 107.018 18.1426 105.623 18.1426C104.65 18.1426 103.824 18.2188 103.145 18.3711C102.477 18.5117 101.932 18.7051 101.51 18.9512C101.088 19.1855 100.777 19.4609 100.578 19.7773C100.391 20.082 100.297 20.4043 100.297 20.7441C100.297 20.9902 100.344 21.2129 100.438 21.4121C100.543 21.6113 100.707 21.7871 100.93 21.9395C101.164 22.0801 101.463 22.1914 101.826 22.2734C102.201 22.3438 102.658 22.3789 103.197 22.3789C103.689 22.3789 104.211 22.3496 104.762 22.291C105.312 22.2324 105.887 22.1738 106.484 22.1152C107.082 22.0449 107.697 21.9805 108.33 21.9219C108.975 21.8633 109.631 21.834 110.299 21.834C111.541 21.834 112.625 21.9805 113.551 22.2734C114.488 22.5664 115.262 22.9766 115.871 23.5039C116.48 24.0312 116.938 24.6523 117.242 25.3672C117.547 26.082 117.699 26.8613 117.699 27.7051C117.699 28.7949 117.447 29.8086 116.943 30.7461C116.439 31.6836 115.689 32.498 114.693 33.1895C113.697 33.8691 112.455 34.4023 110.967 34.7891C109.49 35.1758 107.779 35.3691 105.834 35.3691C104.639 35.3691 103.484 35.293 102.371 35.1406C101.258 35 100.197 34.8066 99.1895 34.5605C98.1816 34.3027 97.2324 34.0039 96.3418 33.6641C95.4629 33.3242 94.6602 32.9609 93.9336 32.5742L96.1836 28.6367ZM136.279 26.8262C137.275 27.3887 138.283 27.8984 139.303 28.3555C140.334 28.8008 141.4 29.1816 142.502 29.498C143.604 29.8027 144.758 30.0371 145.965 30.2012C147.184 30.3652 148.479 30.4473 149.85 30.4473C151.502 30.4473 152.908 30.3418 154.068 30.1309C155.229 29.9082 156.172 29.6094 156.898 29.2344C157.637 28.8477 158.17 28.3906 158.498 27.8633C158.838 27.3359 159.008 26.7617 159.008 26.1406C159.008 25.1445 158.592 24.3594 157.76 23.7852C156.928 23.1992 155.645 22.9062 153.91 22.9062C153.148 22.9062 152.346 22.959 151.502 23.0645C150.658 23.1582 149.803 23.2637 148.936 23.3809C148.08 23.498 147.23 23.6094 146.387 23.7148C145.555 23.8086 144.77 23.8555 144.031 23.8555C142.801 23.8555 141.617 23.6973 140.48 23.3809C139.355 23.0645 138.354 22.5898 137.475 21.957C136.607 21.3242 135.916 20.5332 135.4 19.584C134.885 18.6348 134.627 17.5273 134.627 16.2617C134.627 15.5117 134.727 14.7676 134.926 14.0293C135.137 13.291 135.465 12.5879 135.91 11.9199C136.367 11.2402 136.953 10.6133 137.668 10.0391C138.383 9.45313 139.244 8.94922 140.252 8.52734C141.271 8.10547 142.443 7.77734 143.768 7.54297C145.104 7.29688 146.621 7.17383 148.32 7.17383C149.551 7.17383 150.787 7.24414 152.029 7.38477C153.271 7.51367 154.479 7.70117 155.65 7.94727C156.834 8.19336 157.971 8.49219 159.061 8.84375C160.15 9.18359 161.164 9.56445 162.102 9.98633L159.658 14.4863C158.885 14.1465 158.053 13.8359 157.162 13.5547C156.271 13.2617 155.34 13.0098 154.367 12.7988C153.395 12.5879 152.387 12.4238 151.344 12.3066C150.312 12.1777 149.258 12.1133 148.18 12.1133C146.645 12.1133 145.379 12.2246 144.383 12.4473C143.398 12.6699 142.613 12.957 142.027 13.3086C141.441 13.6484 141.031 14.0352 140.797 14.4688C140.574 14.8906 140.463 15.3125 140.463 15.7344C140.463 16.5547 140.832 17.2285 141.57 17.7559C142.309 18.2715 143.434 18.5293 144.945 18.5293C145.555 18.5293 146.252 18.4883 147.037 18.4062C147.834 18.3125 148.666 18.2129 149.533 18.1074C150.412 18.002 151.303 17.9082 152.205 17.8262C153.119 17.7324 154.004 17.6855 154.859 17.6855C156.477 17.6855 157.906 17.8672 159.148 18.2305C160.402 18.5938 161.451 19.1152 162.295 19.7949C163.139 20.4629 163.777 21.2773 164.211 22.2383C164.645 23.1875 164.861 24.2539 164.861 25.4375C164.861 27.0195 164.492 28.4316 163.754 29.6738C163.027 30.9043 161.984 31.9473 160.625 32.8027C159.277 33.6465 157.648 34.291 155.738 34.7363C153.828 35.1699 151.701 35.3867 149.357 35.3867C147.811 35.3867 146.299 35.2871 144.822 35.0879C143.346 34.9004 141.928 34.6309 140.568 34.2793C139.221 33.916 137.932 33.4883 136.701 32.9961C135.482 32.4922 134.352 31.9414 133.309 31.3438L136.279 26.8262ZM173.475 18.1602H168.465V14.2578H173.475V7.80664H178.678V14.2578H183.688V18.1602H178.678V35H173.475V18.1602ZM187.326 28.4609C187.326 27.4648 187.543 26.5566 187.977 25.7363C188.41 24.916 189.061 24.2129 189.928 23.627C190.795 23.0293 191.873 22.5723 193.162 22.2559C194.463 21.9277 195.975 21.7637 197.697 21.7637C198.975 21.7637 200.316 21.8574 201.723 22.0449C203.141 22.2324 204.6 22.5195 206.1 22.9062C206.041 22.25 205.842 21.6465 205.502 21.0957C205.162 20.5332 204.688 20.0527 204.078 19.6543C203.48 19.2441 202.754 18.9277 201.898 18.7051C201.055 18.4824 200.094 18.3711 199.016 18.3711C198.43 18.3711 197.785 18.4062 197.082 18.4766C196.379 18.5469 195.652 18.6523 194.902 18.793C194.152 18.9336 193.408 19.1094 192.67 19.3203C191.943 19.5312 191.264 19.7832 190.631 20.0762L189.049 15.8047C189.834 15.5234 190.672 15.2656 191.562 15.0312C192.465 14.7969 193.385 14.5977 194.322 14.4336C195.26 14.2578 196.197 14.123 197.135 14.0293C198.072 13.9355 198.98 13.8887 199.859 13.8887C203.738 13.8887 206.621 14.8789 208.508 16.8594C210.395 18.8398 211.338 21.875 211.338 25.9648V35H206.135V33.0488C205.596 33.3652 205.004 33.6641 204.359 33.9453C203.727 34.2266 203.035 34.4727 202.285 34.6836C201.535 34.8945 200.727 35.0586 199.859 35.1758C199.004 35.3047 198.096 35.3691 197.135 35.3691C195.518 35.3691 194.094 35.1934 192.863 34.8418C191.645 34.4902 190.625 34.0039 189.805 33.3828C188.984 32.7617 188.363 32.0352 187.941 31.2031C187.531 30.3594 187.326 29.4453 187.326 28.4609ZM192.811 28.2852C192.811 28.625 192.898 28.9531 193.074 29.2695C193.25 29.5742 193.531 29.8496 193.918 30.0957C194.305 30.3301 194.797 30.5234 195.395 30.6758C196.004 30.8164 196.736 30.8867 197.592 30.8867C198.506 30.8867 199.391 30.8047 200.246 30.6406C201.102 30.4766 201.898 30.2598 202.637 29.9902C203.375 29.7207 204.043 29.4102 204.641 29.0586C205.238 28.707 205.736 28.3438 206.135 27.9688V27.0547C205.338 26.832 204.547 26.6445 203.762 26.4922C202.988 26.3398 202.244 26.2227 201.529 26.1406C200.826 26.0469 200.158 25.9824 199.525 25.9473C198.904 25.9121 198.359 25.8945 197.891 25.8945C196.918 25.8945 196.109 25.959 195.465 26.0879C194.82 26.2168 194.299 26.3926 193.9 26.6152C193.502 26.8262 193.221 27.0781 193.057 27.3711C192.893 27.6641 192.811 27.9688 192.811 28.2852ZM218.229 14.2578H223.432V17.2461C224.58 16.3906 225.793 15.6523 227.07 15.0312C228.348 14.4102 229.619 13.9355 230.885 13.6074L232.414 18.3711C230.41 18.5703 228.646 19.0215 227.123 19.7246C225.611 20.416 224.381 21.3945 223.432 22.6602V35H218.229V14.2578ZM239.428 18.1602H234.418V14.2578H239.428V7.80664H244.631V14.2578H249.641V18.1602H244.631V35H239.428V18.1602Z"/>
</mask>
<path d="M5.90234 7.52539H11.4746V30.1133H27.4531V35H5.90234V7.52539ZM31.2324 24.5586C31.2324 23.1523 31.5195 21.8105 32.0938 20.5332C32.668 19.2441 33.4941 18.1074 34.5723 17.123C35.6504 16.1387 36.9688 15.3535 38.5273 14.7676C40.0977 14.1816 41.8789 13.8887 43.8711 13.8887C45.8516 13.8887 47.6328 14.1875 49.2148 14.7852C50.8086 15.3711 52.1562 16.1797 53.2578 17.2109C54.3711 18.2422 55.2207 19.4551 55.8066 20.8496C56.4043 22.2441 56.7031 23.7383 56.7031 25.332C56.7031 25.5312 56.6973 25.748 56.6855 25.9824C56.6855 26.2051 56.6738 26.4102 56.6504 26.5977H37.0332C37.2559 27.2188 37.6133 27.7871 38.1055 28.3027C38.6094 28.8184 39.2363 29.2637 39.9863 29.6387C40.7363 30.0137 41.6035 30.3066 42.5879 30.5176C43.5723 30.7168 44.6621 30.8164 45.8574 30.8164C47.0527 30.8164 48.2422 30.6934 49.4258 30.4473C50.6094 30.1895 51.7402 29.8672 52.8184 29.4805L54.5762 33.4531C53.8965 33.7695 53.2051 34.0508 52.502 34.2969C51.8105 34.5312 51.084 34.7305 50.3223 34.8945C49.5723 35.0469 48.7812 35.1641 47.9492 35.2461C47.1289 35.3281 46.2617 35.3691 45.3477 35.3691C43.0156 35.3691 40.9707 35.0879 39.2129 34.5254C37.4551 33.9629 35.9844 33.1953 34.8008 32.2227C33.6172 31.25 32.7266 30.1074 32.1289 28.7949C31.5312 27.4824 31.2324 26.0703 31.2324 24.5586ZM51.1836 22.5371C50.9961 21.9629 50.7031 21.4297 50.3047 20.9375C49.918 20.4336 49.4316 20 48.8457 19.6367C48.2598 19.2617 47.5801 18.9688 46.8066 18.7578C46.0332 18.5469 45.1836 18.4414 44.2578 18.4414C43.2734 18.4414 42.377 18.5527 41.5684 18.7754C40.7598 18.998 40.0508 19.2969 39.4414 19.6719C38.832 20.0469 38.3223 20.4805 37.9121 20.9727C37.5137 21.4648 37.2207 21.9863 37.0332 22.5371H51.1836ZM65.4395 18.1602H60.4297V14.2578H65.4395V7.80664H70.6426V14.2578H75.6523V18.1602H70.6426V35H65.4395V18.1602ZM84.4941 5.83789C85.1152 5.83789 85.6836 5.9375 86.1992 6.13672C86.7266 6.33594 87.1777 6.62891 87.5527 7.01562C87.9277 7.39062 88.2207 7.84766 88.4316 8.38672C88.6426 8.92578 88.748 9.53516 88.748 10.2148C88.748 11.75 88.2207 13.2207 87.166 14.627C86.123 16.0215 84.5996 17.2637 82.5957 18.3535L80.6621 15.5938C81.1895 15.3125 81.6523 15.0371 82.0508 14.7676C82.4609 14.498 82.8125 14.2227 83.1055 13.9414C83.4102 13.6602 83.668 13.373 83.8789 13.0801C84.1016 12.7754 84.3008 12.4531 84.4766 12.1133C83.9023 12.1133 83.3809 12.0312 82.9121 11.8672C82.4551 11.7031 82.0566 11.4805 81.7168 11.1992C81.3887 10.9062 81.1309 10.5723 80.9434 10.1973C80.7676 9.81055 80.6797 9.40039 80.6797 8.9668C80.6797 8.5332 80.7676 8.12891 80.9434 7.75391C81.1309 7.36719 81.3887 7.0332 81.7168 6.75195C82.0566 6.4707 82.4609 6.24805 82.9297 6.08398C83.3984 5.91992 83.9199 5.83789 84.4941 5.83789ZM96.1836 28.6367C97.5898 29.4805 99.1367 30.1016 100.824 30.5C102.512 30.8984 104.24 31.0977 106.01 31.0977C107.205 31.0977 108.201 31.0156 108.998 30.8516C109.795 30.6875 110.434 30.4766 110.914 30.2188C111.395 29.9609 111.734 29.668 111.934 29.3398C112.133 29.0117 112.232 28.6777 112.232 28.3379C112.232 27.8457 112.016 27.4238 111.582 27.0723C111.16 26.7207 110.457 26.5449 109.473 26.5449C109.016 26.5449 108.523 26.5742 107.996 26.6328C107.469 26.6914 106.912 26.7559 106.326 26.8262C105.752 26.8848 105.148 26.9434 104.516 27.002C103.895 27.0605 103.262 27.0898 102.617 27.0898C101.211 27.0898 100.01 26.9375 99.0137 26.6328C98.0293 26.3281 97.2266 25.9121 96.6055 25.3848C95.9844 24.8574 95.5332 24.2363 95.252 23.5215C94.9707 22.7949 94.8301 22.0156 94.8301 21.1836C94.8301 20.1289 95.0762 19.1562 95.5684 18.2656C96.0605 17.375 96.7637 16.6074 97.6777 15.9629C98.5918 15.3066 99.6934 14.7969 100.982 14.4336C102.283 14.0703 103.73 13.8887 105.324 13.8887C106.156 13.8887 107.023 13.9414 107.926 14.0469C108.84 14.1406 109.736 14.2695 110.615 14.4336C111.494 14.5977 112.338 14.791 113.146 15.0137C113.955 15.2246 114.67 15.4531 115.291 15.6992L113.656 19.7422C112.332 19.25 111.008 18.8633 109.684 18.582C108.371 18.2891 107.018 18.1426 105.623 18.1426C104.65 18.1426 103.824 18.2188 103.145 18.3711C102.477 18.5117 101.932 18.7051 101.51 18.9512C101.088 19.1855 100.777 19.4609 100.578 19.7773C100.391 20.082 100.297 20.4043 100.297 20.7441C100.297 20.9902 100.344 21.2129 100.438 21.4121C100.543 21.6113 100.707 21.7871 100.93 21.9395C101.164 22.0801 101.463 22.1914 101.826 22.2734C102.201 22.3438 102.658 22.3789 103.197 22.3789C103.689 22.3789 104.211 22.3496 104.762 22.291C105.312 22.2324 105.887 22.1738 106.484 22.1152C107.082 22.0449 107.697 21.9805 108.33 21.9219C108.975 21.8633 109.631 21.834 110.299 21.834C111.541 21.834 112.625 21.9805 113.551 22.2734C114.488 22.5664 115.262 22.9766 115.871 23.5039C116.48 24.0312 116.938 24.6523 117.242 25.3672C117.547 26.082 117.699 26.8613 117.699 27.7051C117.699 28.7949 117.447 29.8086 116.943 30.7461C116.439 31.6836 115.689 32.498 114.693 33.1895C113.697 33.8691 112.455 34.4023 110.967 34.7891C109.49 35.1758 107.779 35.3691 105.834 35.3691C104.639 35.3691 103.484 35.293 102.371 35.1406C101.258 35 100.197 34.8066 99.1895 34.5605C98.1816 34.3027 97.2324 34.0039 96.3418 33.6641C95.4629 33.3242 94.6602 32.9609 93.9336 32.5742L96.1836 28.6367ZM136.279 26.8262C137.275 27.3887 138.283 27.8984 139.303 28.3555C140.334 28.8008 141.4 29.1816 142.502 29.498C143.604 29.8027 144.758 30.0371 145.965 30.2012C147.184 30.3652 148.479 30.4473 149.85 30.4473C151.502 30.4473 152.908 30.3418 154.068 30.1309C155.229 29.9082 156.172 29.6094 156.898 29.2344C157.637 28.8477 158.17 28.3906 158.498 27.8633C158.838 27.3359 159.008 26.7617 159.008 26.1406C159.008 25.1445 158.592 24.3594 157.76 23.7852C156.928 23.1992 155.645 22.9062 153.91 22.9062C153.148 22.9062 152.346 22.959 151.502 23.0645C150.658 23.1582 149.803 23.2637 148.936 23.3809C148.08 23.498 147.23 23.6094 146.387 23.7148C145.555 23.8086 144.77 23.8555 144.031 23.8555C142.801 23.8555 141.617 23.6973 140.48 23.3809C139.355 23.0645 138.354 22.5898 137.475 21.957C136.607 21.3242 135.916 20.5332 135.4 19.584C134.885 18.6348 134.627 17.5273 134.627 16.2617C134.627 15.5117 134.727 14.7676 134.926 14.0293C135.137 13.291 135.465 12.5879 135.91 11.9199C136.367 11.2402 136.953 10.6133 137.668 10.0391C138.383 9.45313 139.244 8.94922 140.252 8.52734C141.271 8.10547 142.443 7.77734 143.768 7.54297C145.104 7.29688 146.621 7.17383 148.32 7.17383C149.551 7.17383 150.787 7.24414 152.029 7.38477C153.271 7.51367 154.479 7.70117 155.65 7.94727C156.834 8.19336 157.971 8.49219 159.061 8.84375C160.15 9.18359 161.164 9.56445 162.102 9.98633L159.658 14.4863C158.885 14.1465 158.053 13.8359 157.162 13.5547C156.271 13.2617 155.34 13.0098 154.367 12.7988C153.395 12.5879 152.387 12.4238 151.344 12.3066C150.312 12.1777 149.258 12.1133 148.18 12.1133C146.645 12.1133 145.379 12.2246 144.383 12.4473C143.398 12.6699 142.613 12.957 142.027 13.3086C141.441 13.6484 141.031 14.0352 140.797 14.4688C140.574 14.8906 140.463 15.3125 140.463 15.7344C140.463 16.5547 140.832 17.2285 141.57 17.7559C142.309 18.2715 143.434 18.5293 144.945 18.5293C145.555 18.5293 146.252 18.4883 147.037 18.4062C147.834 18.3125 148.666 18.2129 149.533 18.1074C150.412 18.002 151.303 17.9082 152.205 17.8262C153.119 17.7324 154.004 17.6855 154.859 17.6855C156.477 17.6855 157.906 17.8672 159.148 18.2305C160.402 18.5938 161.451 19.1152 162.295 19.7949C163.139 20.4629 163.777 21.2773 164.211 22.2383C164.645 23.1875 164.861 24.2539 164.861 25.4375C164.861 27.0195 164.492 28.4316 163.754 29.6738C163.027 30.9043 161.984 31.9473 160.625 32.8027C159.277 33.6465 157.648 34.291 155.738 34.7363C153.828 35.1699 151.701 35.3867 149.357 35.3867C147.811 35.3867 146.299 35.2871 144.822 35.0879C143.346 34.9004 141.928 34.6309 140.568 34.2793C139.221 33.916 137.932 33.4883 136.701 32.9961C135.482 32.4922 134.352 31.9414 133.309 31.3438L136.279 26.8262ZM173.475 18.1602H168.465V14.2578H173.475V7.80664H178.678V14.2578H183.688V18.1602H178.678V35H173.475V18.1602ZM187.326 28.4609C187.326 27.4648 187.543 26.5566 187.977 25.7363C188.41 24.916 189.061 24.2129 189.928 23.627C190.795 23.0293 191.873 22.5723 193.162 22.2559C194.463 21.9277 195.975 21.7637 197.697 21.7637C198.975 21.7637 200.316 21.8574 201.723 22.0449C203.141 22.2324 204.6 22.5195 206.1 22.9062C206.041 22.25 205.842 21.6465 205.502 21.0957C205.162 20.5332 204.688 20.0527 204.078 19.6543C203.48 19.2441 202.754 18.9277 201.898 18.7051C201.055 18.4824 200.094 18.3711 199.016 18.3711C198.43 18.3711 197.785 18.4062 197.082 18.4766C196.379 18.5469 195.652 18.6523 194.902 18.793C194.152 18.9336 193.408 19.1094 192.67 19.3203C191.943 19.5312 191.264 19.7832 190.631 20.0762L189.049 15.8047C189.834 15.5234 190.672 15.2656 191.562 15.0312C192.465 14.7969 193.385 14.5977 194.322 14.4336C195.26 14.2578 196.197 14.123 197.135 14.0293C198.072 13.9355 198.98 13.8887 199.859 13.8887C203.738 13.8887 206.621 14.8789 208.508 16.8594C210.395 18.8398 211.338 21.875 211.338 25.9648V35H206.135V33.0488C205.596 33.3652 205.004 33.6641 204.359 33.9453C203.727 34.2266 203.035 34.4727 202.285 34.6836C201.535 34.8945 200.727 35.0586 199.859 35.1758C199.004 35.3047 198.096 35.3691 197.135 35.3691C195.518 35.3691 194.094 35.1934 192.863 34.8418C191.645 34.4902 190.625 34.0039 189.805 33.3828C188.984 32.7617 188.363 32.0352 187.941 31.2031C187.531 30.3594 187.326 29.4453 187.326 28.4609ZM192.811 28.2852C192.811 28.625 192.898 28.9531 193.074 29.2695C193.25 29.5742 193.531 29.8496 193.918 30.0957C194.305 30.3301 194.797 30.5234 195.395 30.6758C196.004 30.8164 196.736 30.8867 197.592 30.8867C198.506 30.8867 199.391 30.8047 200.246 30.6406C201.102 30.4766 201.898 30.2598 202.637 29.9902C203.375 29.7207 204.043 29.4102 204.641 29.0586C205.238 28.707 205.736 28.3438 206.135 27.9688V27.0547C205.338 26.832 204.547 26.6445 203.762 26.4922C202.988 26.3398 202.244 26.2227 201.529 26.1406C200.826 26.0469 200.158 25.9824 199.525 25.9473C198.904 25.9121 198.359 25.8945 197.891 25.8945C196.918 25.8945 196.109 25.959 195.465 26.0879C194.82 26.2168 194.299 26.3926 193.9 26.6152C193.502 26.8262 193.221 27.0781 193.057 27.3711C192.893 27.6641 192.811 27.9688 192.811 28.2852ZM218.229 14.2578H223.432V17.2461C224.58 16.3906 225.793 15.6523 227.07 15.0312C228.348 14.4102 229.619 13.9355 230.885 13.6074L232.414 18.3711C230.41 18.5703 228.646 19.0215 227.123 19.7246C225.611 20.416 224.381 21.3945 223.432 22.6602V35H218.229V14.2578ZM239.428 18.1602H234.418V14.2578H239.428V7.80664H244.631V14.2578H249.641V18.1602H244.631V35H239.428V18.1602Z" fill="#FCFCFC"/>
<path d="M5.90234 7.52539V2.52539C3.14092 2.52539 0.902344 4.76397 0.902344 7.52539H5.90234ZM11.4746 7.52539H16.4746C16.4746 4.76397 14.236 2.52539 11.4746 2.52539V7.52539ZM11.4746 30.1133H6.47461C6.47461 32.8747 8.71319 35.1133 11.4746 35.1133V30.1133ZM27.4531 30.1133H32.4531C32.4531 27.3519 30.2145 25.1133 27.4531 25.1133V30.1133ZM27.4531 35V40C30.2145 40 32.4531 37.7614 32.4531 35H27.4531ZM5.90234 35H0.902344C0.902344 37.7614 3.14092 40 5.90234 40V35ZM5.90234 7.52539V12.5254H11.4746V7.52539V2.52539H5.90234V7.52539ZM11.4746 7.52539H6.47461V30.1133H11.4746H16.4746V7.52539H11.4746ZM11.4746 30.1133V35.1133H27.4531V30.1133V25.1133H11.4746V30.1133ZM27.4531 30.1133H22.4531V35H27.4531H32.4531V30.1133H27.4531ZM27.4531 35V30H5.90234V35V40H27.4531V35ZM5.90234 35H10.9023V7.52539H5.90234H0.902344V35H5.90234ZM32.0938 20.5332L36.6541 22.5833C36.6565 22.5781 36.6588 22.5729 36.6611 22.5677L32.0938 20.5332ZM38.5273 14.7676L36.7794 10.0831L36.7679 10.0874L38.5273 14.7676ZM49.2148 14.7852L47.4478 19.4625C47.4617 19.4678 47.4756 19.4729 47.4895 19.478L49.2148 14.7852ZM53.2578 17.2109L49.8407 20.861C49.8471 20.8671 49.8535 20.8731 49.86 20.879L53.2578 17.2109ZM55.8066 20.8496L51.197 22.7864C51.2016 22.7974 51.2062 22.8083 51.2109 22.8192L55.8066 20.8496ZM56.6855 25.9824L51.6918 25.7327C51.6876 25.8159 51.6855 25.8992 51.6855 25.9824H56.6855ZM56.6504 26.5977V31.5977C59.172 31.5977 61.299 29.72 61.6118 27.2178L56.6504 26.5977ZM37.0332 26.5977V21.5977C35.4062 21.5977 33.8809 22.3893 32.9444 23.7199C32.0079 25.0504 31.7774 26.7534 32.3265 28.285L37.0332 26.5977ZM38.1055 28.3027L34.4887 31.7551C34.5022 31.7693 34.5158 31.7834 34.5295 31.7974L38.1055 28.3027ZM42.5879 30.5176L41.5402 35.4066C41.5588 35.4106 41.5775 35.4145 41.5961 35.4182L42.5879 30.5176ZM49.4258 30.4473L50.4436 35.3426C50.4591 35.3394 50.4745 35.3361 50.4899 35.3327L49.4258 30.4473ZM52.8184 29.4805L57.3907 27.4573C56.33 25.06 53.5978 23.889 51.1302 24.7741L52.8184 29.4805ZM54.5762 33.4531L56.6863 37.986C59.156 36.8363 60.2509 33.9212 59.1486 31.4299L54.5762 33.4531ZM52.502 34.2969L54.1072 39.0322C54.1227 39.0269 54.1382 39.0216 54.1537 39.0162L52.502 34.2969ZM50.3223 34.8945L51.3176 39.7945C51.3368 39.7906 51.3559 39.7866 51.375 39.7824L50.3223 34.8945ZM47.9492 35.2461L47.4586 30.2702L47.4517 30.2709L47.9492 35.2461ZM51.1836 22.5371V27.5371C52.7854 27.5371 54.2902 26.7697 55.2308 25.4731C56.1714 24.1765 56.4338 22.5078 55.9366 20.9851L51.1836 22.5371ZM50.3047 20.9375L46.3381 23.9816C46.3645 24.0159 46.3913 24.0499 46.4185 24.0835L50.3047 20.9375ZM48.8457 19.6367L46.1504 23.8481C46.1705 23.8609 46.1907 23.8737 46.211 23.8862L48.8457 19.6367ZM37.9121 20.9727L34.071 17.7717C34.0558 17.7899 34.0408 17.8082 34.0259 17.8267L37.9121 20.9727ZM37.0332 22.5371L32.3 20.9258C31.7802 22.4526 32.0288 24.1363 32.9677 25.4477C33.9066 26.7591 35.4204 27.5371 37.0332 27.5371V22.5371ZM31.2324 24.5586H36.2324C36.2324 23.8561 36.3709 23.2133 36.6541 22.5833L32.0938 20.5332L27.5334 18.4831C26.6681 20.4078 26.2324 22.4486 26.2324 24.5586H31.2324ZM32.0938 20.5332L36.6611 22.5677C36.9453 21.9297 37.3561 21.3519 37.9436 20.8155L34.5723 17.123L31.2009 13.4306C29.6322 14.8629 28.3906 16.5586 27.5264 18.4987L32.0938 20.5332ZM34.5723 17.123L37.9436 20.8155C38.4909 20.3158 39.2405 19.8411 40.2868 19.4478L38.5273 14.7676L36.7679 10.0874C34.697 10.8659 32.8099 11.9615 31.2009 13.4306L34.5723 17.123ZM38.5273 14.7676L40.2753 19.4521C41.192 19.11 42.3658 18.8887 43.8711 18.8887V13.8887V8.88867C41.392 8.88867 39.0033 9.25324 36.7794 10.0831L38.5273 14.7676ZM43.8711 13.8887V18.8887C45.3492 18.8887 46.5181 19.1113 47.4478 19.4625L49.2148 14.7852L50.9818 10.1078C48.7475 9.26371 46.3539 8.88867 43.8711 8.88867V13.8887ZM49.2148 14.7852L47.4895 19.478C48.5338 19.862 49.2852 20.341 49.8407 20.861L53.2578 17.2109L56.6749 13.5608C55.0273 12.0183 53.0834 10.8802 50.9402 10.0923L49.2148 14.7852ZM53.2578 17.2109L49.86 20.879C50.4524 21.4277 50.888 22.0509 51.197 22.7864L55.8066 20.8496L60.4163 18.9128C59.5534 16.8592 58.2898 15.0566 56.6556 13.5428L53.2578 17.2109ZM55.8066 20.8496L51.2109 22.8192C51.5285 23.5602 51.7031 24.3806 51.7031 25.332H56.7031H61.7031C61.7031 23.0959 61.2801 20.9281 60.4024 18.88L55.8066 20.8496ZM56.7031 25.332H51.7031C51.7031 25.4349 51.7001 25.5674 51.6918 25.7327L56.6855 25.9824L61.6793 26.2321C61.6945 25.9287 61.7031 25.6276 61.7031 25.332H56.7031ZM56.6855 25.9824H51.6855C51.6855 25.9943 51.6854 26.0032 51.6852 26.0092C51.6851 26.0152 51.6849 26.0181 51.6849 26.018C51.6849 26.0179 51.6851 26.0144 51.6857 26.0078C51.6863 26.0011 51.6873 25.991 51.689 25.9775L56.6504 26.5977L61.6118 27.2178C61.665 26.7922 61.6855 26.377 61.6855 25.9824H56.6855ZM56.6504 26.5977V21.5977H37.0332V26.5977V31.5977H56.6504V26.5977ZM37.0332 26.5977L32.3265 28.285C32.8036 29.6157 33.5531 30.775 34.4887 31.7551L38.1055 28.3027L41.7222 24.8504C41.6932 24.82 41.6907 24.8118 41.7009 24.828C41.7056 24.8356 41.7122 24.847 41.7195 24.8619C41.7268 24.8769 41.7338 24.8933 41.7399 24.9103L37.0332 26.5977ZM38.1055 28.3027L34.5295 31.7974C35.4802 32.7701 36.5819 33.5266 37.7503 34.1108L39.9863 29.6387L42.2224 25.1665C41.8908 25.0007 41.7386 24.8666 41.6814 24.8081L38.1055 28.3027ZM39.9863 29.6387L37.7503 34.1108C38.9436 34.7075 40.2232 35.1244 41.5402 35.4066L42.5879 30.5176L43.6355 25.6286C42.9838 25.4889 42.529 25.3199 42.2224 25.1665L39.9863 29.6387ZM42.5879 30.5176L41.5961 35.4182C42.9616 35.6946 44.3898 35.8164 45.8574 35.8164V30.8164V25.8164C44.9344 25.8164 44.183 25.739 43.5797 25.6169L42.5879 30.5176ZM45.8574 30.8164V35.8164C47.3986 35.8164 48.929 35.6575 50.4436 35.3426L49.4258 30.4473L48.4079 25.552C47.5553 25.7292 46.7069 25.8164 45.8574 25.8164V30.8164ZM49.4258 30.4473L50.4899 35.3327C51.8731 35.0314 53.2132 34.6508 54.5065 34.1869L52.8184 29.4805L51.1302 24.7741C50.2673 25.0836 49.3456 25.3475 48.3616 25.5618L49.4258 30.4473ZM52.8184 29.4805L48.246 31.5036L50.0038 35.4763L54.5762 33.4531L59.1486 31.4299L57.3907 27.4573L52.8184 29.4805ZM54.5762 33.4531L52.466 28.9202C51.935 29.1674 51.3965 29.3864 50.8502 29.5776L52.502 34.2969L54.1537 39.0162C55.0136 38.7152 55.858 38.3717 56.6863 37.986L54.5762 33.4531ZM52.502 34.2969L50.8968 29.5615C50.398 29.7306 49.8567 29.8801 49.2695 30.0066L50.3223 34.8945L51.375 39.7824C52.3113 39.5808 53.223 39.3319 54.1072 39.0322L52.502 34.2969ZM50.3223 34.8945L49.327 29.9946C48.7582 30.1101 48.1366 30.2034 47.4586 30.2702L47.9492 35.2461L48.4398 40.222C49.4259 40.1247 50.3863 39.9836 51.3176 39.7945L50.3223 34.8945ZM47.9492 35.2461L47.4517 30.2709C46.8134 30.3347 46.1132 30.3691 45.3477 30.3691V35.3691V40.3691C46.4103 40.3691 47.4445 40.3215 48.4467 40.2213L47.9492 35.2461ZM45.3477 35.3691V30.3691C43.4031 30.3691 41.892 30.1329 40.7368 29.7633L39.2129 34.5254L37.689 39.2875C40.0494 40.0428 42.6282 40.3691 45.3477 40.3691V35.3691ZM39.2129 34.5254L40.7368 29.7633C39.4609 29.355 38.5816 28.858 37.9753 28.3597L34.8008 32.2227L31.6263 36.0856C33.3871 37.5327 35.4493 38.5708 37.689 39.2875L39.2129 34.5254ZM34.8008 32.2227L37.9753 28.3597C37.3434 27.8404 36.9414 27.2983 36.6793 26.7228L32.1289 28.7949L27.5785 30.867C28.5117 32.9165 29.891 34.6596 31.6263 36.0856L34.8008 32.2227ZM32.1289 28.7949L36.6793 26.7228C36.3922 26.0923 36.2324 25.3907 36.2324 24.5586H31.2324H26.2324C26.2324 26.7499 26.6703 28.8725 27.5785 30.867L32.1289 28.7949ZM51.1836 22.5371L55.9366 20.9851C55.5508 19.8034 54.9543 18.7345 54.1909 17.7915L50.3047 20.9375L46.4185 24.0835C46.4287 24.0962 46.4349 24.1049 46.4381 24.1097C46.4413 24.1143 46.442 24.1158 46.4411 24.1143C46.4403 24.1127 46.4385 24.1092 46.4363 24.1042C46.4341 24.0992 46.4322 24.094 46.4306 24.0891L51.1836 22.5371ZM50.3047 20.9375L54.2712 17.8934C53.4868 16.8712 52.5355 16.0414 51.4804 15.3872L48.8457 19.6367L46.211 23.8862C46.2727 23.9245 46.3069 23.9526 46.3225 23.9665C46.3375 23.9799 46.3406 23.9848 46.3381 23.9816L50.3047 20.9375ZM48.8457 19.6367L51.541 15.4254C50.4695 14.7396 49.3111 14.2582 48.1222 13.934L46.8066 18.7578L45.4911 23.5816C45.8491 23.6793 46.05 23.7838 46.1504 23.8481L48.8457 19.6367ZM46.8066 18.7578L48.1222 13.934C46.8599 13.5897 45.561 13.4414 44.2578 13.4414V18.4414V23.4414C44.8062 23.4414 45.2066 23.504 45.4911 23.5816L46.8066 18.7578ZM44.2578 18.4414V13.4414C42.9005 13.4414 41.5492 13.5946 40.241 13.9548L41.5684 18.7754L42.8958 23.596C43.2047 23.5109 43.6464 23.4414 44.2578 23.4414V18.4414ZM41.5684 18.7754L40.241 13.9548C39.0531 14.2819 37.8948 14.7528 36.8209 15.4136L39.4414 19.6719L42.0619 23.9302C42.2068 23.841 42.4664 23.7142 42.8958 23.596L41.5684 18.7754ZM39.4414 19.6719L36.8209 15.4136C35.8034 16.0397 34.866 16.8177 34.071 17.7717L37.9121 20.9727L41.7532 24.1736C41.7785 24.1432 41.8606 24.054 42.0619 23.9302L39.4414 19.6719ZM37.9121 20.9727L34.0259 17.8267C33.2897 18.736 32.6933 19.7703 32.3 20.9258L37.0332 22.5371L41.7665 24.1484C41.7628 24.1591 41.7593 24.1678 41.7565 24.1741C41.7537 24.1803 41.7521 24.183 41.7527 24.1819C41.7537 24.1802 41.7658 24.1588 41.7983 24.1186L37.9121 20.9727ZM37.0332 22.5371V27.5371H51.1836V22.5371V17.5371H37.0332V22.5371ZM65.4395 18.1602H70.4395C70.4395 15.3987 68.2009 13.1602 65.4395 13.1602V18.1602ZM60.4297 18.1602H55.4297C55.4297 20.9216 57.6683 23.1602 60.4297 23.1602V18.1602ZM60.4297 14.2578V9.25781C57.6683 9.25781 55.4297 11.4964 55.4297 14.2578H60.4297ZM65.4395 14.2578V19.2578C68.2009 19.2578 70.4395 17.0192 70.4395 14.2578H65.4395ZM65.4395 7.80664V2.80664C62.678 2.80664 60.4395 5.04522 60.4395 7.80664H65.4395ZM70.6426 7.80664H75.6426C75.6426 5.04522 73.404 2.80664 70.6426 2.80664V7.80664ZM70.6426 14.2578H65.6426C65.6426 17.0192 67.8812 19.2578 70.6426 19.2578V14.2578ZM75.6523 14.2578H80.6523C80.6523 11.4964 78.4138 9.25781 75.6523 9.25781V14.2578ZM75.6523 18.1602V23.1602C78.4138 23.1602 80.6523 20.9216 80.6523 18.1602H75.6523ZM70.6426 18.1602V13.1602C67.8812 13.1602 65.6426 15.3987 65.6426 18.1602H70.6426ZM70.6426 35V40C73.404 40 75.6426 37.7614 75.6426 35H70.6426ZM65.4395 35H60.4395C60.4395 37.7614 62.678 40 65.4395 40V35ZM65.4395 18.1602V13.1602H60.4297V18.1602V23.1602H65.4395V18.1602ZM60.4297 18.1602H65.4297V14.2578H60.4297H55.4297V18.1602H60.4297ZM60.4297 14.2578V19.2578H65.4395V14.2578V9.25781H60.4297V14.2578ZM65.4395 14.2578H70.4395V7.80664H65.4395H60.4395V14.2578H65.4395ZM65.4395 7.80664V12.8066H70.6426V7.80664V2.80664H65.4395V7.80664ZM70.6426 7.80664H65.6426V14.2578H70.6426H75.6426V7.80664H70.6426ZM70.6426 14.2578V19.2578H75.6523V14.2578V9.25781H70.6426V14.2578ZM75.6523 14.2578H70.6523V18.1602H75.6523H80.6523V14.2578H75.6523ZM75.6523 18.1602V13.1602H70.6426V18.1602V23.1602H75.6523V18.1602ZM70.6426 18.1602H65.6426V35H70.6426H75.6426V18.1602H70.6426ZM70.6426 35V30H65.4395V35V40H70.6426V35ZM65.4395 35H70.4395V18.1602H65.4395H60.4395V35H65.4395ZM86.1992 6.13672L84.3972 10.8007C84.4089 10.8052 84.4205 10.8097 84.4322 10.8141L86.1992 6.13672ZM87.5527 7.01562L83.9632 10.4964C83.9811 10.5148 83.9991 10.533 84.0172 10.5512L87.5527 7.01562ZM87.166 14.627L83.166 11.627L83.162 11.6323L87.166 14.627ZM82.5957 18.3535L78.5008 21.2226C79.9601 23.3054 82.7504 23.961 84.9846 22.7459L82.5957 18.3535ZM80.6621 15.5938L78.3092 11.182C77.0462 11.8556 76.1324 13.0382 75.7994 14.4303C75.4663 15.8224 75.7458 17.2905 76.5672 18.4628L80.6621 15.5938ZM82.0508 14.7676L79.3049 10.5891C79.2863 10.6013 79.2677 10.6137 79.2492 10.6262L82.0508 14.7676ZM83.1055 13.9414L79.7141 10.2674C79.6901 10.2895 79.6663 10.3119 79.6428 10.3345L83.1055 13.9414ZM83.8789 13.0801L79.8419 10.13C79.835 10.1395 79.8281 10.149 79.8212 10.1586L83.8789 13.0801ZM84.4766 12.1133L88.9176 14.4104C89.7194 12.8604 89.655 11.0045 88.7477 9.51382C87.8405 8.02312 86.2216 7.11328 84.4766 7.11328V12.1133ZM82.9121 11.8672L81.2228 16.5732C81.2353 16.5777 81.2478 16.5821 81.2604 16.5865L82.9121 11.8672ZM81.7168 11.1992L78.3867 14.9289C78.4334 14.9706 78.4808 15.0113 78.529 15.0512L81.7168 11.1992ZM80.9434 10.1973L76.3915 12.2663C76.4171 12.3225 76.4436 12.3781 76.4712 12.4333L80.9434 10.1973ZM80.9434 7.75391L76.4443 5.57254C76.4348 5.59221 76.4253 5.61194 76.4161 5.63174L80.9434 7.75391ZM81.7168 6.75195L78.529 2.89998C78.5068 2.91835 78.4847 2.93692 78.4628 2.95567L81.7168 6.75195ZM84.4941 5.83789V10.8379C84.5371 10.8379 84.5446 10.8413 84.5231 10.8375C84.5006 10.8336 84.4561 10.8235 84.3972 10.8007L86.1992 6.13672L88.0012 1.47273C86.8441 1.02567 85.6557 0.837891 84.4941 0.837891V5.83789ZM86.1992 6.13672L84.4322 10.8141C84.3768 10.7931 84.2989 10.757 84.2101 10.6993C84.1206 10.6412 84.0365 10.572 83.9632 10.4964L87.5527 7.01562L91.1422 3.5349C90.2313 2.59549 89.1489 1.90615 87.9662 1.45936L86.1992 6.13672ZM87.5527 7.01562L84.0172 10.5512C83.9447 10.4787 83.8871 10.4048 83.8443 10.338C83.8021 10.2722 83.7819 10.2252 83.7754 10.2087L88.4316 8.38672L93.0879 6.56472C92.6488 5.44261 91.9941 4.38596 91.0883 3.48009L87.5527 7.01562ZM88.4316 8.38672L83.7754 10.2087C83.7631 10.1772 83.7549 10.1513 83.7497 10.1323C83.7445 10.1133 83.7425 10.1024 83.7422 10.1008C83.7417 10.0977 83.748 10.133 83.748 10.2148H88.748H93.748C93.748 9.01835 93.5618 7.77604 93.0879 6.56472L88.4316 8.38672ZM88.748 10.2148H83.748C83.748 10.5152 83.6698 10.9552 83.166 11.627L87.166 14.627L91.166 17.627C92.7716 15.4862 93.748 12.9848 93.748 10.2148H88.748ZM87.166 14.627L83.162 11.6323C82.6622 12.3005 81.7655 13.1134 80.2068 13.9611L82.5957 18.3535L84.9846 22.7459C87.4337 21.414 89.5839 19.7424 91.1701 17.6216L87.166 14.627ZM82.5957 18.3535L86.6906 15.4845L84.757 12.7247L80.6621 15.5938L76.5672 18.4628L78.5008 21.2226L82.5957 18.3535ZM80.6621 15.5938L83.0151 20.0055C83.6613 19.6608 84.2795 19.2965 84.8523 18.909L82.0508 14.7676L79.2492 10.6262C79.0252 10.7777 78.7176 10.9642 78.3092 11.182L80.6621 15.5938ZM82.0508 14.7676L84.7967 18.9461C85.4118 18.5419 86.0143 18.0801 86.5681 17.5483L83.1055 13.9414L79.6428 10.3345C79.6107 10.3652 79.51 10.4542 79.3049 10.5891L82.0508 14.7676ZM83.1055 13.9414L86.4969 17.6154C87.0128 17.1392 87.503 16.6038 87.9366 16.0016L83.8789 13.0801L79.8212 10.1586C79.833 10.1423 79.8075 10.1811 79.7141 10.2674L83.1055 13.9414ZM83.8789 13.0801L87.9159 16.0302C88.2919 15.5156 88.6257 14.9748 88.9176 14.4104L84.4766 12.1133L80.0355 9.81617C79.9758 9.93148 79.9113 10.0351 79.8419 10.13L83.8789 13.0801ZM84.4766 12.1133V7.11328C84.3785 7.11328 84.426 7.09964 84.5639 7.1479L82.9121 11.8672L81.2604 16.5865C82.3357 16.9629 83.4262 17.1133 84.4766 17.1133V12.1133ZM82.9121 11.8672L84.6014 7.16121C84.6348 7.1732 84.7555 7.2238 84.9046 7.34725L81.7168 11.1992L78.529 15.0512C79.3578 15.7371 80.2753 16.2331 81.2228 16.5732L82.9121 11.8672ZM81.7168 11.1992L85.0469 7.46953C85.1669 7.57671 85.3064 7.74302 85.4155 7.9612L80.9434 10.1973L76.4712 12.4333C76.9553 13.4015 77.6104 14.2358 78.3867 14.9289L81.7168 11.1992ZM80.9434 10.1973L85.4952 8.12825C85.621 8.40503 85.6797 8.70186 85.6797 8.9668H80.6797H75.6797C75.6797 10.0989 75.9142 11.2161 76.3915 12.2663L80.9434 10.1973ZM80.6797 8.9668H85.6797C85.6797 9.23142 85.6208 9.5557 85.4707 9.87608L80.9434 7.75391L76.4161 5.63174C75.9143 6.70212 75.6797 7.83499 75.6797 8.9668H80.6797ZM80.9434 7.75391L85.4424 9.93527C85.3285 10.1702 85.1612 10.385 84.9708 10.5482L81.7168 6.75195L78.4628 2.95567C77.6161 3.68141 76.9332 4.56416 76.4443 5.57254L80.9434 7.75391ZM81.7168 6.75195L84.9046 10.6039C84.7342 10.745 84.6023 10.796 84.5814 10.8033L82.9297 6.08398L81.2779 1.36469C80.3196 1.70011 79.3791 2.19643 78.529 2.89998L81.7168 6.75195ZM82.9297 6.08398L84.5814 10.8033C84.4436 10.8515 84.3961 10.8379 84.4941 10.8379V5.83789V0.837891C83.4437 0.837891 82.3533 0.988315 81.2779 1.36469L82.9297 6.08398ZM96.1836 28.6367L98.7561 24.3493C97.6032 23.6575 96.2202 23.4592 94.9194 23.7992C93.6186 24.1391 92.5094 24.9887 91.8424 26.156L96.1836 28.6367ZM111.582 27.0723L108.381 30.9134C108.398 30.9277 108.416 30.9419 108.433 30.956L111.582 27.0723ZM106.326 26.8262L106.834 31.8003C106.863 31.7973 106.893 31.7941 106.922 31.7906L106.326 26.8262ZM104.516 27.002L104.055 22.0232L104.046 22.0241L104.516 27.002ZM99.0137 26.6328L97.5353 31.4092C97.5406 31.4109 97.5458 31.4125 97.5511 31.4141L99.0137 26.6328ZM95.252 23.5215L90.5891 25.3265C90.5924 25.335 90.5958 25.3436 90.5991 25.3521L95.252 23.5215ZM97.6777 15.9629L100.559 20.0492C100.571 20.041 100.582 20.0328 100.594 20.0245L97.6777 15.9629ZM100.982 14.4336L99.6375 9.61786L99.6262 9.62105L100.982 14.4336ZM107.926 14.0469L107.345 19.0131C107.369 19.0158 107.392 19.0184 107.416 19.0208L107.926 14.0469ZM113.146 15.0137L111.819 19.8343C111.841 19.8402 111.863 19.8461 111.884 19.8518L113.146 15.0137ZM115.291 15.6992L119.926 17.5735C120.426 16.3385 120.412 14.9553 119.887 13.7307C119.363 12.5062 118.371 11.5415 117.133 11.0508L115.291 15.6992ZM113.656 19.7422L111.914 24.4289C114.451 25.3717 117.277 24.1253 118.292 21.6165L113.656 19.7422ZM109.684 18.582L108.594 23.4619C108.611 23.4657 108.628 23.4694 108.645 23.4729L109.684 18.582ZM103.145 18.3711L104.175 23.2638C104.196 23.2594 104.217 23.2548 104.238 23.25L103.145 18.3711ZM101.51 18.9512L103.938 23.322C103.969 23.305 103.999 23.2877 104.029 23.2701L101.51 18.9512ZM100.578 19.7773L96.347 17.1133C96.3378 17.1278 96.3288 17.1423 96.3198 17.1569L100.578 19.7773ZM100.438 21.4121L95.9134 23.5411C95.9468 23.6121 95.9819 23.6822 96.0186 23.7515L100.438 21.4121ZM100.93 21.9395L98.1063 26.066C98.1883 26.1221 98.272 26.1758 98.3572 26.2269L100.93 21.9395ZM101.826 22.2734L100.725 27.1506C100.785 27.1641 100.845 27.1765 100.905 27.1878L101.826 22.2734ZM106.484 22.1152L106.972 27.0914C107.004 27.0882 107.036 27.0848 107.069 27.081L106.484 22.1152ZM108.33 21.9219L107.877 16.9424L107.869 16.9432L108.33 21.9219ZM113.551 22.2734L112.042 27.0404C112.048 27.0422 112.054 27.044 112.059 27.0458L113.551 22.2734ZM114.693 33.1895L117.512 37.3196C117.523 37.3121 117.534 37.3045 117.544 37.2969L114.693 33.1895ZM110.967 34.7891L109.709 29.9498L109.7 29.9522L110.967 34.7891ZM102.371 35.1406L103.049 30.1868C103.032 30.1845 103.015 30.1822 102.998 30.18L102.371 35.1406ZM99.1895 34.5605L97.9503 39.4046C97.968 39.4091 97.9856 39.4135 98.0034 39.4178L99.1895 34.5605ZM96.3418 33.6641L94.5386 38.3276C94.5455 38.3302 94.5524 38.3329 94.5593 38.3355L96.3418 33.6641ZM93.9336 32.5742L89.5924 30.0935C88.9215 31.2675 88.7548 32.6631 89.1301 33.9621C89.5054 35.2611 90.3908 36.3527 91.5844 36.988L93.9336 32.5742ZM96.1836 28.6367L93.6111 32.9242C95.4839 34.0479 97.5151 34.8562 99.6753 35.3662L100.824 30.5L101.973 25.6338C100.758 25.347 99.6958 24.9131 98.7561 24.3493L96.1836 28.6367ZM100.824 30.5L99.6753 35.3662C101.747 35.8554 103.861 36.0977 106.01 36.0977V31.0977V26.0977C104.619 26.0977 103.276 25.9415 101.973 25.6338L100.824 30.5ZM106.01 31.0977V36.0977C107.402 36.0977 108.763 36.0049 110.006 35.7488L108.998 30.8516L107.99 25.9543C107.64 26.0264 107.008 26.0977 106.01 26.0977V31.0977ZM108.998 30.8516L110.006 35.7488C111.068 35.5303 112.218 35.1934 113.278 34.6245L110.914 30.2188L108.55 25.8129C108.615 25.7778 108.612 25.7877 108.507 25.8226C108.404 25.8564 108.237 25.9035 107.99 25.9543L108.998 30.8516ZM110.914 30.2188L113.278 34.6245C114.232 34.1126 115.39 33.2816 116.208 31.9347L111.934 29.3398L107.66 26.745C107.873 26.3929 108.103 26.1578 108.265 26.0186C108.423 25.8821 108.534 25.8213 108.55 25.8129L110.914 30.2188ZM111.934 29.3398L116.208 31.9347C116.819 30.9282 117.232 29.7071 117.232 28.3379H112.232H107.232C107.232 27.6484 107.447 27.0953 107.66 26.745L111.934 29.3398ZM112.232 28.3379H117.232C117.232 26.1241 116.158 24.3458 114.731 23.1885L111.582 27.0723L108.433 30.956C108.205 30.7712 107.882 30.4432 107.623 29.9377C107.354 29.4146 107.232 28.8557 107.232 28.3379H112.232ZM111.582 27.0723L114.783 23.2312C112.985 21.7325 110.799 21.5449 109.473 21.5449V26.5449V31.5449C109.691 31.5449 109.683 31.5669 109.526 31.5275C109.37 31.4887 108.903 31.348 108.381 30.9134L111.582 27.0723ZM109.473 26.5449V21.5449C108.805 21.5449 108.126 21.5876 107.444 21.6634L107.996 26.6328L108.548 31.6022C108.921 31.5609 109.227 31.5449 109.473 31.5449V26.5449ZM107.996 26.6328L107.444 21.6634C106.901 21.7238 106.329 21.7899 105.73 21.8618L106.326 26.8262L106.922 31.7906C107.495 31.7218 108.037 31.659 108.548 31.6022L107.996 26.6328ZM106.326 26.8262L105.819 21.852C105.261 21.9089 104.673 21.966 104.055 22.0233L104.516 27.002L104.977 31.9807C105.623 31.9208 106.243 31.8607 106.834 31.8003L106.326 26.8262ZM104.516 27.002L104.046 22.0241C103.586 22.0674 103.11 22.0898 102.617 22.0898V27.0898V32.0898C103.413 32.0898 104.203 32.0536 104.985 31.9799L104.516 27.002ZM102.617 27.0898V22.0898C101.545 22.0898 100.865 21.9706 100.476 21.8515L99.0137 26.6328L97.5511 31.4141C99.154 31.9044 100.877 32.0898 102.617 32.0898V27.0898ZM99.0137 26.6328L100.492 21.8564C99.9882 21.7004 99.8312 21.5644 99.8416 21.5733L96.6055 25.3848L93.3693 29.1962C94.622 30.2598 96.0704 30.9558 97.5353 31.4092L99.0137 26.6328ZM96.6055 25.3848L99.8416 21.5733C99.8161 21.5516 99.8243 21.5542 99.8466 21.5848C99.8697 21.6167 99.8907 21.655 99.9048 21.6909L95.252 23.5215L90.5991 25.3521C91.2004 26.8805 92.1592 28.1688 93.3693 29.1962L96.6055 25.3848ZM95.252 23.5215L99.9148 21.7165C99.8712 21.6038 99.8301 21.4406 99.8301 21.1836H94.8301H89.8301C89.8301 22.5906 90.0702 23.986 90.5891 25.3265L95.252 23.5215ZM94.8301 21.1836H99.8301C99.8301 20.9428 99.8768 20.8067 99.9446 20.6841L95.5684 18.2656L91.1922 15.8472C90.2756 17.5058 89.8301 19.3151 89.8301 21.1836H94.8301ZM95.5684 18.2656L99.9446 20.6841C100.036 20.5187 100.201 20.3017 100.559 20.0492L97.6777 15.9629L94.7964 11.8766C93.3264 12.9131 92.0852 14.2313 91.1922 15.8472L95.5684 18.2656ZM97.6777 15.9629L100.594 20.0245C100.955 19.765 101.506 19.4809 102.339 19.2461L100.982 14.4336L99.6262 9.62105C97.8812 10.1128 96.2283 10.8483 94.7617 11.9013L97.6777 15.9629ZM100.982 14.4336L102.327 19.2493C103.12 19.028 104.106 18.8887 105.324 18.8887V13.8887V8.88867C103.355 8.88867 101.446 9.11267 99.6375 9.61787L100.982 14.4336ZM105.324 13.8887V18.8887C105.946 18.8887 106.618 18.9281 107.345 19.0131L107.926 14.0469L108.506 9.08068C107.429 8.95472 106.367 8.88867 105.324 8.88867V13.8887ZM107.926 14.0469L107.416 19.0208C108.197 19.1009 108.957 19.2105 109.698 19.3487L110.615 14.4336L111.533 9.51849C110.515 9.32856 109.483 9.18034 108.436 9.07297L107.926 14.0469ZM110.615 14.4336L109.698 19.3487C110.448 19.4887 111.154 19.6512 111.819 19.8343L113.146 15.0137L114.474 10.1931C113.522 9.93085 112.541 9.70662 111.533 9.51849L110.615 14.4336ZM113.146 15.0137L111.884 19.8518C112.543 20.0234 113.057 20.1923 113.449 20.3476L115.291 15.6992L117.133 11.0508C116.283 10.7139 115.368 10.4258 114.409 10.1756L113.146 15.0137ZM115.291 15.6992L110.656 13.8249L109.021 17.8679L113.656 19.7422L118.292 21.6165L119.926 17.5735L115.291 15.6992ZM113.656 19.7422L115.398 15.0554C113.855 14.4818 112.296 14.0253 110.722 13.6911L109.684 18.582L108.645 23.4729C109.72 23.7013 110.809 24.0182 111.914 24.4289L113.656 19.7422ZM109.684 18.582L110.773 13.7021C109.09 13.3264 107.37 13.1426 105.623 13.1426V18.1426V23.1426C106.665 23.1426 107.652 23.2517 108.594 23.4619L109.684 18.582ZM105.623 18.1426V13.1426C104.415 13.1426 103.2 13.2347 102.051 13.4921L103.145 18.3711L104.238 23.25C104.449 23.2028 104.885 23.1426 105.623 23.1426V18.1426ZM103.145 18.3711L102.114 13.4783C101.114 13.6889 100.018 14.0327 98.9904 14.6323L101.51 18.9512L104.029 23.2701C103.927 23.3298 103.877 23.3445 103.907 23.3337C103.936 23.3233 104.021 23.2962 104.175 23.2638L103.145 18.3711ZM101.51 18.9512L99.0816 14.5804C98.1328 15.1075 97.1058 15.9081 96.347 17.1133L100.578 19.7773L104.809 22.4414C104.449 23.0138 104.043 23.2636 103.938 23.322L101.51 18.9512ZM100.578 19.7773L96.3198 17.1569C95.6741 18.2061 95.2969 19.4293 95.2969 20.7441H100.297H105.297C105.297 21.3793 105.107 21.9579 104.836 22.3978L100.578 19.7773ZM100.297 20.7441H95.2969C95.2969 21.639 95.4711 22.6012 95.9134 23.5411L100.438 21.4121L104.962 19.2831C105.216 19.8246 105.297 20.3414 105.297 20.7441H100.297ZM100.438 21.4121L96.0186 23.7515C96.571 24.7951 97.3457 25.5456 98.1063 26.066L100.93 21.9395L103.753 17.8129C104.068 18.0286 104.515 18.4276 104.856 19.0727L100.438 21.4121ZM100.93 21.9395L98.3572 26.2269C99.1792 26.7201 100.018 26.9909 100.725 27.1506L101.826 22.2734L102.927 17.3962C102.929 17.3966 102.983 17.4087 103.075 17.443C103.167 17.4772 103.317 17.5411 103.502 17.652L100.93 21.9395ZM101.826 22.2734L100.905 27.1878C101.679 27.333 102.465 27.3789 103.197 27.3789V22.3789V17.3789C103.034 17.3789 102.915 17.3735 102.834 17.3673C102.751 17.3609 102.726 17.355 102.748 17.3591L101.826 22.2734ZM103.197 22.3789V27.3789C103.886 27.3789 104.586 27.338 105.291 27.263L104.762 22.291L104.233 17.3191C103.836 17.3612 103.493 17.3789 103.197 17.3789V22.3789ZM104.762 22.291L105.291 27.263C105.827 27.2059 106.387 27.1487 106.972 27.0914L106.484 22.1152L105.997 17.1391C105.386 17.1989 104.798 17.2589 104.233 17.3191L104.762 22.291ZM106.484 22.1152L107.069 27.081C107.623 27.0158 108.197 26.9556 108.791 26.9006L108.33 21.9219L107.869 16.9432C107.197 17.0054 106.541 17.0741 105.9 17.1495L106.484 22.1152ZM108.33 21.9219L108.783 26.9013C109.272 26.8569 109.777 26.834 110.299 26.834V21.834V16.834C109.485 16.834 108.677 16.8697 107.877 16.9424L108.33 21.9219ZM110.299 21.834V26.834C111.165 26.834 111.719 26.938 112.042 27.0404L113.551 22.2734L115.059 17.5064C113.531 17.0229 111.917 16.834 110.299 16.834V21.834ZM113.551 22.2734L112.059 27.0458C112.482 27.1778 112.609 27.2936 112.599 27.2847L115.871 23.5039L119.143 19.7231C117.914 18.6595 116.495 17.955 115.042 17.501L113.551 22.2734ZM115.871 23.5039L112.599 27.2847C112.618 27.301 112.629 27.3126 112.636 27.3192C112.639 27.3226 112.641 27.325 112.642 27.3265C112.643 27.3279 112.644 27.3286 112.644 27.3286C112.644 27.3286 112.643 27.3282 112.643 27.3275C112.642 27.3267 112.642 27.3259 112.642 27.3252C112.641 27.3235 112.641 27.3239 112.643 27.3277L117.242 25.3672L121.842 23.4067C121.228 21.9657 120.306 20.7293 119.143 19.7231L115.871 23.5039ZM117.242 25.3672L112.643 27.3277C112.661 27.3712 112.699 27.4768 112.699 27.7051H117.699H122.699C122.699 26.2459 122.433 24.7929 121.842 23.4067L117.242 25.3672ZM117.699 27.7051H112.699C112.699 27.9893 112.642 28.187 112.539 28.3789L116.943 30.7461L121.347 33.1133C122.252 31.4302 122.699 29.6005 122.699 27.7051H117.699ZM116.943 30.7461L112.539 28.3789C112.458 28.5308 112.282 28.7771 111.842 29.082L114.693 33.1895L117.544 37.2969C119.097 36.219 120.421 34.8364 121.347 33.1133L116.943 30.7461ZM114.693 33.1895L111.875 29.0593C111.465 29.3392 110.787 29.6699 109.709 29.9498L110.967 34.7891L112.224 39.6284C114.124 39.1348 115.929 38.3991 117.512 37.3196L114.693 33.1895ZM110.967 34.7891L109.7 29.9522C108.732 30.2057 107.463 30.3691 105.834 30.3691V35.3691V40.3691C108.096 40.3691 110.249 40.1458 112.234 39.6259L110.967 34.7891ZM105.834 35.3691V30.3691C104.851 30.3691 103.924 30.3065 103.049 30.1868L102.371 35.1406L101.693 40.0945C103.045 40.2794 104.426 40.3691 105.834 40.3691V35.3691ZM102.371 35.1406L102.998 30.18C102.058 30.0613 101.185 29.9009 100.376 29.7033L99.1895 34.5605L98.0034 39.4178C99.2098 39.7124 100.458 39.9387 101.744 40.1012L102.371 35.1406ZM99.1895 34.5605L100.429 29.7165C99.5886 29.5016 98.8221 29.2588 98.1243 28.9926L96.3418 33.6641L94.5593 38.3355C95.6428 38.749 96.7747 39.1038 97.9503 39.4046L99.1895 34.5605ZM96.3418 33.6641L98.145 29.0005C97.4268 28.7228 96.8094 28.4408 96.2828 28.1605L93.9336 32.5742L91.5844 36.988C92.5109 37.4811 93.499 37.9256 94.5386 38.3276L96.3418 33.6641ZM93.9336 32.5742L98.2748 35.0549L100.525 31.1174L96.1836 28.6367L91.8424 26.156L89.5924 30.0935L93.9336 32.5742ZM136.279 26.8262L138.738 22.4724C136.448 21.179 133.547 21.8813 132.102 24.079L136.279 26.8262ZM139.303 28.3555L137.257 32.918C137.278 32.9274 137.299 32.9367 137.321 32.9458L139.303 28.3555ZM142.502 29.498L141.122 34.3037C141.137 34.3083 141.153 34.3127 141.169 34.3171L142.502 29.498ZM145.965 30.2012L145.291 35.1556L145.298 35.1565L145.965 30.2012ZM154.068 30.1309L154.963 35.0502C154.979 35.0473 154.995 35.0443 155.011 35.0412L154.068 30.1309ZM156.898 29.2344L159.192 33.6775C159.201 33.6729 159.21 33.6682 159.218 33.6635L156.898 29.2344ZM158.498 27.8633L154.295 25.1548C154.281 25.177 154.267 25.1993 154.253 25.2218L158.498 27.8633ZM157.76 23.7852L154.881 27.8732C154.894 27.8823 154.907 27.8913 154.92 27.9003L157.76 23.7852ZM151.502 23.0645L152.054 28.0339C152.077 28.0314 152.099 28.0287 152.122 28.0258L151.502 23.0645ZM148.936 23.3809L148.266 18.4259L148.257 18.4271L148.936 23.3809ZM146.387 23.7148L146.947 28.6834C146.967 28.6811 146.987 28.6787 147.007 28.6762L146.387 23.7148ZM140.48 23.3809L139.127 28.1941L139.14 28.1977L140.48 23.3809ZM137.475 21.957L134.527 25.996C134.536 26.0023 134.544 26.0085 134.553 26.0147L137.475 21.957ZM134.926 14.0293L130.118 12.6557C130.111 12.6793 130.105 12.703 130.098 12.7267L134.926 14.0293ZM135.91 11.9199L131.761 9.12993C131.757 9.13542 131.754 9.14092 131.75 9.14642L135.91 11.9199ZM137.668 10.0391L140.799 13.9372C140.812 13.9268 140.825 13.9165 140.838 13.906L137.668 10.0391ZM140.252 8.52734L138.34 3.90726C138.334 3.90987 138.328 3.9125 138.321 3.91514L140.252 8.52734ZM143.768 7.54297L144.639 12.4664C144.65 12.4644 144.662 12.4623 144.673 12.4602L143.768 7.54297ZM152.029 7.38477L151.467 12.353C151.482 12.3548 151.498 12.3565 151.513 12.3581L152.029 7.38477ZM155.65 7.94727L154.623 12.8405L154.633 12.8426L155.65 7.94727ZM159.061 8.84375L157.526 13.6023C157.541 13.6073 157.557 13.6122 157.572 13.6171L159.061 8.84375ZM162.102 9.98633L166.496 12.3722C167.159 11.1499 167.284 9.70646 166.839 8.38857C166.395 7.07068 165.422 5.99746 164.153 5.42672L162.102 9.98633ZM159.658 14.4863L157.647 19.0639C160.027 20.1098 162.812 19.157 164.052 16.8722L159.658 14.4863ZM157.162 13.5547L155.6 18.3043C155.619 18.3105 155.638 18.3166 155.656 18.3226L157.162 13.5547ZM151.344 12.3066L150.724 17.268C150.744 17.2706 150.765 17.2731 150.785 17.2754L151.344 12.3066ZM144.383 12.4473L143.292 7.56767L143.28 7.57046L144.383 12.4473ZM142.027 13.3086L144.536 17.6337C144.557 17.6213 144.579 17.6088 144.6 17.5961L142.027 13.3086ZM140.797 14.4688L136.398 12.0912C136.39 12.1057 136.383 12.1203 136.375 12.135L140.797 14.4688ZM141.57 17.7559L138.664 21.8245C138.678 21.8348 138.693 21.845 138.707 21.8551L141.57 17.7559ZM147.037 18.4062L147.557 23.3792C147.578 23.3769 147.6 23.3745 147.621 23.372L147.037 18.4062ZM149.533 18.1074L148.937 13.143L148.93 13.144L149.533 18.1074ZM152.205 17.8262L152.658 22.8056C152.677 22.8039 152.696 22.802 152.715 22.8001L152.205 17.8262ZM159.148 18.2305L157.745 23.0295L157.757 23.033L159.148 18.2305ZM162.295 19.7949L159.158 23.6887C159.169 23.6976 159.18 23.7064 159.191 23.7152L162.295 19.7949ZM164.211 22.2383L159.653 24.2947C159.657 24.3017 159.66 24.3088 159.663 24.3158L164.211 22.2383ZM163.754 29.6738L159.456 27.1193C159.453 27.1234 159.451 27.1275 159.448 27.1316L163.754 29.6738ZM160.625 32.8027L163.278 37.0407L163.288 37.0345L160.625 32.8027ZM155.738 34.7363L156.845 39.6123C156.855 39.6101 156.864 39.608 156.873 39.6058L155.738 34.7363ZM144.822 35.0879L145.491 30.1328C145.478 30.131 145.465 30.1294 145.452 30.1277L144.822 35.0879ZM140.568 34.2793L139.267 39.107C139.283 39.1114 139.3 39.1158 139.316 39.12L140.568 34.2793ZM136.701 32.9961L134.791 37.6167C134.809 37.6241 134.826 37.6313 134.844 37.6385L136.701 32.9961ZM133.309 31.3438L129.131 28.5966C128.373 29.749 128.125 31.1633 128.445 32.5049C128.766 33.8465 129.626 34.9962 130.823 35.682L133.309 31.3438ZM136.279 26.8262L133.821 31.1799C134.948 31.8166 136.094 32.3963 137.257 32.918L139.303 28.3555L141.348 23.7929C140.473 23.4005 139.603 22.9608 138.738 22.4724L136.279 26.8262ZM139.303 28.3555L137.321 32.9458C138.552 33.4773 139.819 33.9296 141.122 34.3037L142.502 29.498L143.882 24.6924C142.982 24.4336 142.116 24.1242 141.285 23.7652L139.303 28.3555ZM142.502 29.498L141.169 34.3171C142.501 34.6855 143.876 34.9633 145.291 35.1556L145.965 30.2012L146.638 25.2467C145.639 25.111 144.706 24.92 143.835 24.679L142.502 29.498ZM145.965 30.2012L145.298 35.1565C146.761 35.3535 148.28 35.4473 149.85 35.4473V30.4473V25.4473C148.677 25.4473 147.606 25.377 146.632 25.2459L145.965 30.2012ZM149.85 30.4473V35.4473C151.693 35.4473 153.417 35.3313 154.963 35.0502L154.068 30.1309L153.174 25.2115C152.4 25.3523 151.311 25.4473 149.85 25.4473V30.4473ZM154.068 30.1309L155.011 35.0412C156.452 34.7647 157.897 34.3459 159.192 33.6775L156.898 29.2344L154.605 24.7913C154.447 24.8729 154.005 25.0517 153.126 25.2205L154.068 30.1309ZM156.898 29.2344L159.218 33.6635C160.486 32.9998 161.81 32.005 162.743 30.5048L158.498 27.8633L154.253 25.2218C154.53 24.7763 154.788 24.6955 154.578 24.8052L156.898 29.2344ZM158.498 27.8633L162.701 30.5718C163.556 29.2456 164.008 27.7326 164.008 26.1406H159.008H154.008C154.008 25.9888 154.03 25.8087 154.086 25.6183C154.142 25.4283 154.22 25.2716 154.295 25.1548L158.498 27.8633ZM159.008 26.1406H164.008C164.008 23.4721 162.76 21.161 160.6 19.67L157.76 23.7852L154.92 27.9003C154.767 27.7947 154.495 27.555 154.278 27.1456C154.059 26.7335 154.008 26.3585 154.008 26.1406H159.008ZM157.76 23.7852L160.639 19.6971C158.555 18.2297 156.025 17.9062 153.91 17.9062V22.9062V27.9062C154.514 27.9062 154.878 27.9589 155.06 28.0005C155.245 28.0428 155.128 28.0471 154.881 27.8732L157.76 23.7852ZM153.91 22.9062V17.9062C152.919 17.9062 151.908 17.9748 150.882 18.1031L151.502 23.0645L152.122 28.0258C152.783 27.9432 153.378 27.9062 153.91 27.9062V22.9062ZM151.502 23.0645L150.95 18.095C150.066 18.1933 149.171 18.3036 148.266 18.4259L148.936 23.3809L149.605 28.3358C150.434 28.2238 151.251 28.1231 152.054 28.0339L151.502 23.0645ZM148.936 23.3809L148.257 18.4271C147.421 18.5417 146.591 18.6505 145.767 18.7535L146.387 23.7148L147.007 28.6762C147.87 28.5683 148.74 28.4544 149.614 28.3346L148.936 23.3809ZM146.387 23.7148L145.827 18.7463C145.157 18.8218 144.56 18.8555 144.031 18.8555V23.8555V28.8555C144.979 28.8555 145.953 28.7954 146.947 28.6834L146.387 23.7148ZM144.031 23.8555V18.8555C143.234 18.8555 142.503 18.7538 141.821 18.564L140.48 23.3809L139.14 28.1977C140.731 28.6408 142.367 28.8555 144.031 28.8555V23.8555ZM140.48 23.3809L141.834 18.5676C141.227 18.3969 140.764 18.1645 140.396 17.8994L137.475 21.957L134.553 26.0147C135.943 27.0152 137.484 27.732 139.127 28.1941L140.48 23.3809ZM137.475 21.957L140.422 17.9181C140.157 17.7249 139.958 17.4996 139.794 17.1973L135.4 19.584L131.007 21.9706C131.874 23.5668 133.058 24.9236 134.527 25.996L137.475 21.957ZM135.4 19.584L139.794 17.1973C139.74 17.0972 139.627 16.8372 139.627 16.2617H134.627H129.627C129.627 18.2175 130.03 20.1723 131.007 21.9706L135.4 19.584ZM134.627 16.2617H139.627C139.627 15.9602 139.666 15.6539 139.753 15.3319L134.926 14.0293L130.098 12.7267C129.787 13.8813 129.627 15.0632 129.627 16.2617H134.627ZM134.926 14.0293L139.733 15.4029C139.796 15.1842 139.899 14.9508 140.07 14.6934L135.91 11.9199L131.75 9.14642C131.031 10.225 130.478 11.3978 130.118 12.6557L134.926 14.0293ZM135.91 11.9199L140.059 14.7099C140.204 14.4955 140.431 14.2327 140.799 13.9372L137.668 10.0391L134.537 6.14096C133.475 6.99383 132.531 7.98498 131.761 9.12993L135.91 11.9199ZM137.668 10.0391L140.838 13.906C141.117 13.6771 141.543 13.4074 142.183 13.1395L140.252 8.52734L138.321 3.91514C136.945 4.49106 135.649 5.22915 134.498 6.1721L137.668 10.0391ZM140.252 8.52734L142.164 13.1474C142.785 12.8903 143.597 12.6509 144.639 12.4664L143.768 7.54297L142.896 2.61949C141.29 2.90382 139.758 3.32066 138.34 3.90726L140.252 8.52734ZM143.768 7.54297L144.673 12.4602C145.647 12.2808 146.853 12.1738 148.32 12.1738V7.17383V2.17383C146.389 2.17383 144.56 2.31291 142.862 2.6257L143.768 7.54297ZM148.32 7.17383V12.1738C149.36 12.1738 150.408 12.2332 151.467 12.353L152.029 7.38477L152.592 2.4165C151.166 2.25507 149.742 2.17383 148.32 2.17383V7.17383ZM152.029 7.38477L151.513 12.3581C152.591 12.4699 153.627 12.6314 154.623 12.8405L155.65 7.94727L156.678 3.054C155.33 2.77094 153.952 2.55744 152.545 2.41147L152.029 7.38477ZM155.65 7.94727L154.633 12.8426C155.651 13.0543 156.615 13.3084 157.526 13.6023L159.061 8.84375L160.596 4.08521C159.327 3.67593 158.017 3.33238 156.668 3.05196L155.65 7.94727ZM159.061 8.84375L157.572 13.6171C158.491 13.9035 159.314 14.215 160.05 14.5459L162.102 9.98633L164.153 5.42672C163.014 4.91392 161.81 4.46368 160.549 4.07044L159.061 8.84375ZM162.102 9.98633L157.708 7.60049L155.264 12.1005L159.658 14.4863L164.052 16.8722L166.496 12.3722L162.102 9.98633ZM159.658 14.4863L161.67 9.90873C160.715 9.48928 159.713 9.11671 158.668 8.78677L157.162 13.5547L155.656 18.3226C156.393 18.5552 157.055 18.8037 157.647 19.0639L159.658 14.4863ZM157.162 13.5547L158.724 8.80506C157.659 8.45459 156.559 8.15795 155.427 7.91242L154.367 12.7988L153.307 17.6852C154.121 17.8616 154.884 18.0688 155.6 18.3043L157.162 13.5547ZM154.367 12.7988L155.427 7.91242C154.28 7.66367 153.104 7.473 151.902 7.33791L151.344 12.3066L150.785 17.2754C151.669 17.3747 152.509 17.5121 153.307 17.6852L154.367 12.7988ZM151.344 12.3066L151.964 7.34525C150.719 7.18969 149.457 7.11328 148.18 7.11328V12.1133V17.1133C149.058 17.1133 149.906 17.1658 150.724 17.268L151.344 12.3066ZM148.18 12.1133V7.11328C146.442 7.11328 144.777 7.23576 143.292 7.56768L144.383 12.4473L145.474 17.3268C145.981 17.2135 146.847 17.1133 148.18 17.1133V12.1133ZM144.383 12.4473L143.28 7.57046C142 7.85989 140.658 8.29945 139.455 9.02113L142.027 13.3086L144.6 17.5961C144.569 17.6145 144.614 17.5834 144.773 17.5255C144.929 17.4685 145.161 17.3976 145.486 17.3241L144.383 12.4473ZM142.027 13.3086L139.519 8.98344C138.422 9.61935 137.206 10.5973 136.398 12.0912L140.797 14.4688L145.195 16.8463C144.857 17.473 144.46 17.6775 144.536 17.6337L142.027 13.3086ZM140.797 14.4688L136.375 12.135C135.823 13.181 135.463 14.398 135.463 15.7344H140.463H145.463C145.463 16.227 145.326 16.6002 145.219 16.8025L140.797 14.4688ZM140.463 15.7344H135.463C135.463 18.3587 136.774 20.4743 138.664 21.8245L141.57 17.7559L144.477 13.6872C144.61 13.7822 144.888 14.0211 145.125 14.4527C145.371 14.902 145.463 15.3634 145.463 15.7344H140.463ZM141.57 17.7559L138.707 21.8551C140.683 23.2348 143.035 23.5293 144.945 23.5293V18.5293V13.5293C144.457 13.5293 144.188 13.486 144.085 13.4623C143.98 13.4382 144.15 13.4589 144.433 13.6566L141.57 17.7559ZM144.945 18.5293V23.5293C145.77 23.5293 146.646 23.4743 147.557 23.3792L147.037 18.4062L146.518 13.4333C145.858 13.5023 145.339 13.5293 144.945 13.5293V18.5293ZM147.037 18.4062L147.621 23.372C148.425 23.2774 149.264 23.177 150.137 23.0708L149.533 18.1074L148.93 13.144C148.068 13.2487 147.243 13.3476 146.453 13.4405L147.037 18.4062ZM149.533 18.1074L150.129 23.0718C150.959 22.9722 151.802 22.8834 152.658 22.8056L152.205 17.8262L151.752 12.8467C150.803 12.933 149.865 13.0317 148.937 13.143L149.533 18.1074ZM152.205 17.8262L152.715 22.8001C153.472 22.7224 154.186 22.6855 154.859 22.6855V17.6855V12.6855C153.822 12.6855 152.766 12.7424 151.695 12.8523L152.205 17.8262ZM154.859 17.6855V22.6855C156.114 22.6855 157.056 22.8279 157.745 23.0295L159.148 18.2305L160.552 13.4315C158.757 12.9065 156.839 12.6855 154.859 12.6855V17.6855ZM159.148 18.2305L157.757 23.033C158.502 23.2489 158.924 23.5004 159.158 23.6887L162.295 19.7949L165.432 15.9012C163.978 14.7301 162.302 13.9386 160.54 13.428L159.148 18.2305ZM162.295 19.7949L159.191 23.7152C159.422 23.8977 159.556 24.0779 159.653 24.2947L164.211 22.2383L168.768 20.1818C167.999 18.4768 166.855 17.0281 165.398 15.8747L162.295 19.7949ZM164.211 22.2383L159.663 24.3158C159.761 24.5307 159.861 24.8745 159.861 25.4375H164.861H169.861C169.861 23.6333 169.528 21.8443 168.759 20.1608L164.211 22.2383ZM164.861 25.4375H159.861C159.861 26.2083 159.692 26.7222 159.456 27.1193L163.754 29.6738L168.052 32.2284C169.293 30.1411 169.861 27.8308 169.861 25.4375H164.861ZM163.754 29.6738L159.448 27.1316C159.175 27.5949 158.732 28.0866 157.962 28.571L160.625 32.8027L163.288 37.0345C165.237 35.808 166.88 34.2137 168.059 32.2161L163.754 29.6738ZM160.625 32.8027L157.972 28.5648C157.186 29.0565 156.097 29.5187 154.603 29.8669L155.738 34.7363L156.873 39.6058C159.2 39.0633 161.368 38.2365 163.278 37.0407L160.625 32.8027ZM155.738 34.7363L154.631 29.8604C153.147 30.1973 151.399 30.3867 149.357 30.3867V35.3867V40.3867C152.003 40.3867 154.509 40.1425 156.845 39.6123L155.738 34.7363ZM149.357 35.3867V30.3867C148.026 30.3867 146.738 30.301 145.491 30.1328L144.822 35.0879L144.154 40.043C145.86 40.2732 147.595 40.3867 149.357 40.3867V35.3867ZM144.822 35.0879L145.452 30.1277C144.173 29.9653 142.963 29.7342 141.82 29.4386L140.568 34.2793L139.316 39.12C140.892 39.5276 142.519 39.8355 144.192 40.0481L144.822 35.0879ZM140.568 34.2793L141.87 29.4516C140.701 29.1365 139.598 28.7696 138.558 28.3537L136.701 32.9961L134.844 37.6385C136.265 38.207 137.741 38.6955 139.267 39.107L140.568 34.2793ZM136.701 32.9961L138.612 28.3755C137.572 27.9455 136.635 27.4872 135.795 27.0055L133.309 31.3438L130.823 35.682C132.068 36.3956 133.393 37.0389 134.791 37.6167L136.701 32.9961ZM133.309 31.3438L137.486 34.0909L140.457 29.5734L136.279 26.8262L132.102 24.079L129.131 28.5966L133.309 31.3438ZM173.475 18.1602H178.475C178.475 15.3987 176.236 13.1602 173.475 13.1602V18.1602ZM168.465 18.1602H163.465C163.465 20.9216 165.703 23.1602 168.465 23.1602V18.1602ZM168.465 14.2578V9.25781C165.703 9.25781 163.465 11.4964 163.465 14.2578H168.465ZM173.475 14.2578V19.2578C176.236 19.2578 178.475 17.0192 178.475 14.2578H173.475ZM173.475 7.80664V2.80664C170.713 2.80664 168.475 5.04522 168.475 7.80664H173.475ZM178.678 7.80664H183.678C183.678 5.04522 181.439 2.80664 178.678 2.80664V7.80664ZM178.678 14.2578H173.678C173.678 17.0192 175.916 19.2578 178.678 19.2578V14.2578ZM183.688 14.2578H188.688C188.688 11.4964 186.449 9.25781 183.688 9.25781V14.2578ZM183.688 18.1602V23.1602C186.449 23.1602 188.688 20.9216 188.688 18.1602H183.688ZM178.678 18.1602V13.1602C175.916 13.1602 173.678 15.3987 173.678 18.1602H178.678ZM178.678 35V40C181.439 40 183.678 37.7614 183.678 35H178.678ZM173.475 35H168.475C168.475 37.7614 170.713 40 173.475 40V35ZM173.475 18.1602V13.1602H168.465V18.1602V23.1602H173.475V18.1602ZM168.465 18.1602H173.465V14.2578H168.465H163.465V18.1602H168.465ZM168.465 14.2578V19.2578H173.475V14.2578V9.25781H168.465V14.2578ZM173.475 14.2578H178.475V7.80664H173.475H168.475V14.2578H173.475ZM173.475 7.80664V12.8066H178.678V7.80664V2.80664H173.475V7.80664ZM178.678 7.80664H173.678V14.2578H178.678H183.678V7.80664H178.678ZM178.678 14.2578V19.2578H183.688V14.2578V9.25781H178.678V14.2578ZM183.688 14.2578H178.688V18.1602H183.688H188.688V14.2578H183.688ZM183.688 18.1602V13.1602H178.678V18.1602V23.1602H183.688V18.1602ZM178.678 18.1602H173.678V35H178.678H183.678V18.1602H178.678ZM178.678 35V30H173.475V35V40H178.678V35ZM173.475 35H178.475V18.1602H173.475H168.475V35H173.475ZM189.928 23.627L192.727 27.7699C192.74 27.7613 192.752 27.7526 192.765 27.7439L189.928 23.627ZM193.162 22.2559L194.354 27.1117C194.364 27.1092 194.375 27.1066 194.385 27.104L193.162 22.2559ZM201.723 22.0449L201.062 27.0011L201.067 27.0018L201.723 22.0449ZM206.1 22.9062L204.851 27.7479C206.424 28.1535 208.097 27.7695 209.335 26.7183C210.574 25.6671 211.224 24.0797 211.08 22.4616L206.1 22.9062ZM205.502 21.0957L201.222 23.6813C201.23 23.6946 201.239 23.708 201.247 23.7212L205.502 21.0957ZM204.078 19.6543L201.249 23.7769C201.28 23.798 201.311 23.8187 201.342 23.8391L204.078 19.6543ZM201.898 18.7051L200.623 23.5396C200.628 23.541 200.634 23.5424 200.639 23.5439L201.898 18.7051ZM192.67 19.3203L191.296 14.5127C191.289 14.5146 191.283 14.5166 191.276 14.5186L192.67 19.3203ZM190.631 20.0762L185.942 21.8127C186.426 23.1205 187.435 24.1665 188.724 24.6983C190.013 25.2301 191.466 25.1994 192.731 24.6135L190.631 20.0762ZM189.049 15.8047L187.363 11.0976C186.106 11.5479 185.081 12.4824 184.517 13.6928C183.953 14.9033 183.896 16.289 184.36 17.5413L189.049 15.8047ZM191.562 15.0312L190.306 10.1918C190.3 10.1932 190.295 10.1945 190.29 10.1959L191.562 15.0312ZM194.322 14.4336L195.184 19.3587C195.204 19.3553 195.224 19.3517 195.244 19.348L194.322 14.4336ZM211.338 35V40C214.099 40 216.338 37.7614 216.338 35H211.338ZM206.135 35H201.135C201.135 37.7614 203.373 40 206.135 40V35ZM206.135 33.0488H211.135C211.135 31.2561 210.175 29.6006 208.619 28.7098C207.063 27.819 205.15 27.8293 203.604 28.7367L206.135 33.0488ZM204.359 33.9453L202.36 29.3626C202.349 29.3671 202.339 29.3717 202.329 29.3763L204.359 33.9453ZM199.859 35.1758L199.19 30.2208C199.165 30.2242 199.139 30.2278 199.114 30.2316L199.859 35.1758ZM192.863 34.8418L191.477 39.6459L191.49 39.6494L192.863 34.8418ZM187.941 31.2031L183.445 33.3891C183.457 33.4143 183.469 33.4393 183.482 33.4643L187.941 31.2031ZM193.074 29.2695L188.703 31.6977C188.717 31.7213 188.73 31.7448 188.743 31.7681L193.074 29.2695ZM193.918 30.0957L191.234 34.314C191.264 34.3336 191.295 34.3528 191.326 34.3717L193.918 30.0957ZM195.395 30.6758L194.16 35.5209C194.196 35.5302 194.233 35.5392 194.27 35.5477L195.395 30.6758ZM206.135 27.9688L209.562 31.6098C210.566 30.6649 211.135 29.3474 211.135 27.9688H206.135ZM206.135 27.0547H211.135C211.135 24.8115 209.641 22.8428 207.48 22.2391L206.135 27.0547ZM203.762 26.4922L202.795 31.3979C202.8 31.3988 202.805 31.3997 202.809 31.4006L203.762 26.4922ZM201.529 26.1406L200.868 31.0968C200.899 31.1008 200.929 31.1045 200.959 31.108L201.529 26.1406ZM199.525 25.9473L199.243 30.9393L199.248 30.9396L199.525 25.9473ZM193.9 26.6152L196.24 31.0342C196.273 31.0165 196.306 30.9984 196.339 30.98L193.9 26.6152ZM187.326 28.4609H192.326C192.326 28.2178 192.372 28.1207 192.397 28.0729L187.977 25.7363L183.556 23.3998C182.714 24.9926 182.326 26.7119 182.326 28.4609H187.326ZM187.977 25.7363L192.397 28.0729C192.4 28.0674 192.452 27.9556 192.727 27.7699L189.928 23.627L187.128 19.484C185.669 20.4702 184.42 21.7647 183.556 23.3998L187.977 25.7363ZM189.928 23.627L192.765 27.7439C193.022 27.5668 193.507 27.3197 194.354 27.1117L193.162 22.2559L191.97 17.4C190.239 17.8248 188.568 18.4918 187.09 19.51L189.928 23.627ZM193.162 22.2559L194.385 27.104C195.192 26.9005 196.277 26.7637 197.697 26.7637V21.7637V16.7637C195.672 16.7637 193.734 16.9549 191.939 17.4077L193.162 22.2559ZM197.697 21.7637V26.7637C198.731 26.7637 199.851 26.8396 201.062 27.0011L201.723 22.0449L202.383 17.0888C200.782 16.8752 199.218 16.7637 197.697 16.7637V21.7637ZM201.723 22.0449L201.067 27.0018C202.27 27.1608 203.531 27.4074 204.851 27.7479L206.1 22.9062L207.348 18.0646C205.669 17.6317 204.011 17.3041 202.378 17.0881L201.723 22.0449ZM206.1 22.9062L211.08 22.4616C210.953 21.0464 210.512 19.694 209.757 18.4702L205.502 21.0957L201.247 23.7212C201.215 23.6705 201.183 23.6045 201.158 23.5287C201.133 23.4533 201.123 23.3906 201.119 23.3509L206.1 22.9062ZM205.502 21.0957L209.782 18.5101C209.014 17.239 207.983 16.2337 206.814 15.4694L204.078 19.6543L201.342 23.8391C201.373 23.8594 201.364 23.8579 201.334 23.8273C201.302 23.7954 201.261 23.746 201.222 23.6813L205.502 21.0957ZM204.078 19.6543L206.907 15.5317C205.74 14.7306 204.455 14.2039 203.158 13.8663L201.898 18.7051L200.639 23.5439C201.053 23.6515 201.221 23.7577 201.249 23.7769L204.078 19.6543ZM201.898 18.7051L203.174 13.8706C201.83 13.5158 200.428 13.3711 199.016 13.3711V18.3711V23.3711C199.76 23.3711 200.279 23.449 200.623 23.5396L201.898 18.7051ZM199.016 18.3711V13.3711C198.234 13.3711 197.421 13.4178 196.585 13.5014L197.082 18.4766L197.58 23.4517C198.15 23.3947 198.625 23.3711 199.016 23.3711V18.3711ZM197.082 18.4766L196.585 13.5014C195.729 13.587 194.86 13.7137 193.981 13.8786L194.902 18.793L195.824 23.7073C196.444 23.591 197.029 23.5068 197.58 23.4517L197.082 18.4766ZM194.902 18.793L193.981 13.8786C193.078 14.048 192.183 14.2595 191.296 14.5127L192.67 19.3203L194.044 24.1279C194.634 23.9593 195.227 23.8192 195.824 23.7073L194.902 18.793ZM192.67 19.3203L191.276 14.5186C190.328 14.7939 189.41 15.1316 188.53 15.5388L190.631 20.0762L192.731 24.6135C193.117 24.4348 193.559 24.2686 194.064 24.122L192.67 19.3203ZM190.631 20.0762L195.32 18.3396L193.738 14.0681L189.049 15.8047L184.36 17.5413L185.942 21.8127L190.631 20.0762ZM189.049 15.8047L190.735 20.5118C191.371 20.284 192.07 20.068 192.835 19.8666L191.562 15.0312L190.29 10.1959C189.274 10.4633 188.297 10.7629 187.363 11.0976L189.049 15.8047ZM191.562 15.0312L192.819 19.8707C193.589 19.6709 194.377 19.5001 195.184 19.3587L194.322 14.4336L193.46 9.50844C192.393 9.69526 191.341 9.92287 190.306 10.1918L191.562 15.0312ZM194.322 14.4336L195.244 19.348C196.043 19.1982 196.839 19.0838 197.632 19.0045L197.135 14.0293L196.637 9.05411C195.556 9.16225 194.477 9.31746 193.401 9.51923L194.322 14.4336ZM197.135 14.0293L197.632 19.0045C198.416 18.9261 199.158 18.8887 199.859 18.8887V13.8887V8.88867C198.803 8.88867 197.728 8.945 196.637 9.05411L197.135 14.0293ZM199.859 13.8887V18.8887C202.952 18.8887 204.282 19.6728 204.888 20.3082L208.508 16.8594L212.128 13.4106C208.96 10.085 204.524 8.88867 199.859 8.88867V13.8887ZM208.508 16.8594L204.888 20.3082C205.535 20.9882 206.338 22.5345 206.338 25.9648H211.338H216.338C216.338 21.2155 215.254 16.6915 212.128 13.4106L208.508 16.8594ZM211.338 25.9648H206.338V35H211.338H216.338V25.9648H211.338ZM211.338 35V30H206.135V35V40H211.338V35ZM206.135 35H211.135V33.0488H206.135H201.135V35H206.135ZM206.135 33.0488L203.604 28.7367C203.256 28.9409 202.844 29.1513 202.36 29.3626L204.359 33.9453L206.359 38.528C207.164 38.1769 207.936 37.7895 208.666 37.3609L206.135 33.0488ZM204.359 33.9453L202.329 29.3763C201.941 29.5488 201.478 29.7165 200.931 29.8703L202.285 34.6836L203.639 39.4968C204.592 39.2288 205.513 38.9044 206.39 38.5144L204.359 33.9453ZM202.285 34.6836L200.931 29.8703C200.431 30.011 199.854 30.1311 199.19 30.2208L199.859 35.1758L200.529 40.1307C201.6 39.9861 202.639 39.7781 203.639 39.4968L202.285 34.6836ZM199.859 35.1758L199.114 30.2316C198.531 30.3195 197.873 30.3691 197.135 30.3691V35.3691V40.3691C198.318 40.3691 199.477 40.2898 200.604 40.12L199.859 35.1758ZM197.135 35.3691V30.3691C195.866 30.3691 194.921 30.2297 194.237 30.0342L192.863 34.8418L191.49 39.6494C193.266 40.157 195.169 40.3691 197.135 40.3691V35.3691ZM192.863 34.8418L194.249 30.0377C193.487 29.8179 193.055 29.572 192.823 29.3965L189.805 33.3828L186.786 37.3691C188.195 38.4358 189.802 39.1625 191.477 39.6459L192.863 34.8418ZM189.805 33.3828L192.823 29.3965C192.545 29.1858 192.445 29.0298 192.401 28.942L187.941 31.2031L183.482 33.4643C184.281 35.0405 185.424 36.3376 186.786 37.3691L189.805 33.3828ZM187.941 31.2031L192.438 29.0172C192.376 28.8882 192.326 28.7263 192.326 28.4609H187.326H182.326C182.326 30.1644 182.687 31.8306 183.445 33.3891L187.941 31.2031ZM192.811 28.2852H187.811C187.811 29.5301 188.143 30.6885 188.703 31.6977L193.074 29.2695L197.445 26.8413C197.654 27.2178 197.811 27.7199 197.811 28.2852H192.811ZM193.074 29.2695L188.743 31.7681C189.425 32.9494 190.367 33.7623 191.234 34.314L193.918 30.0957L196.602 25.8774C196.696 25.9369 197.075 26.1991 197.405 26.7709L193.074 29.2695ZM193.918 30.0957L191.326 34.3717C192.257 34.9354 193.245 35.2878 194.16 35.5209L195.395 30.6758L196.63 25.8307C196.5 25.7977 196.429 25.7721 196.405 25.7627C196.381 25.7531 196.423 25.7673 196.509 25.8197L193.918 30.0957ZM195.395 30.6758L194.27 35.5477C195.355 35.7981 196.486 35.8867 197.592 35.8867V30.8867V25.8867C196.987 25.8867 196.653 25.8347 196.519 25.8038L195.395 30.6758ZM197.592 30.8867V35.8867C198.806 35.8867 200.007 35.7776 201.188 35.5511L200.246 30.6406L199.304 25.7301C198.774 25.8318 198.205 25.8867 197.592 25.8867V30.8867ZM200.246 30.6406L201.188 35.5511C202.278 35.342 203.336 35.0576 204.351 34.687L202.637 29.9902L200.922 25.2934C200.461 25.4619 199.925 25.6111 199.304 25.7301L200.246 30.6406ZM202.637 29.9902L204.351 34.687C205.337 34.3271 206.285 33.8922 207.176 33.3683L204.641 29.0586L202.106 24.7489C201.801 24.9281 201.413 25.1143 200.922 25.2934L202.637 29.9902ZM204.641 29.0586L207.176 33.3683C208.014 32.8754 208.831 32.2974 209.562 31.6098L206.135 27.9688L202.708 24.3277C202.642 24.3901 202.463 24.5387 202.106 24.7489L204.641 29.0586ZM206.135 27.9688H211.135V27.0547H206.135H201.135V27.9688H206.135ZM206.135 27.0547L207.48 22.2391C206.558 21.9815 205.636 21.7626 204.714 21.5837L203.762 26.4922L202.809 31.4006C203.458 31.5265 204.118 31.6826 204.789 31.8702L206.135 27.0547ZM203.762 26.4922L204.728 21.5864C203.836 21.4107 202.959 21.2719 202.099 21.1732L201.529 26.1406L200.959 31.108C201.529 31.1735 202.141 31.269 202.795 31.3979L203.762 26.4922ZM201.529 26.1406L202.19 21.1845C201.374 21.0757 200.578 20.998 199.803 20.955L199.525 25.9473L199.248 30.9396C199.739 30.9668 200.278 31.018 200.868 31.0968L201.529 26.1406ZM199.525 25.9473L199.808 20.9553C199.121 20.9164 198.478 20.8945 197.891 20.8945V25.8945V30.8945C198.24 30.8945 198.688 30.9078 199.243 30.9393L199.525 25.9473ZM197.891 25.8945V20.8945C196.729 20.8945 195.565 20.9688 194.484 21.185L195.465 26.0879L196.445 30.9908C196.653 30.9492 197.106 30.8945 197.891 30.8945V25.8945ZM195.465 26.0879L194.484 21.185C193.533 21.3752 192.467 21.6885 191.461 22.2505L193.9 26.6152L196.339 30.98C196.279 31.0138 196.234 31.0346 196.21 31.0452C196.185 31.0558 196.176 31.0582 196.187 31.0545C196.198 31.0508 196.225 31.0424 196.269 31.0309C196.313 31.0195 196.371 31.0057 196.445 30.9908L195.465 26.0879ZM193.9 26.6152L191.561 22.1963C190.596 22.7071 189.464 23.5533 188.694 24.9281L193.057 27.3711L197.419 29.8141C196.977 30.6029 196.408 30.9452 196.24 31.0342L193.9 26.6152ZM193.057 27.3711L188.694 24.9281C188.139 25.9202 187.811 27.0607 187.811 28.2852H192.811H197.811C197.811 28.8768 197.647 29.408 197.419 29.8141L193.057 27.3711ZM218.229 14.2578V9.25781C215.467 9.25781 213.229 11.4964 213.229 14.2578H218.229ZM223.432 14.2578H228.432C228.432 11.4964 226.193 9.25781 223.432 9.25781V14.2578ZM223.432 17.2461H218.432C218.432 19.137 219.498 20.8662 221.188 21.7146C222.878 22.563 224.902 22.3855 226.419 21.2559L223.432 17.2461ZM230.885 13.6074L235.645 12.0791C234.835 9.55512 232.196 8.10218 229.63 8.76744L230.885 13.6074ZM232.414 18.3711L232.909 23.3466C234.412 23.1972 235.767 22.3764 236.595 21.1134C237.423 19.8505 237.636 18.2808 237.175 16.8428L232.414 18.3711ZM227.123 19.7246L229.203 24.2716C229.208 24.2692 229.213 24.2668 229.218 24.2644L227.123 19.7246ZM223.432 22.6602L219.432 19.6602C218.783 20.5256 218.432 21.5783 218.432 22.6602H223.432ZM223.432 35V40C226.193 40 228.432 37.7614 228.432 35H223.432ZM218.229 35H213.229C213.229 37.7614 215.467 40 218.229 40V35ZM218.229 14.2578V19.2578H223.432V14.2578V9.25781H218.229V14.2578ZM223.432 14.2578H218.432V17.2461H223.432H228.432V14.2578H223.432ZM223.432 17.2461L226.419 21.2559C227.318 20.5858 228.263 20.011 229.257 19.5279L227.07 15.0312L224.884 10.5346C223.323 11.2937 221.842 12.1954 220.445 13.2363L223.432 17.2461ZM227.07 15.0312L229.257 19.5279C230.261 19.0395 231.221 18.6855 232.14 18.4474L230.885 13.6074L229.63 8.76744C228.017 9.18563 226.434 9.78081 224.884 10.5346L227.07 15.0312ZM230.885 13.6074L226.124 15.1358L227.653 19.8994L232.414 18.3711L237.175 16.8428L235.645 12.0791L230.885 13.6074ZM232.414 18.3711L231.919 13.3956C229.469 13.6392 227.146 14.207 225.028 15.1848L227.123 19.7246L229.218 24.2644C230.147 23.836 231.351 23.5014 232.909 23.3466L232.414 18.3711ZM227.123 19.7246L225.043 15.1776C222.812 16.198 220.907 17.6924 219.432 19.6602L223.432 22.6602L227.432 25.6602C227.854 25.0967 228.41 24.634 229.203 24.2716L227.123 19.7246ZM223.432 22.6602H218.432V35H223.432H228.432V22.6602H223.432ZM223.432 35V30H218.229V35V40H223.432V35ZM218.229 35H223.229V14.2578H218.229H213.229V35H218.229ZM239.428 18.1602H244.428C244.428 15.3987 242.189 13.1602 239.428 13.1602V18.1602ZM234.418 18.1602H229.418C229.418 20.9216 231.657 23.1602 234.418 23.1602V18.1602ZM234.418 14.2578V9.25781C231.657 9.25781 229.418 11.4964 229.418 14.2578H234.418ZM239.428 14.2578V19.2578C242.189 19.2578 244.428 17.0192 244.428 14.2578H239.428ZM239.428 7.80664V2.80664C236.666 2.80664 234.428 5.04522 234.428 7.80664H239.428ZM244.631 7.80664H249.631C249.631 5.04522 247.392 2.80664 244.631 2.80664V7.80664ZM244.631 14.2578H239.631C239.631 17.0192 241.869 19.2578 244.631 19.2578V14.2578ZM249.641 14.2578H254.641C254.641 11.4964 252.402 9.25781 249.641 9.25781V14.2578ZM249.641 18.1602V23.1602C252.402 23.1602 254.641 20.9216 254.641 18.1602H249.641ZM244.631 18.1602V13.1602C241.869 13.1602 239.631 15.3987 239.631 18.1602H244.631ZM244.631 35V40C247.392 40 249.631 37.7614 249.631 35H244.631ZM239.428 35H234.428C234.428 37.7614 236.666 40 239.428 40V35ZM239.428 18.1602V13.1602H234.418V18.1602V23.1602H239.428V18.1602ZM234.418 18.1602H239.418V14.2578H234.418H229.418V18.1602H234.418ZM234.418 14.2578V19.2578H239.428V14.2578V9.25781H234.418V14.2578ZM239.428 14.2578H244.428V7.80664H239.428H234.428V14.2578H239.428ZM239.428 7.80664V12.8066H244.631V7.80664V2.80664H239.428V7.80664ZM244.631 7.80664H239.631V14.2578H244.631H249.631V7.80664H244.631ZM244.631 14.2578V19.2578H249.641V14.2578V9.25781H244.631V14.2578ZM249.641 14.2578H244.641V18.1602H249.641H254.641V14.2578H249.641ZM249.641 18.1602V13.1602H244.631V18.1602V23.1602H249.641V18.1602ZM244.631 18.1602H239.631V35H244.631H249.631V18.1602H244.631ZM244.631 35V30H239.428V35V40H244.631V35ZM239.428 35H244.428V18.1602H239.428H234.428V35H239.428Z" fill="black" mask="url(#path-1-outside-1_607_198)"/>
</svg>
