<svg width="44" height="44" viewBox="0 0 44 44" fill="none" xmlns="http://www.w3.org/2000/svg">
<circle cx="22" cy="22" r="22" fill="#4EAF85"/>
<path d="M8.44 21.248C8.44 14.816 11.224 10.08 20.568 10.08H22.68C32.024 10.08 34.808 14.816 34.808 21.248C34.808 25.216 33.752 28.512 30.744 30.464L35.032 34.816H29.432L26.68 32.032C25.496 32.256 24.184 32.384 22.68 32.384H20.568C11.224 32.384 8.44 27.68 8.44 21.248ZM30.328 21.248C30.328 16.16 28.12 13.856 22.552 13.856H20.696C15.128 13.856 12.92 16.16 12.92 21.248C12.92 26.336 15.128 28.608 20.696 28.608H23.288L18.68 23.936H24.312L27.768 27.456C29.528 26.304 30.328 24.256 30.328 21.248Z" fill="white"/>
</svg>
