<svg width="314" height="94" viewBox="0 0 314 94" fill="none" xmlns="http://www.w3.org/2000/svg">
<path d="M87.256 8.96V11.984H81.012V13.132L87.816 16.66L86.22 19.516L78.884 15.82L71.352 19.908L69.476 17.052L76.616 13.16V11.984H70.316V8.96H76.532V6.44H81.096V8.96H87.256ZM93.108 18.788L89.188 19.824V7.56H93.108V11.2H96.86V14.728H93.108V18.788ZM71.66 29.568V20.776H93.024V29.568H71.66ZM89.104 26.628V23.716H75.58V26.628H89.104ZM122.788 28.336L118.924 29.652V23.408H115.592V19.572H118.924V14.728H115.592V10.892H118.924V7.56H122.788V28.336ZM115.004 16.632V18.676C115.004 23.912 112.148 26.964 106.828 26.964H106.296C100.948 26.964 98.092 23.716 98.092 18.396V16.632C98.092 11.396 100.92 8.064 106.268 8.064H106.856C112.176 8.064 115.004 11.396 115.004 16.632ZM111.14 18.172V16.856C111.14 12.712 109.208 11.2 106.744 11.2H106.352C103.972 11.2 101.956 12.628 101.956 16.856V18.172C101.956 22.316 103.888 23.772 106.352 23.772H106.744C109.292 23.772 111.14 22.316 111.14 18.172ZM134.024 14V13.748C134.024 9.66 137.132 7.112 142.312 7.112H143.04C148.136 7.112 151.3 9.772 151.3 13.748V14C151.3 18.256 148.052 20.636 143.04 20.636H142.312C137.3 20.636 134.024 18.256 134.024 14ZM158.356 22.512L154.436 23.548V7.56H158.356V22.512ZM137.944 13.72V14.028C137.944 16.24 139.708 17.584 142.368 17.584H142.984C145.476 17.584 147.38 16.24 147.38 14.028V13.72C147.38 11.508 145.812 10.164 142.984 10.164H142.368C139.708 10.164 137.944 11.508 137.944 13.72ZM136.908 29.372V22.092H141.108V26.404H158.832V29.344L136.908 29.372ZM184.956 7.616V10.64H177.088V11.088L185.824 13.16L185.096 16.24L174.988 13.86L164.936 16.492L164.012 13.328L172.832 11.088V10.64H164.796V7.616H184.956ZM162.36 20.132V17.192H187.28V20.132H162.36ZM164.04 25.648C164.04 23.072 165.356 21.224 174.064 21.224H175.8C184.424 21.224 185.796 23.156 185.796 25.648C185.796 28.224 184.34 30.072 175.8 30.072H174.064C165.524 30.072 164.04 28.224 164.04 25.648ZM168.1 25.648C168.1 26.516 169.36 26.936 174.372 26.936H175.492C180.252 26.936 181.736 26.544 181.736 25.648C181.736 24.78 180.672 24.36 175.492 24.36H174.372C169.444 24.36 168.1 24.78 168.1 25.648ZM207.132 10.304V13.496H189.548V10.304H196.184V6.72H200.72V10.304H207.132ZM216.708 15.736V19.264H212.956V28.336L209.092 29.652V7.56H212.956V15.736H216.708ZM206.124 20.804C206.124 24.584 203.492 27.244 198.424 27.244H198.284C193.188 27.244 190.556 24.612 190.556 20.804C190.556 17.164 193.188 14.364 198.284 14.364H198.424C203.492 14.364 206.124 17.08 206.124 20.804ZM202.26 20.804C202.26 18.592 200.888 17.388 198.34 17.388C195.876 17.388 194.42 18.592 194.42 20.804C194.42 23.016 195.792 24.164 198.34 24.164C200.972 24.164 202.26 23.016 202.26 20.804ZM239.472 22.232H235.748L236.952 11.284H220.572V8.344H241.04L239.472 22.232ZM218.416 28.196V25.228H226.76V15.792H230.68V25.228H243.28V28.196H218.416Z" fill="black"/>
<rect x="2.4585" y="34" width="311" height="44" rx="22" transform="rotate(2.95265 2.4585 34)" fill="#FFF2AF"/>
<rect y="41.395" width="311" height="44" rx="22" fill="#FFEC8E"/>
<path d="M57.86 57.659V61.187H54.108V65.863L50.188 66.899V65.191L38.848 66.451H31.904V58.219H42.74V56.119H31.904V53.235H46.66V61.019H35.88V63.427H39.604L50.188 62.279V52.955H54.108V57.659H57.86ZM54.192 75.131H50.272V70.791H31.932V67.851H54.192V75.131ZM66.12 65.975H65.784C61.78 65.975 58.784 63.539 58.784 59.395V59.031C58.784 54.971 61.78 52.451 65.784 52.451H66.148C70.124 52.451 73.12 54.971 73.12 59.031V59.395C73.12 63.539 70.124 65.975 66.12 65.975ZM84.572 67.599L80.792 68.691V61.467H78.104V67.655L74.324 68.691V52.955H78.104V58.163H80.792V52.955H84.572V67.599ZM65.84 62.783H66.064C67.94 62.783 69.256 61.523 69.256 59.311V59.115C69.256 56.903 67.94 55.587 66.064 55.587H65.84C63.964 55.587 62.648 56.819 62.648 59.115V59.311C62.648 61.523 63.964 62.783 65.84 62.783ZM63.236 74.739V67.655H67.436V71.799H85.16V74.739H63.236ZM113.86 57.659V61.187H110.108V65.863L106.188 66.899V65.191L94.848 66.451H87.904V58.219H98.74V56.119H87.904V53.235H102.66V61.019H91.88V63.427H95.604L106.188 62.279V52.955H110.108V57.659H113.86ZM110.192 75.131H106.272V70.791H87.932V67.851H110.192V75.131ZM123.416 73.675V70.707H133.776V66.199H125.488V53.711H146.208V56.651H129.408V63.259H146.292V66.199H137.976V70.707H148.28V73.675H123.416ZM175.356 73.731L171.492 75.047V52.955H175.356V73.731ZM160.152 63.819L153.516 71.883L150.52 69.587L157.968 60.459V53.599H162.224V60.319L169.728 69.307L166.956 71.659L160.152 63.819ZM205.708 57.659V61.187H201.956V65.863L198.036 66.899V65.191L186.696 66.451H179.752V58.219H190.588V56.119H179.752V53.235H194.508V61.019H183.728V63.427H187.452L198.036 62.279V52.955H201.956V57.659H205.708ZM202.04 75.131H198.12V70.791H179.78V67.851H202.04V75.131ZM241.555 57.043V60.571H237.803V64.267L233.883 65.303V52.955H237.803V57.043H241.555ZM230.971 64.463H215.291V53.207H219.155V56.315H227.107V53.207H230.971V64.463ZM219.155 61.523H227.107V59.059H219.155V61.523ZM216.495 74.963V66.339H237.859V69.279H220.415V72.023H237.943V74.963H216.495ZM269.555 61.131V64.659H265.803V73.731L261.939 75.047V52.955H265.803V61.131H269.555ZM259.475 54.075V57.099H253.287V62.167L260.231 69.503L257.767 71.883L251.243 65.191L244.775 72.359L242.031 70.007L249.087 62.279V57.099H242.871V54.075H259.475ZM272.551 52.619H277.507L276.667 66.983H273.391L272.551 52.619ZM272.831 74.599V70.399H277.227V74.599H272.831Z" fill="black"/>
</svg>
