<svg width="146" height="46" viewBox="0 0 146 46" fill="none" xmlns="http://www.w3.org/2000/svg">
<rect x="3.26758" width="143" height="30" rx="8" transform="rotate(6.25274 3.26758 0)" fill="#BDE1F6"/>
<rect x="1.34668" y="8" width="143" height="30" rx="8" fill="#93CFF2"/>
<path d="M17.4947 22.92C17.4947 24.828 17.9267 25.74 20.1707 25.74C21.2267 25.74 22.2587 25.644 23.2187 25.476V23.724H20.3387L19.8707 22.296H24.8747V26.568C23.4827 26.892 21.8387 27.108 20.0267 27.12C16.5707 27.144 15.8267 25.332 15.8267 22.92C15.8267 20.508 16.5827 18.768 20.0867 18.768C21.7427 18.768 23.5667 19.008 24.8147 19.272L24.3707 20.604C23.2667 20.352 21.5147 20.136 20.1707 20.136C18.0827 20.136 17.4947 21.012 17.4947 22.92ZM31.0949 27.06H30.5069C28.0829 27.06 26.2109 25.86 26.2109 23.82V23.544C26.2109 21.504 28.0829 20.304 30.5069 20.304H31.0949C33.5189 20.304 35.3789 21.504 35.3789 23.544V23.82C35.3789 25.86 33.5189 27.06 31.0949 27.06ZM30.4709 25.692H31.1309C32.5349 25.692 33.7229 24.96 33.7229 23.82V23.544C33.7229 22.404 32.5349 21.672 31.1309 21.672H30.4709C29.0549 21.672 27.8669 22.404 27.8669 23.544V23.82C27.8669 24.96 29.0549 25.692 30.4709 25.692ZM41.3605 27.06H40.7725C38.3485 27.06 36.4765 25.86 36.4765 23.82V23.544C36.4765 21.504 38.3485 20.304 40.7725 20.304H41.3605C43.7845 20.304 45.6445 21.504 45.6445 23.544V23.82C45.6445 25.86 43.7845 27.06 41.3605 27.06ZM40.7365 25.692H41.3965C42.8005 25.692 43.9885 24.96 43.9885 23.82V23.544C43.9885 22.404 42.8005 21.672 41.3965 21.672H40.7365C39.3205 21.672 38.1325 22.404 38.1325 23.544V23.82C38.1325 24.96 39.3205 25.692 40.7365 25.692ZM55.5861 27H53.9541V26.04C53.1261 26.688 52.1421 27.06 51.0381 27.06H50.7381C48.3141 27.06 46.7421 25.956 46.7421 23.916V23.484C46.7421 21.444 48.3141 20.34 50.7381 20.34H51.0381C52.3821 20.34 53.3781 20.784 53.9541 21.468V18.204H55.5861V27ZM48.3861 23.496V23.904C48.3861 25.044 49.2861 25.704 50.7021 25.704H51.0381C52.3461 25.704 53.0541 25.392 53.9541 24.504V23.076C53.3181 22.26 52.2621 21.696 51.0381 21.696H50.7021C49.2861 21.696 48.3861 22.356 48.3861 23.496ZM62.1418 20.4H63.9298L65.8618 25.224L67.7578 20.4H69.4378L66.5458 27.06H65.2018L63.0298 22.116L60.9298 27.06H59.5858L56.6098 20.4H58.3138L60.2458 25.224L62.1418 20.4ZM70.5187 19.656V17.856H72.3787V19.656H70.5187ZM70.6747 22.08H69.7987V20.772H72.3187V27H70.6747V22.08ZM74.4599 19.524H73.5839V18.216H76.1039V27H74.4599V19.524ZM78.2451 19.524H77.3691V18.216H79.8891V27H78.2451V19.524ZM89.8935 23.628L88.7055 23.508C85.9095 23.256 84.9495 22.536 84.9495 21.036C84.9495 19.548 85.8735 18.648 89.1495 18.648C90.8055 18.648 92.4495 18.888 93.6975 19.152L93.2655 20.508C92.1615 20.256 90.5775 20.04 89.0415 20.04C87.1575 20.04 86.6175 20.34 86.6175 21.036C86.6175 21.672 87.0375 21.9 88.9695 22.092L90.0735 22.188C92.9775 22.476 93.9375 23.196 93.9375 24.684C93.9375 26.184 93.0615 27.132 89.5575 27.132C87.9015 27.132 86.0775 26.892 84.8295 26.64L85.2615 25.272C86.3655 25.536 88.1175 25.74 89.6655 25.74C91.5975 25.74 92.2575 25.416 92.2575 24.744C92.2575 24.084 91.7775 23.82 89.8935 23.628ZM96.5457 25.104V22.128H94.9137V20.76H96.5457V18.828H98.1897V20.76H101.37V22.128H98.1897V24.9C98.1897 25.488 98.4417 25.716 99.2457 25.716C100.098 25.716 100.818 25.584 101.682 25.344L101.322 26.748C100.458 26.94 99.8217 27.036 98.7537 27.036C97.2657 27.036 96.5457 26.4 96.5457 25.104ZM107.243 27.06H106.655C104.231 27.06 102.359 25.86 102.359 23.82V23.544C102.359 21.504 104.231 20.304 106.655 20.304H107.243C109.667 20.304 111.527 21.504 111.527 23.544V23.82C111.527 25.86 109.667 27.06 107.243 27.06ZM106.619 25.692H107.279C108.683 25.692 109.871 24.96 109.871 23.82V23.544C109.871 22.404 108.683 21.672 107.279 21.672H106.619C105.203 21.672 104.015 22.404 104.015 23.544V23.82C104.015 24.96 105.203 25.692 106.619 25.692ZM114.677 23.304V27H113.045V20.4H114.677V21.588C115.325 20.784 116.129 20.34 117.473 20.34H117.653C118.481 20.34 119.237 20.436 120.077 20.712L119.657 21.996C118.961 21.756 118.349 21.696 117.653 21.708H117.473C116.249 21.708 115.289 22.332 114.677 23.304ZM122.693 23.136H127.685C127.685 21.996 127.217 21.696 125.657 21.696H124.565C123.053 21.696 122.261 22.344 122.261 23.484V24.036C122.261 25.176 123.053 25.836 124.565 25.836H125.321C126.665 25.836 127.865 25.668 128.921 25.344L129.353 26.688C128.249 27 126.869 27.18 125.321 27.18H124.601C122.177 27.18 120.605 26.076 120.605 24.036V23.484C120.605 21.444 122.177 20.34 124.601 20.34H125.573C127.997 20.34 129.329 21.132 129.329 23.172V24.48H123.161L122.693 23.136Z" fill="white"/>
</svg>
