<svg width="48" height="48" viewBox="0 0 48 48" fill="none" xmlns="http://www.w3.org/2000/svg">
<path d="M16.24 29.4199L24 21.6599L31.76 29.4199C31.9451 29.605 32.1649 29.7519 32.4069 29.8521C32.6488 29.9523 32.9081 30.0039 33.1699 30.0039C33.4318 30.0039 33.6911 29.9523 33.933 29.8521C34.175 29.7519 34.3948 29.605 34.58 29.4199C34.7651 29.2347 34.912 29.0149 35.0122 28.773C35.1124 28.531 35.164 28.2717 35.164 28.0099C35.164 27.748 35.1124 27.4887 35.0122 27.2468C34.912 27.0049 34.7651 26.785 34.58 26.5999L25.4 17.4199C25.2149 17.2345 24.9951 17.0874 24.7532 16.987C24.5113 16.8866 24.2519 16.835 23.99 16.835C23.728 16.835 23.4686 16.8866 23.2267 16.987C22.9848 17.0874 22.765 17.2345 22.58 17.4199L13.4 26.5999C13.2145 26.7849 13.0674 27.0047 12.9671 27.2466C12.8667 27.4886 12.8151 27.7479 12.8151 28.0099C12.8151 28.2718 12.8667 28.5312 12.9671 28.7731C13.0674 29.0151 13.2145 29.2348 13.4 29.4199C14.18 30.1799 15.46 30.1999 16.24 29.4199Z" fill="#306D5D"/>
</svg>
