<svg width="494" height="123" viewBox="0 0 494 123" fill="none" xmlns="http://www.w3.org/2000/svg">
<rect x="10" y="10" width="484" height="113" rx="18" fill="black"/>
<rect x="1.5" y="1.5" width="481" height="110" rx="16.5" fill="#81C2E8"/>
<rect x="1.5" y="1.5" width="481" height="110" rx="16.5" stroke="black" stroke-width="3"/>
<mask id="path-3-outside-1_31_987" maskUnits="userSpaceOnUse" x="115" y="35" width="255" height="41" fill="black">
<rect fill="white" x="115" y="35" width="255" height="41"/>
<path d="M120.902 42.5254H126.475V65.1133H142.453V70H120.902V42.5254ZM146.232 59.5586C146.232 58.1523 146.52 56.8105 147.094 55.5332C147.668 54.2441 148.494 53.1074 149.572 52.123C150.65 51.1387 151.969 50.3535 153.527 49.7676C155.098 49.1816 156.879 48.8887 158.871 48.8887C160.852 48.8887 162.633 49.1875 164.215 49.7852C165.809 50.3711 167.156 51.1797 168.258 52.2109C169.371 53.2422 170.221 54.4551 170.807 55.8496C171.404 57.2441 171.703 58.7383 171.703 60.332C171.703 60.5312 171.697 60.748 171.686 60.9824C171.686 61.2051 171.674 61.4102 171.65 61.5977H152.033C152.256 62.2188 152.613 62.7871 153.105 63.3027C153.609 63.8184 154.236 64.2637 154.986 64.6387C155.736 65.0137 156.604 65.3066 157.588 65.5176C158.572 65.7168 159.662 65.8164 160.857 65.8164C162.053 65.8164 163.242 65.6934 164.426 65.4473C165.609 65.1895 166.74 64.8672 167.818 64.4805L169.576 68.4531C168.896 68.7695 168.205 69.0508 167.502 69.2969C166.811 69.5312 166.084 69.7305 165.322 69.8945C164.572 70.0469 163.781 70.1641 162.949 70.2461C162.129 70.3281 161.262 70.3691 160.348 70.3691C158.016 70.3691 155.971 70.0879 154.213 69.5254C152.455 68.9629 150.984 68.1953 149.801 67.2227C148.617 66.25 147.727 65.1074 147.129 63.7949C146.531 62.4824 146.232 61.0703 146.232 59.5586ZM166.184 57.5371C165.996 56.9629 165.703 56.4297 165.305 55.9375C164.918 55.4336 164.432 55 163.846 54.6367C163.26 54.2617 162.58 53.9688 161.807 53.7578C161.033 53.5469 160.184 53.4414 159.258 53.4414C158.273 53.4414 157.377 53.5527 156.568 53.7754C155.76 53.998 155.051 54.2969 154.441 54.6719C153.832 55.0469 153.322 55.4805 152.912 55.9727C152.514 56.4648 152.221 56.9863 152.033 57.5371H166.184ZM180.439 53.1602H175.43V49.2578H180.439V42.8066H185.643V49.2578H190.652V53.1602H185.643V70H180.439V53.1602ZM199.494 40.8379C200.115 40.8379 200.684 40.9375 201.199 41.1367C201.727 41.3359 202.178 41.6289 202.553 42.0156C202.928 42.3906 203.221 42.8477 203.432 43.3867C203.643 43.9258 203.748 44.5352 203.748 45.2148C203.748 46.75 203.221 48.2207 202.166 49.627C201.123 51.0215 199.6 52.2637 197.596 53.3535L195.662 50.5938C196.189 50.3125 196.652 50.0371 197.051 49.7676C197.461 49.498 197.812 49.2227 198.105 48.9414C198.41 48.6602 198.668 48.373 198.879 48.0801C199.102 47.7754 199.301 47.4531 199.477 47.1133C198.902 47.1133 198.381 47.0312 197.912 46.8672C197.455 46.7031 197.057 46.4805 196.717 46.1992C196.389 45.9062 196.131 45.5723 195.943 45.1973C195.768 44.8105 195.68 44.4004 195.68 43.9668C195.68 43.5332 195.768 43.1289 195.943 42.7539C196.131 42.3672 196.389 42.0332 196.717 41.752C197.057 41.4707 197.461 41.248 197.93 41.084C198.398 40.9199 198.92 40.8379 199.494 40.8379ZM211.184 63.6367C212.59 64.4805 214.137 65.1016 215.824 65.5C217.512 65.8984 219.24 66.0977 221.01 66.0977C222.205 66.0977 223.201 66.0156 223.998 65.8516C224.795 65.6875 225.434 65.4766 225.914 65.2188C226.395 64.9609 226.734 64.668 226.934 64.3398C227.133 64.0117 227.232 63.6777 227.232 63.3379C227.232 62.8457 227.016 62.4238 226.582 62.0723C226.16 61.7207 225.457 61.5449 224.473 61.5449C224.016 61.5449 223.523 61.5742 222.996 61.6328C222.469 61.6914 221.912 61.7559 221.326 61.8262C220.752 61.8848 220.148 61.9434 219.516 62.002C218.895 62.0605 218.262 62.0898 217.617 62.0898C216.211 62.0898 215.01 61.9375 214.014 61.6328C213.029 61.3281 212.227 60.9121 211.605 60.3848C210.984 59.8574 210.533 59.2363 210.252 58.5215C209.971 57.7949 209.83 57.0156 209.83 56.1836C209.83 55.1289 210.076 54.1562 210.568 53.2656C211.061 52.375 211.764 51.6074 212.678 50.9629C213.592 50.3066 214.693 49.7969 215.982 49.4336C217.283 49.0703 218.73 48.8887 220.324 48.8887C221.156 48.8887 222.023 48.9414 222.926 49.0469C223.84 49.1406 224.736 49.2695 225.615 49.4336C226.494 49.5977 227.338 49.791 228.146 50.0137C228.955 50.2246 229.67 50.4531 230.291 50.6992L228.656 54.7422C227.332 54.25 226.008 53.8633 224.684 53.582C223.371 53.2891 222.018 53.1426 220.623 53.1426C219.65 53.1426 218.824 53.2188 218.145 53.3711C217.477 53.5117 216.932 53.7051 216.51 53.9512C216.088 54.1855 215.777 54.4609 215.578 54.7773C215.391 55.082 215.297 55.4043 215.297 55.7441C215.297 55.9902 215.344 56.2129 215.438 56.4121C215.543 56.6113 215.707 56.7871 215.93 56.9395C216.164 57.0801 216.463 57.1914 216.826 57.2734C217.201 57.3438 217.658 57.3789 218.197 57.3789C218.689 57.3789 219.211 57.3496 219.762 57.291C220.312 57.2324 220.887 57.1738 221.484 57.1152C222.082 57.0449 222.697 56.9805 223.33 56.9219C223.975 56.8633 224.631 56.834 225.299 56.834C226.541 56.834 227.625 56.9805 228.551 57.2734C229.488 57.5664 230.262 57.9766 230.871 58.5039C231.48 59.0312 231.938 59.6523 232.242 60.3672C232.547 61.082 232.699 61.8613 232.699 62.7051C232.699 63.7949 232.447 64.8086 231.943 65.7461C231.439 66.6836 230.689 67.498 229.693 68.1895C228.697 68.8691 227.455 69.4023 225.967 69.7891C224.49 70.1758 222.779 70.3691 220.834 70.3691C219.639 70.3691 218.484 70.293 217.371 70.1406C216.258 70 215.197 69.8066 214.189 69.5605C213.182 69.3027 212.232 69.0039 211.342 68.6641C210.463 68.3242 209.66 67.9609 208.934 67.5742L211.184 63.6367ZM251.279 61.8262C252.275 62.3887 253.283 62.8984 254.303 63.3555C255.334 63.8008 256.4 64.1816 257.502 64.498C258.604 64.8027 259.758 65.0371 260.965 65.2012C262.184 65.3652 263.479 65.4473 264.85 65.4473C266.502 65.4473 267.908 65.3418 269.068 65.1309C270.229 64.9082 271.172 64.6094 271.898 64.2344C272.637 63.8477 273.17 63.3906 273.498 62.8633C273.838 62.3359 274.008 61.7617 274.008 61.1406C274.008 60.1445 273.592 59.3594 272.76 58.7852C271.928 58.1992 270.645 57.9062 268.91 57.9062C268.148 57.9062 267.346 57.959 266.502 58.0645C265.658 58.1582 264.803 58.2637 263.936 58.3809C263.08 58.498 262.23 58.6094 261.387 58.7148C260.555 58.8086 259.77 58.8555 259.031 58.8555C257.801 58.8555 256.617 58.6973 255.48 58.3809C254.355 58.0645 253.354 57.5898 252.475 56.957C251.607 56.3242 250.916 55.5332 250.4 54.584C249.885 53.6348 249.627 52.5273 249.627 51.2617C249.627 50.5117 249.727 49.7676 249.926 49.0293C250.137 48.291 250.465 47.5879 250.91 46.9199C251.367 46.2402 251.953 45.6133 252.668 45.0391C253.383 44.4531 254.244 43.9492 255.252 43.5273C256.271 43.1055 257.443 42.7773 258.768 42.543C260.104 42.2969 261.621 42.1738 263.32 42.1738C264.551 42.1738 265.787 42.2441 267.029 42.3848C268.271 42.5137 269.479 42.7012 270.65 42.9473C271.834 43.1934 272.971 43.4922 274.061 43.8438C275.15 44.1836 276.164 44.5645 277.102 44.9863L274.658 49.4863C273.885 49.1465 273.053 48.8359 272.162 48.5547C271.271 48.2617 270.34 48.0098 269.367 47.7988C268.395 47.5879 267.387 47.4238 266.344 47.3066C265.312 47.1777 264.258 47.1133 263.18 47.1133C261.645 47.1133 260.379 47.2246 259.383 47.4473C258.398 47.6699 257.613 47.957 257.027 48.3086C256.441 48.6484 256.031 49.0352 255.797 49.4688C255.574 49.8906 255.463 50.3125 255.463 50.7344C255.463 51.5547 255.832 52.2285 256.57 52.7559C257.309 53.2715 258.434 53.5293 259.945 53.5293C260.555 53.5293 261.252 53.4883 262.037 53.4062C262.834 53.3125 263.666 53.2129 264.533 53.1074C265.412 53.002 266.303 52.9082 267.205 52.8262C268.119 52.7324 269.004 52.6855 269.859 52.6855C271.477 52.6855 272.906 52.8672 274.148 53.2305C275.402 53.5938 276.451 54.1152 277.295 54.7949C278.139 55.4629 278.777 56.2773 279.211 57.2383C279.645 58.1875 279.861 59.2539 279.861 60.4375C279.861 62.0195 279.492 63.4316 278.754 64.6738C278.027 65.9043 276.984 66.9473 275.625 67.8027C274.277 68.6465 272.648 69.291 270.738 69.7363C268.828 70.1699 266.701 70.3867 264.357 70.3867C262.811 70.3867 261.299 70.2871 259.822 70.0879C258.346 69.9004 256.928 69.6309 255.568 69.2793C254.221 68.916 252.932 68.4883 251.701 67.9961C250.482 67.4922 249.352 66.9414 248.309 66.3438L251.279 61.8262ZM288.475 53.1602H283.465V49.2578H288.475V42.8066H293.678V49.2578H298.688V53.1602H293.678V70H288.475V53.1602ZM302.326 63.4609C302.326 62.4648 302.543 61.5566 302.977 60.7363C303.41 59.916 304.061 59.2129 304.928 58.627C305.795 58.0293 306.873 57.5723 308.162 57.2559C309.463 56.9277 310.975 56.7637 312.697 56.7637C313.975 56.7637 315.316 56.8574 316.723 57.0449C318.141 57.2324 319.6 57.5195 321.1 57.9062C321.041 57.25 320.842 56.6465 320.502 56.0957C320.162 55.5332 319.688 55.0527 319.078 54.6543C318.48 54.2441 317.754 53.9277 316.898 53.7051C316.055 53.4824 315.094 53.3711 314.016 53.3711C313.43 53.3711 312.785 53.4062 312.082 53.4766C311.379 53.5469 310.652 53.6523 309.902 53.793C309.152 53.9336 308.408 54.1094 307.67 54.3203C306.943 54.5312 306.264 54.7832 305.631 55.0762L304.049 50.8047C304.834 50.5234 305.672 50.2656 306.562 50.0312C307.465 49.7969 308.385 49.5977 309.322 49.4336C310.26 49.2578 311.197 49.123 312.135 49.0293C313.072 48.9355 313.98 48.8887 314.859 48.8887C318.738 48.8887 321.621 49.8789 323.508 51.8594C325.395 53.8398 326.338 56.875 326.338 60.9648V70H321.135V68.0488C320.596 68.3652 320.004 68.6641 319.359 68.9453C318.727 69.2266 318.035 69.4727 317.285 69.6836C316.535 69.8945 315.727 70.0586 314.859 70.1758C314.004 70.3047 313.096 70.3691 312.135 70.3691C310.518 70.3691 309.094 70.1934 307.863 69.8418C306.645 69.4902 305.625 69.0039 304.805 68.3828C303.984 67.7617 303.363 67.0352 302.941 66.2031C302.531 65.3594 302.326 64.4453 302.326 63.4609ZM307.811 63.2852C307.811 63.625 307.898 63.9531 308.074 64.2695C308.25 64.5742 308.531 64.8496 308.918 65.0957C309.305 65.3301 309.797 65.5234 310.395 65.6758C311.004 65.8164 311.736 65.8867 312.592 65.8867C313.506 65.8867 314.391 65.8047 315.246 65.6406C316.102 65.4766 316.898 65.2598 317.637 64.9902C318.375 64.7207 319.043 64.4102 319.641 64.0586C320.238 63.707 320.736 63.3438 321.135 62.9688V62.0547C320.338 61.832 319.547 61.6445 318.762 61.4922C317.988 61.3398 317.244 61.2227 316.529 61.1406C315.826 61.0469 315.158 60.9824 314.525 60.9473C313.904 60.9121 313.359 60.8945 312.891 60.8945C311.918 60.8945 311.109 60.959 310.465 61.0879C309.82 61.2168 309.299 61.3926 308.9 61.6152C308.502 61.8262 308.221 62.0781 308.057 62.3711C307.893 62.6641 307.811 62.9688 307.811 63.2852ZM333.229 49.2578H338.432V52.2461C339.58 51.3906 340.793 50.6523 342.07 50.0312C343.348 49.4102 344.619 48.9355 345.885 48.6074L347.414 53.3711C345.41 53.5703 343.646 54.0215 342.123 54.7246C340.611 55.416 339.381 56.3945 338.432 57.6602V70H333.229V49.2578ZM354.428 53.1602H349.418V49.2578H354.428V42.8066H359.631V49.2578H364.641V53.1602H359.631V70H354.428V53.1602Z"/>
</mask>
<path d="M120.902 42.5254H126.475V65.1133H142.453V70H120.902V42.5254ZM146.232 59.5586C146.232 58.1523 146.52 56.8105 147.094 55.5332C147.668 54.2441 148.494 53.1074 149.572 52.123C150.65 51.1387 151.969 50.3535 153.527 49.7676C155.098 49.1816 156.879 48.8887 158.871 48.8887C160.852 48.8887 162.633 49.1875 164.215 49.7852C165.809 50.3711 167.156 51.1797 168.258 52.2109C169.371 53.2422 170.221 54.4551 170.807 55.8496C171.404 57.2441 171.703 58.7383 171.703 60.332C171.703 60.5312 171.697 60.748 171.686 60.9824C171.686 61.2051 171.674 61.4102 171.65 61.5977H152.033C152.256 62.2188 152.613 62.7871 153.105 63.3027C153.609 63.8184 154.236 64.2637 154.986 64.6387C155.736 65.0137 156.604 65.3066 157.588 65.5176C158.572 65.7168 159.662 65.8164 160.857 65.8164C162.053 65.8164 163.242 65.6934 164.426 65.4473C165.609 65.1895 166.74 64.8672 167.818 64.4805L169.576 68.4531C168.896 68.7695 168.205 69.0508 167.502 69.2969C166.811 69.5312 166.084 69.7305 165.322 69.8945C164.572 70.0469 163.781 70.1641 162.949 70.2461C162.129 70.3281 161.262 70.3691 160.348 70.3691C158.016 70.3691 155.971 70.0879 154.213 69.5254C152.455 68.9629 150.984 68.1953 149.801 67.2227C148.617 66.25 147.727 65.1074 147.129 63.7949C146.531 62.4824 146.232 61.0703 146.232 59.5586ZM166.184 57.5371C165.996 56.9629 165.703 56.4297 165.305 55.9375C164.918 55.4336 164.432 55 163.846 54.6367C163.26 54.2617 162.58 53.9688 161.807 53.7578C161.033 53.5469 160.184 53.4414 159.258 53.4414C158.273 53.4414 157.377 53.5527 156.568 53.7754C155.76 53.998 155.051 54.2969 154.441 54.6719C153.832 55.0469 153.322 55.4805 152.912 55.9727C152.514 56.4648 152.221 56.9863 152.033 57.5371H166.184ZM180.439 53.1602H175.43V49.2578H180.439V42.8066H185.643V49.2578H190.652V53.1602H185.643V70H180.439V53.1602ZM199.494 40.8379C200.115 40.8379 200.684 40.9375 201.199 41.1367C201.727 41.3359 202.178 41.6289 202.553 42.0156C202.928 42.3906 203.221 42.8477 203.432 43.3867C203.643 43.9258 203.748 44.5352 203.748 45.2148C203.748 46.75 203.221 48.2207 202.166 49.627C201.123 51.0215 199.6 52.2637 197.596 53.3535L195.662 50.5938C196.189 50.3125 196.652 50.0371 197.051 49.7676C197.461 49.498 197.812 49.2227 198.105 48.9414C198.41 48.6602 198.668 48.373 198.879 48.0801C199.102 47.7754 199.301 47.4531 199.477 47.1133C198.902 47.1133 198.381 47.0312 197.912 46.8672C197.455 46.7031 197.057 46.4805 196.717 46.1992C196.389 45.9062 196.131 45.5723 195.943 45.1973C195.768 44.8105 195.68 44.4004 195.68 43.9668C195.68 43.5332 195.768 43.1289 195.943 42.7539C196.131 42.3672 196.389 42.0332 196.717 41.752C197.057 41.4707 197.461 41.248 197.93 41.084C198.398 40.9199 198.92 40.8379 199.494 40.8379ZM211.184 63.6367C212.59 64.4805 214.137 65.1016 215.824 65.5C217.512 65.8984 219.24 66.0977 221.01 66.0977C222.205 66.0977 223.201 66.0156 223.998 65.8516C224.795 65.6875 225.434 65.4766 225.914 65.2188C226.395 64.9609 226.734 64.668 226.934 64.3398C227.133 64.0117 227.232 63.6777 227.232 63.3379C227.232 62.8457 227.016 62.4238 226.582 62.0723C226.16 61.7207 225.457 61.5449 224.473 61.5449C224.016 61.5449 223.523 61.5742 222.996 61.6328C222.469 61.6914 221.912 61.7559 221.326 61.8262C220.752 61.8848 220.148 61.9434 219.516 62.002C218.895 62.0605 218.262 62.0898 217.617 62.0898C216.211 62.0898 215.01 61.9375 214.014 61.6328C213.029 61.3281 212.227 60.9121 211.605 60.3848C210.984 59.8574 210.533 59.2363 210.252 58.5215C209.971 57.7949 209.83 57.0156 209.83 56.1836C209.83 55.1289 210.076 54.1562 210.568 53.2656C211.061 52.375 211.764 51.6074 212.678 50.9629C213.592 50.3066 214.693 49.7969 215.982 49.4336C217.283 49.0703 218.73 48.8887 220.324 48.8887C221.156 48.8887 222.023 48.9414 222.926 49.0469C223.84 49.1406 224.736 49.2695 225.615 49.4336C226.494 49.5977 227.338 49.791 228.146 50.0137C228.955 50.2246 229.67 50.4531 230.291 50.6992L228.656 54.7422C227.332 54.25 226.008 53.8633 224.684 53.582C223.371 53.2891 222.018 53.1426 220.623 53.1426C219.65 53.1426 218.824 53.2188 218.145 53.3711C217.477 53.5117 216.932 53.7051 216.51 53.9512C216.088 54.1855 215.777 54.4609 215.578 54.7773C215.391 55.082 215.297 55.4043 215.297 55.7441C215.297 55.9902 215.344 56.2129 215.438 56.4121C215.543 56.6113 215.707 56.7871 215.93 56.9395C216.164 57.0801 216.463 57.1914 216.826 57.2734C217.201 57.3438 217.658 57.3789 218.197 57.3789C218.689 57.3789 219.211 57.3496 219.762 57.291C220.312 57.2324 220.887 57.1738 221.484 57.1152C222.082 57.0449 222.697 56.9805 223.33 56.9219C223.975 56.8633 224.631 56.834 225.299 56.834C226.541 56.834 227.625 56.9805 228.551 57.2734C229.488 57.5664 230.262 57.9766 230.871 58.5039C231.48 59.0312 231.938 59.6523 232.242 60.3672C232.547 61.082 232.699 61.8613 232.699 62.7051C232.699 63.7949 232.447 64.8086 231.943 65.7461C231.439 66.6836 230.689 67.498 229.693 68.1895C228.697 68.8691 227.455 69.4023 225.967 69.7891C224.49 70.1758 222.779 70.3691 220.834 70.3691C219.639 70.3691 218.484 70.293 217.371 70.1406C216.258 70 215.197 69.8066 214.189 69.5605C213.182 69.3027 212.232 69.0039 211.342 68.6641C210.463 68.3242 209.66 67.9609 208.934 67.5742L211.184 63.6367ZM251.279 61.8262C252.275 62.3887 253.283 62.8984 254.303 63.3555C255.334 63.8008 256.4 64.1816 257.502 64.498C258.604 64.8027 259.758 65.0371 260.965 65.2012C262.184 65.3652 263.479 65.4473 264.85 65.4473C266.502 65.4473 267.908 65.3418 269.068 65.1309C270.229 64.9082 271.172 64.6094 271.898 64.2344C272.637 63.8477 273.17 63.3906 273.498 62.8633C273.838 62.3359 274.008 61.7617 274.008 61.1406C274.008 60.1445 273.592 59.3594 272.76 58.7852C271.928 58.1992 270.645 57.9062 268.91 57.9062C268.148 57.9062 267.346 57.959 266.502 58.0645C265.658 58.1582 264.803 58.2637 263.936 58.3809C263.08 58.498 262.23 58.6094 261.387 58.7148C260.555 58.8086 259.77 58.8555 259.031 58.8555C257.801 58.8555 256.617 58.6973 255.48 58.3809C254.355 58.0645 253.354 57.5898 252.475 56.957C251.607 56.3242 250.916 55.5332 250.4 54.584C249.885 53.6348 249.627 52.5273 249.627 51.2617C249.627 50.5117 249.727 49.7676 249.926 49.0293C250.137 48.291 250.465 47.5879 250.91 46.9199C251.367 46.2402 251.953 45.6133 252.668 45.0391C253.383 44.4531 254.244 43.9492 255.252 43.5273C256.271 43.1055 257.443 42.7773 258.768 42.543C260.104 42.2969 261.621 42.1738 263.32 42.1738C264.551 42.1738 265.787 42.2441 267.029 42.3848C268.271 42.5137 269.479 42.7012 270.65 42.9473C271.834 43.1934 272.971 43.4922 274.061 43.8438C275.15 44.1836 276.164 44.5645 277.102 44.9863L274.658 49.4863C273.885 49.1465 273.053 48.8359 272.162 48.5547C271.271 48.2617 270.34 48.0098 269.367 47.7988C268.395 47.5879 267.387 47.4238 266.344 47.3066C265.312 47.1777 264.258 47.1133 263.18 47.1133C261.645 47.1133 260.379 47.2246 259.383 47.4473C258.398 47.6699 257.613 47.957 257.027 48.3086C256.441 48.6484 256.031 49.0352 255.797 49.4688C255.574 49.8906 255.463 50.3125 255.463 50.7344C255.463 51.5547 255.832 52.2285 256.57 52.7559C257.309 53.2715 258.434 53.5293 259.945 53.5293C260.555 53.5293 261.252 53.4883 262.037 53.4062C262.834 53.3125 263.666 53.2129 264.533 53.1074C265.412 53.002 266.303 52.9082 267.205 52.8262C268.119 52.7324 269.004 52.6855 269.859 52.6855C271.477 52.6855 272.906 52.8672 274.148 53.2305C275.402 53.5938 276.451 54.1152 277.295 54.7949C278.139 55.4629 278.777 56.2773 279.211 57.2383C279.645 58.1875 279.861 59.2539 279.861 60.4375C279.861 62.0195 279.492 63.4316 278.754 64.6738C278.027 65.9043 276.984 66.9473 275.625 67.8027C274.277 68.6465 272.648 69.291 270.738 69.7363C268.828 70.1699 266.701 70.3867 264.357 70.3867C262.811 70.3867 261.299 70.2871 259.822 70.0879C258.346 69.9004 256.928 69.6309 255.568 69.2793C254.221 68.916 252.932 68.4883 251.701 67.9961C250.482 67.4922 249.352 66.9414 248.309 66.3438L251.279 61.8262ZM288.475 53.1602H283.465V49.2578H288.475V42.8066H293.678V49.2578H298.688V53.1602H293.678V70H288.475V53.1602ZM302.326 63.4609C302.326 62.4648 302.543 61.5566 302.977 60.7363C303.41 59.916 304.061 59.2129 304.928 58.627C305.795 58.0293 306.873 57.5723 308.162 57.2559C309.463 56.9277 310.975 56.7637 312.697 56.7637C313.975 56.7637 315.316 56.8574 316.723 57.0449C318.141 57.2324 319.6 57.5195 321.1 57.9062C321.041 57.25 320.842 56.6465 320.502 56.0957C320.162 55.5332 319.688 55.0527 319.078 54.6543C318.48 54.2441 317.754 53.9277 316.898 53.7051C316.055 53.4824 315.094 53.3711 314.016 53.3711C313.43 53.3711 312.785 53.4062 312.082 53.4766C311.379 53.5469 310.652 53.6523 309.902 53.793C309.152 53.9336 308.408 54.1094 307.67 54.3203C306.943 54.5312 306.264 54.7832 305.631 55.0762L304.049 50.8047C304.834 50.5234 305.672 50.2656 306.562 50.0312C307.465 49.7969 308.385 49.5977 309.322 49.4336C310.26 49.2578 311.197 49.123 312.135 49.0293C313.072 48.9355 313.98 48.8887 314.859 48.8887C318.738 48.8887 321.621 49.8789 323.508 51.8594C325.395 53.8398 326.338 56.875 326.338 60.9648V70H321.135V68.0488C320.596 68.3652 320.004 68.6641 319.359 68.9453C318.727 69.2266 318.035 69.4727 317.285 69.6836C316.535 69.8945 315.727 70.0586 314.859 70.1758C314.004 70.3047 313.096 70.3691 312.135 70.3691C310.518 70.3691 309.094 70.1934 307.863 69.8418C306.645 69.4902 305.625 69.0039 304.805 68.3828C303.984 67.7617 303.363 67.0352 302.941 66.2031C302.531 65.3594 302.326 64.4453 302.326 63.4609ZM307.811 63.2852C307.811 63.625 307.898 63.9531 308.074 64.2695C308.25 64.5742 308.531 64.8496 308.918 65.0957C309.305 65.3301 309.797 65.5234 310.395 65.6758C311.004 65.8164 311.736 65.8867 312.592 65.8867C313.506 65.8867 314.391 65.8047 315.246 65.6406C316.102 65.4766 316.898 65.2598 317.637 64.9902C318.375 64.7207 319.043 64.4102 319.641 64.0586C320.238 63.707 320.736 63.3438 321.135 62.9688V62.0547C320.338 61.832 319.547 61.6445 318.762 61.4922C317.988 61.3398 317.244 61.2227 316.529 61.1406C315.826 61.0469 315.158 60.9824 314.525 60.9473C313.904 60.9121 313.359 60.8945 312.891 60.8945C311.918 60.8945 311.109 60.959 310.465 61.0879C309.82 61.2168 309.299 61.3926 308.9 61.6152C308.502 61.8262 308.221 62.0781 308.057 62.3711C307.893 62.6641 307.811 62.9688 307.811 63.2852ZM333.229 49.2578H338.432V52.2461C339.58 51.3906 340.793 50.6523 342.07 50.0312C343.348 49.4102 344.619 48.9355 345.885 48.6074L347.414 53.3711C345.41 53.5703 343.646 54.0215 342.123 54.7246C340.611 55.416 339.381 56.3945 338.432 57.6602V70H333.229V49.2578ZM354.428 53.1602H349.418V49.2578H354.428V42.8066H359.631V49.2578H364.641V53.1602H359.631V70H354.428V53.1602Z" fill="#FCFCFC"/>
<path d="M120.902 42.5254V37.5254C118.141 37.5254 115.902 39.764 115.902 42.5254H120.902ZM126.475 42.5254H131.475C131.475 39.764 129.236 37.5254 126.475 37.5254V42.5254ZM126.475 65.1133H121.475C121.475 67.8747 123.713 70.1133 126.475 70.1133V65.1133ZM142.453 65.1133H147.453C147.453 62.3519 145.215 60.1133 142.453 60.1133V65.1133ZM142.453 70V75C145.215 75 147.453 72.7614 147.453 70H142.453ZM120.902 70H115.902C115.902 72.7614 118.141 75 120.902 75V70ZM120.902 42.5254V47.5254H126.475V42.5254V37.5254H120.902V42.5254ZM126.475 42.5254H121.475V65.1133H126.475H131.475V42.5254H126.475ZM126.475 65.1133V70.1133H142.453V65.1133V60.1133H126.475V65.1133ZM142.453 65.1133H137.453V70H142.453H147.453V65.1133H142.453ZM142.453 70V65H120.902V70V75H142.453V70ZM120.902 70H125.902V42.5254H120.902H115.902V70H120.902ZM147.094 55.5332L151.654 57.5833C151.656 57.5781 151.659 57.5729 151.661 57.5677L147.094 55.5332ZM153.527 49.7676L151.779 45.0831L151.768 45.0874L153.527 49.7676ZM164.215 49.7852L162.448 54.4625C162.462 54.4678 162.476 54.4729 162.49 54.478L164.215 49.7852ZM168.258 52.2109L164.841 55.861C164.847 55.8671 164.854 55.8731 164.86 55.879L168.258 52.2109ZM170.807 55.8496L166.197 57.7864C166.202 57.7974 166.206 57.8083 166.211 57.8192L170.807 55.8496ZM171.686 60.9824L166.692 60.7327C166.688 60.8159 166.686 60.8992 166.686 60.9824H171.686ZM171.65 61.5977V66.5977C174.172 66.5977 176.299 64.72 176.612 62.2178L171.65 61.5977ZM152.033 61.5977V56.5977C150.406 56.5977 148.881 57.3893 147.944 58.7199C147.008 60.0504 146.777 61.7534 147.327 63.285L152.033 61.5977ZM153.105 63.3027L149.489 66.7551C149.502 66.7693 149.516 66.7834 149.53 66.7974L153.105 63.3027ZM157.588 65.5176L156.54 70.4066C156.559 70.4106 156.577 70.4145 156.596 70.4182L157.588 65.5176ZM164.426 65.4473L165.444 70.3426C165.459 70.3394 165.475 70.3361 165.49 70.3327L164.426 65.4473ZM167.818 64.4805L172.391 62.4573C171.33 60.06 168.598 58.889 166.13 59.7741L167.818 64.4805ZM169.576 68.4531L171.686 72.986C174.156 71.8363 175.251 68.9212 174.149 66.4299L169.576 68.4531ZM167.502 69.2969L169.107 74.0322C169.123 74.0269 169.138 74.0216 169.154 74.0162L167.502 69.2969ZM165.322 69.8945L166.318 74.7945C166.337 74.7906 166.356 74.7866 166.375 74.7824L165.322 69.8945ZM162.949 70.2461L162.459 65.2702L162.452 65.2709L162.949 70.2461ZM166.184 57.5371V62.5371C167.785 62.5371 169.29 61.7697 170.231 60.4731C171.171 59.1765 171.434 57.5078 170.937 55.9851L166.184 57.5371ZM165.305 55.9375L161.338 58.9816C161.364 59.0159 161.391 59.0499 161.418 59.0835L165.305 55.9375ZM163.846 54.6367L161.15 58.8481C161.171 58.8609 161.191 58.8737 161.211 58.8862L163.846 54.6367ZM152.912 55.9727L149.071 52.7717C149.056 52.7899 149.041 52.8082 149.026 52.8267L152.912 55.9727ZM152.033 57.5371L147.3 55.9258C146.78 57.4526 147.029 59.1363 147.968 60.4477C148.907 61.7591 150.42 62.5371 152.033 62.5371V57.5371ZM146.232 59.5586H151.232C151.232 58.8561 151.371 58.2133 151.654 57.5833L147.094 55.5332L142.533 53.4831C141.668 55.4078 141.232 57.4486 141.232 59.5586H146.232ZM147.094 55.5332L151.661 57.5677C151.945 56.9297 152.356 56.3519 152.944 55.8155L149.572 52.123L146.201 48.4306C144.632 49.8629 143.391 51.5586 142.526 53.4987L147.094 55.5332ZM149.572 52.123L152.944 55.8155C153.491 55.3158 154.24 54.8411 155.287 54.4478L153.527 49.7676L151.768 45.0874C149.697 45.8659 147.81 46.9615 146.201 48.4306L149.572 52.123ZM153.527 49.7676L155.275 54.4521C156.192 54.11 157.366 53.8887 158.871 53.8887V48.8887V43.8887C156.392 43.8887 154.003 44.2532 151.779 45.0831L153.527 49.7676ZM158.871 48.8887V53.8887C160.349 53.8887 161.518 54.1113 162.448 54.4625L164.215 49.7852L165.982 45.1078C163.748 44.2637 161.354 43.8887 158.871 43.8887V48.8887ZM164.215 49.7852L162.49 54.478C163.534 54.862 164.285 55.341 164.841 55.861L168.258 52.2109L171.675 48.5608C170.027 47.0183 168.083 45.8802 165.94 45.0923L164.215 49.7852ZM168.258 52.2109L164.86 55.879C165.452 56.4277 165.888 57.0509 166.197 57.7864L170.807 55.8496L175.416 53.9128C174.553 51.8592 173.29 50.0566 171.656 48.5428L168.258 52.2109ZM170.807 55.8496L166.211 57.8192C166.528 58.5602 166.703 59.3806 166.703 60.332H171.703H176.703C176.703 58.0959 176.28 55.9281 175.402 53.88L170.807 55.8496ZM171.703 60.332H166.703C166.703 60.4349 166.7 60.5674 166.692 60.7327L171.686 60.9824L176.679 61.2321C176.694 60.9287 176.703 60.6276 176.703 60.332H171.703ZM171.686 60.9824H166.686C166.686 60.9943 166.685 61.0032 166.685 61.0092C166.685 61.0152 166.685 61.0181 166.685 61.018C166.685 61.0179 166.685 61.0144 166.686 61.0078C166.686 61.0011 166.687 60.991 166.689 60.9775L171.65 61.5977L176.612 62.2178C176.665 61.7922 176.686 61.377 176.686 60.9824H171.686ZM171.65 61.5977V56.5977H152.033V61.5977V66.5977H171.65V61.5977ZM152.033 61.5977L147.327 63.285C147.804 64.6157 148.553 65.775 149.489 66.7551L153.105 63.3027L156.722 59.8504C156.693 59.82 156.691 59.8118 156.701 59.828C156.706 59.8356 156.712 59.847 156.72 59.8619C156.727 59.8769 156.734 59.8933 156.74 59.9103L152.033 61.5977ZM153.105 63.3027L149.53 66.7974C150.48 67.7701 151.582 68.5266 152.75 69.1108L154.986 64.6387L157.222 60.1665C156.891 60.0007 156.739 59.8666 156.681 59.8081L153.105 63.3027ZM154.986 64.6387L152.75 69.1108C153.944 69.7075 155.223 70.1244 156.54 70.4066L157.588 65.5176L158.636 60.6286C157.984 60.4889 157.529 60.3199 157.222 60.1665L154.986 64.6387ZM157.588 65.5176L156.596 70.4182C157.962 70.6946 159.39 70.8164 160.857 70.8164V65.8164V60.8164C159.934 60.8164 159.183 60.739 158.58 60.6169L157.588 65.5176ZM160.857 65.8164V70.8164C162.399 70.8164 163.929 70.6575 165.444 70.3426L164.426 65.4473L163.408 60.552C162.555 60.7292 161.707 60.8164 160.857 60.8164V65.8164ZM164.426 65.4473L165.49 70.3327C166.873 70.0314 168.213 69.6508 169.507 69.1869L167.818 64.4805L166.13 59.7741C165.267 60.0836 164.346 60.3475 163.362 60.5618L164.426 65.4473ZM167.818 64.4805L163.246 66.5036L165.004 70.4763L169.576 68.4531L174.149 66.4299L172.391 62.4573L167.818 64.4805ZM169.576 68.4531L167.466 63.9202C166.935 64.1674 166.397 64.3864 165.85 64.5776L167.502 69.2969L169.154 74.0162C170.014 73.7152 170.858 73.3717 171.686 72.986L169.576 68.4531ZM167.502 69.2969L165.897 64.5615C165.398 64.7306 164.857 64.8801 164.269 65.0066L165.322 69.8945L166.375 74.7824C167.311 74.5808 168.223 74.3319 169.107 74.0322L167.502 69.2969ZM165.322 69.8945L164.327 64.9946C163.758 65.1101 163.137 65.2034 162.459 65.2702L162.949 70.2461L163.44 75.222C164.426 75.1247 165.386 74.9836 166.318 74.7945L165.322 69.8945ZM162.949 70.2461L162.452 65.2709C161.813 65.3347 161.113 65.3691 160.348 65.3691V70.3691V75.3691C161.41 75.3691 162.444 75.3215 163.447 75.2213L162.949 70.2461ZM160.348 70.3691V65.3691C158.403 65.3691 156.892 65.1329 155.737 64.7633L154.213 69.5254L152.689 74.2875C155.049 75.0428 157.628 75.3691 160.348 75.3691V70.3691ZM154.213 69.5254L155.737 64.7633C154.461 64.355 153.582 63.858 152.975 63.3597L149.801 67.2227L146.626 71.0856C148.387 72.5327 150.449 73.5708 152.689 74.2875L154.213 69.5254ZM149.801 67.2227L152.975 63.3597C152.343 62.8404 151.941 62.2983 151.679 61.7228L147.129 63.7949L142.578 65.867C143.512 67.9165 144.891 69.6596 146.626 71.0856L149.801 67.2227ZM147.129 63.7949L151.679 61.7228C151.392 61.0923 151.232 60.3907 151.232 59.5586H146.232H141.232C141.232 61.7499 141.67 63.8725 142.578 65.867L147.129 63.7949ZM166.184 57.5371L170.937 55.9851C170.551 54.8034 169.954 53.7345 169.191 52.7915L165.305 55.9375L161.418 59.0835C161.429 59.0962 161.435 59.1049 161.438 59.1097C161.441 59.1143 161.442 59.1158 161.441 59.1143C161.44 59.1127 161.438 59.1092 161.436 59.1042C161.434 59.0992 161.432 59.094 161.431 59.0891L166.184 57.5371ZM165.305 55.9375L169.271 52.8934C168.487 51.8712 167.535 51.0414 166.48 50.3872L163.846 54.6367L161.211 58.8862C161.273 58.9245 161.307 58.9526 161.323 58.9665C161.338 58.9799 161.341 58.9848 161.338 58.9816L165.305 55.9375ZM163.846 54.6367L166.541 50.4254C165.47 49.7396 164.311 49.2582 163.122 48.934L161.807 53.7578L160.491 58.5816C160.849 58.6793 161.05 58.7838 161.15 58.8481L163.846 54.6367ZM161.807 53.7578L163.122 48.934C161.86 48.5897 160.561 48.4414 159.258 48.4414V53.4414V58.4414C159.806 58.4414 160.207 58.504 160.491 58.5816L161.807 53.7578ZM159.258 53.4414V48.4414C157.9 48.4414 156.549 48.5946 155.241 48.9548L156.568 53.7754L157.896 58.596C158.205 58.5109 158.646 58.4414 159.258 58.4414V53.4414ZM156.568 53.7754L155.241 48.9548C154.053 49.2819 152.895 49.7528 151.821 50.4136L154.441 54.6719L157.062 58.9302C157.207 58.841 157.466 58.7142 157.896 58.596L156.568 53.7754ZM154.441 54.6719L151.821 50.4136C150.803 51.0397 149.866 51.8177 149.071 52.7717L152.912 55.9727L156.753 59.1736C156.779 59.1432 156.861 59.054 157.062 58.9302L154.441 54.6719ZM152.912 55.9727L149.026 52.8267C148.29 53.736 147.693 54.7703 147.3 55.9258L152.033 57.5371L156.766 59.1484C156.763 59.1591 156.759 59.1678 156.756 59.1741C156.754 59.1803 156.752 59.183 156.753 59.1819C156.754 59.1802 156.766 59.1588 156.798 59.1186L152.912 55.9727ZM152.033 57.5371V62.5371H166.184V57.5371V52.5371H152.033V57.5371ZM180.439 53.1602H185.439C185.439 50.3987 183.201 48.1602 180.439 48.1602V53.1602ZM175.43 53.1602H170.43C170.43 55.9216 172.668 58.1602 175.43 58.1602V53.1602ZM175.43 49.2578V44.2578C172.668 44.2578 170.43 46.4964 170.43 49.2578H175.43ZM180.439 49.2578V54.2578C183.201 54.2578 185.439 52.0192 185.439 49.2578H180.439ZM180.439 42.8066V37.8066C177.678 37.8066 175.439 40.0452 175.439 42.8066H180.439ZM185.643 42.8066H190.643C190.643 40.0452 188.404 37.8066 185.643 37.8066V42.8066ZM185.643 49.2578H180.643C180.643 52.0192 182.881 54.2578 185.643 54.2578V49.2578ZM190.652 49.2578H195.652C195.652 46.4964 193.414 44.2578 190.652 44.2578V49.2578ZM190.652 53.1602V58.1602C193.414 58.1602 195.652 55.9216 195.652 53.1602H190.652ZM185.643 53.1602V48.1602C182.881 48.1602 180.643 50.3987 180.643 53.1602H185.643ZM185.643 70V75C188.404 75 190.643 72.7614 190.643 70H185.643ZM180.439 70H175.439C175.439 72.7614 177.678 75 180.439 75V70ZM180.439 53.1602V48.1602H175.43V53.1602V58.1602H180.439V53.1602ZM175.43 53.1602H180.43V49.2578H175.43H170.43V53.1602H175.43ZM175.43 49.2578V54.2578H180.439V49.2578V44.2578H175.43V49.2578ZM180.439 49.2578H185.439V42.8066H180.439H175.439V49.2578H180.439ZM180.439 42.8066V47.8066H185.643V42.8066V37.8066H180.439V42.8066ZM185.643 42.8066H180.643V49.2578H185.643H190.643V42.8066H185.643ZM185.643 49.2578V54.2578H190.652V49.2578V44.2578H185.643V49.2578ZM190.652 49.2578H185.652V53.1602H190.652H195.652V49.2578H190.652ZM190.652 53.1602V48.1602H185.643V53.1602V58.1602H190.652V53.1602ZM185.643 53.1602H180.643V70H185.643H190.643V53.1602H185.643ZM185.643 70V65H180.439V70V75H185.643V70ZM180.439 70H185.439V53.1602H180.439H175.439V70H180.439ZM201.199 41.1367L199.397 45.8007C199.409 45.8052 199.421 45.8097 199.432 45.8141L201.199 41.1367ZM202.553 42.0156L198.963 45.4964C198.981 45.5148 198.999 45.533 199.017 45.5512L202.553 42.0156ZM202.166 49.627L198.166 46.627L198.162 46.6323L202.166 49.627ZM197.596 53.3535L193.501 56.2226C194.96 58.3054 197.75 58.961 199.985 57.7459L197.596 53.3535ZM195.662 50.5938L193.309 46.182C192.046 46.8556 191.132 48.0382 190.799 49.4303C190.466 50.8224 190.746 52.2905 191.567 53.4628L195.662 50.5938ZM197.051 49.7676L194.305 45.5891C194.286 45.6013 194.268 45.6137 194.249 45.6262L197.051 49.7676ZM198.105 48.9414L194.714 45.2674C194.69 45.2895 194.666 45.3119 194.643 45.3345L198.105 48.9414ZM198.879 48.0801L194.842 45.13C194.835 45.1395 194.828 45.149 194.821 45.1586L198.879 48.0801ZM199.477 47.1133L203.918 49.4104C204.719 47.8604 204.655 46.0045 203.748 44.5138C202.84 43.0231 201.222 42.1133 199.477 42.1133V47.1133ZM197.912 46.8672L196.223 51.5732C196.235 51.5777 196.248 51.5821 196.26 51.5865L197.912 46.8672ZM196.717 46.1992L193.387 49.9289C193.433 49.9706 193.481 50.0113 193.529 50.0512L196.717 46.1992ZM195.943 45.1973L191.392 47.2663C191.417 47.3225 191.444 47.3781 191.471 47.4333L195.943 45.1973ZM195.943 42.7539L191.444 40.5725C191.435 40.5922 191.425 40.6119 191.416 40.6317L195.943 42.7539ZM196.717 41.752L193.529 37.9C193.507 37.9184 193.485 37.9369 193.463 37.9557L196.717 41.752ZM199.494 40.8379V45.8379C199.537 45.8379 199.545 45.8413 199.523 45.8375C199.501 45.8336 199.456 45.8235 199.397 45.8007L201.199 41.1367L203.001 36.4727C201.844 36.0257 200.656 35.8379 199.494 35.8379V40.8379ZM201.199 41.1367L199.432 45.8141C199.377 45.7931 199.299 45.757 199.21 45.6993C199.121 45.6412 199.037 45.572 198.963 45.4964L202.553 42.0156L206.142 38.5349C205.231 37.5955 204.149 36.9061 202.966 36.4594L201.199 41.1367ZM202.553 42.0156L199.017 45.5512C198.945 45.4787 198.887 45.4048 198.844 45.338C198.802 45.2722 198.782 45.2252 198.775 45.2087L203.432 43.3867L208.088 41.5647C207.649 40.4426 206.994 39.386 206.088 38.4801L202.553 42.0156ZM203.432 43.3867L198.775 45.2087C198.763 45.1772 198.755 45.1513 198.75 45.1323C198.744 45.1133 198.742 45.1024 198.742 45.1008C198.742 45.0977 198.748 45.133 198.748 45.2148H203.748H208.748C208.748 44.0183 208.562 42.776 208.088 41.5647L203.432 43.3867ZM203.748 45.2148H198.748C198.748 45.5152 198.67 45.9552 198.166 46.627L202.166 49.627L206.166 52.627C207.772 50.4862 208.748 47.9848 208.748 45.2148H203.748ZM202.166 49.627L198.162 46.6323C197.662 47.3005 196.766 48.1134 195.207 48.9611L197.596 53.3535L199.985 57.7459C202.434 56.414 204.584 54.7424 206.17 52.6216L202.166 49.627ZM197.596 53.3535L201.691 50.4845L199.757 47.7247L195.662 50.5938L191.567 53.4628L193.501 56.2226L197.596 53.3535ZM195.662 50.5938L198.015 55.0055C198.661 54.6608 199.28 54.2965 199.852 53.909L197.051 49.7676L194.249 45.6262C194.025 45.7777 193.718 45.9642 193.309 46.182L195.662 50.5938ZM197.051 49.7676L199.797 53.9461C200.412 53.5419 201.014 53.0801 201.568 52.5483L198.105 48.9414L194.643 45.3345C194.611 45.3652 194.51 45.4542 194.305 45.5891L197.051 49.7676ZM198.105 48.9414L201.497 52.6154C202.013 52.1392 202.503 51.6038 202.937 51.0016L198.879 48.0801L194.821 45.1586C194.833 45.1423 194.808 45.1811 194.714 45.2674L198.105 48.9414ZM198.879 48.0801L202.916 51.0302C203.292 50.5156 203.626 49.9748 203.918 49.4104L199.477 47.1133L195.035 44.8162C194.976 44.9315 194.911 45.0351 194.842 45.13L198.879 48.0801ZM199.477 47.1133V42.1133C199.379 42.1133 199.426 42.0996 199.564 42.1479L197.912 46.8672L196.26 51.5865C197.336 51.9629 198.426 52.1133 199.477 52.1133V47.1133ZM197.912 46.8672L199.601 42.1612C199.635 42.1732 199.755 42.2238 199.905 42.3472L196.717 46.1992L193.529 50.0512C194.358 50.7371 195.275 51.2331 196.223 51.5732L197.912 46.8672ZM196.717 46.1992L200.047 42.4695C200.167 42.5767 200.306 42.743 200.415 42.9612L195.943 45.1973L191.471 47.4333C191.955 48.4015 192.61 49.2358 193.387 49.9289L196.717 46.1992ZM195.943 45.1973L200.495 43.1283C200.621 43.405 200.68 43.7019 200.68 43.9668H195.68H190.68C190.68 45.0989 190.914 46.2161 191.392 47.2663L195.943 45.1973ZM195.68 43.9668H200.68C200.68 44.2314 200.621 44.5557 200.471 44.8761L195.943 42.7539L191.416 40.6317C190.914 41.7021 190.68 42.835 190.68 43.9668H195.68ZM195.943 42.7539L200.442 44.9353C200.329 45.1702 200.161 45.385 199.971 45.5482L196.717 41.752L193.463 37.9557C192.616 38.6814 191.933 39.5642 191.444 40.5725L195.943 42.7539ZM196.717 41.752L199.905 45.6039C199.734 45.745 199.602 45.796 199.581 45.8033L197.93 41.084L196.278 36.3647C195.32 36.7001 194.379 37.1964 193.529 37.9L196.717 41.752ZM197.93 41.084L199.581 45.8033C199.444 45.8515 199.396 45.8379 199.494 45.8379V40.8379V35.8379C198.444 35.8379 197.353 35.9883 196.278 36.3647L197.93 41.084ZM211.184 63.6367L213.756 59.3493C212.603 58.6575 211.22 58.4592 209.919 58.7992C208.619 59.1391 207.509 59.9887 206.842 61.156L211.184 63.6367ZM226.582 62.0723L223.381 65.9134C223.398 65.9277 223.416 65.9419 223.433 65.956L226.582 62.0723ZM221.326 61.8262L221.834 66.8003C221.863 66.7973 221.893 66.7941 221.922 66.7906L221.326 61.8262ZM219.516 62.002L219.055 57.0232L219.046 57.0241L219.516 62.002ZM214.014 61.6328L212.535 66.4092C212.541 66.4109 212.546 66.4125 212.551 66.4141L214.014 61.6328ZM210.252 58.5215L205.589 60.3265C205.592 60.335 205.596 60.3436 205.599 60.3521L210.252 58.5215ZM212.678 50.9629L215.559 55.0492C215.571 55.041 215.582 55.0328 215.594 55.0245L212.678 50.9629ZM215.982 49.4336L214.637 44.6179L214.626 44.6211L215.982 49.4336ZM222.926 49.0469L222.345 54.0131C222.369 54.0158 222.392 54.0184 222.416 54.0208L222.926 49.0469ZM228.146 50.0137L226.819 54.8343C226.841 54.8402 226.863 54.8461 226.884 54.8518L228.146 50.0137ZM230.291 50.6992L234.926 52.5735C235.426 51.3385 235.412 49.9553 234.887 48.7307C234.363 47.5062 233.371 46.5415 232.133 46.0508L230.291 50.6992ZM228.656 54.7422L226.914 59.4289C229.451 60.3717 232.277 59.1253 233.292 56.6165L228.656 54.7422ZM224.684 53.582L223.594 58.4619C223.611 58.4657 223.628 58.4694 223.645 58.4729L224.684 53.582ZM218.145 53.3711L219.175 58.2638C219.196 58.2594 219.217 58.2548 219.238 58.25L218.145 53.3711ZM216.51 53.9512L218.938 58.322C218.969 58.305 218.999 58.2877 219.029 58.2701L216.51 53.9512ZM215.578 54.7773L211.347 52.1133C211.338 52.1278 211.329 52.1423 211.32 52.1569L215.578 54.7773ZM215.438 56.4121L210.913 58.5411C210.947 58.6121 210.982 58.6822 211.019 58.7515L215.438 56.4121ZM215.93 56.9395L213.106 61.066C213.188 61.1221 213.272 61.1758 213.357 61.2269L215.93 56.9395ZM216.826 57.2734L215.725 62.1506C215.785 62.1641 215.845 62.1765 215.905 62.1878L216.826 57.2734ZM221.484 57.1152L221.972 62.0914C222.004 62.0882 222.036 62.0848 222.069 62.081L221.484 57.1152ZM223.33 56.9219L222.877 51.9424L222.869 51.9432L223.33 56.9219ZM228.551 57.2734L227.042 62.0404C227.048 62.0422 227.054 62.044 227.059 62.0458L228.551 57.2734ZM229.693 68.1895L232.512 72.3196C232.523 72.3121 232.534 72.3045 232.544 72.2969L229.693 68.1895ZM225.967 69.7891L224.709 64.9498L224.7 64.9522L225.967 69.7891ZM217.371 70.1406L218.049 65.1868C218.032 65.1845 218.015 65.1822 217.998 65.18L217.371 70.1406ZM214.189 69.5605L212.95 74.4046C212.968 74.4091 212.986 74.4135 213.003 74.4178L214.189 69.5605ZM211.342 68.6641L209.539 73.3276C209.545 73.3302 209.552 73.3329 209.559 73.3355L211.342 68.6641ZM208.934 67.5742L204.592 65.0935C203.922 66.2675 203.755 67.6631 204.13 68.9621C204.505 70.2611 205.391 71.3527 206.584 71.988L208.934 67.5742ZM211.184 63.6367L208.611 67.9242C210.484 69.0479 212.515 69.8562 214.675 70.3662L215.824 65.5L216.973 60.6338C215.758 60.347 214.696 59.9131 213.756 59.3493L211.184 63.6367ZM215.824 65.5L214.675 70.3662C216.747 70.8554 218.861 71.0977 221.01 71.0977V66.0977V61.0977C219.619 61.0977 218.276 60.9415 216.973 60.6338L215.824 65.5ZM221.01 66.0977V71.0977C222.402 71.0977 223.763 71.0049 225.006 70.7488L223.998 65.8516L222.99 60.9543C222.64 61.0264 222.008 61.0977 221.01 61.0977V66.0977ZM223.998 65.8516L225.006 70.7488C226.068 70.5303 227.218 70.1934 228.278 69.6245L225.914 65.2188L223.55 60.8129C223.615 60.7778 223.612 60.7877 223.507 60.8226C223.404 60.8564 223.237 60.9035 222.99 60.9543L223.998 65.8516ZM225.914 65.2188L228.278 69.6245C229.232 69.1126 230.39 68.2816 231.208 66.9347L226.934 64.3398L222.66 61.745C222.873 61.3929 223.103 61.1578 223.265 61.0186C223.423 60.8821 223.534 60.8213 223.55 60.8129L225.914 65.2188ZM226.934 64.3398L231.208 66.9347C231.819 65.9282 232.232 64.7071 232.232 63.3379H227.232H222.232C222.232 62.6484 222.447 62.0953 222.66 61.745L226.934 64.3398ZM227.232 63.3379H232.232C232.232 61.1241 231.158 59.3458 229.731 58.1885L226.582 62.0723L223.433 65.956C223.205 65.7712 222.882 65.4432 222.623 64.9377C222.354 64.4146 222.232 63.8557 222.232 63.3379H227.232ZM226.582 62.0723L229.783 58.2312C227.985 56.7325 225.799 56.5449 224.473 56.5449V61.5449V66.5449C224.691 66.5449 224.683 66.5669 224.526 66.5275C224.37 66.4887 223.903 66.348 223.381 65.9134L226.582 62.0723ZM224.473 61.5449V56.5449C223.805 56.5449 223.126 56.5876 222.444 56.6634L222.996 61.6328L223.548 66.6022C223.921 66.5609 224.227 66.5449 224.473 66.5449V61.5449ZM222.996 61.6328L222.444 56.6634C221.901 56.7238 221.329 56.7899 220.73 56.8618L221.326 61.8262L221.922 66.7906C222.495 66.7218 223.037 66.659 223.548 66.6022L222.996 61.6328ZM221.326 61.8262L220.819 56.852C220.261 56.9089 219.673 56.966 219.055 57.0233L219.516 62.002L219.977 66.9807C220.623 66.9208 221.243 66.8607 221.834 66.8003L221.326 61.8262ZM219.516 62.002L219.046 57.0241C218.586 57.0674 218.11 57.0898 217.617 57.0898V62.0898V67.0898C218.413 67.0898 219.203 67.0536 219.985 66.9799L219.516 62.002ZM217.617 62.0898V57.0898C216.545 57.0898 215.865 56.9706 215.476 56.8515L214.014 61.6328L212.551 66.4141C214.154 66.9044 215.877 67.0898 217.617 67.0898V62.0898ZM214.014 61.6328L215.492 56.8564C214.988 56.7004 214.831 56.5644 214.842 56.5733L211.605 60.3848L208.369 64.1962C209.622 65.2598 211.07 65.9558 212.535 66.4092L214.014 61.6328ZM211.605 60.3848L214.842 56.5733C214.816 56.5516 214.824 56.5542 214.847 56.5848C214.87 56.6167 214.891 56.655 214.905 56.6909L210.252 58.5215L205.599 60.3521C206.2 61.8805 207.159 63.1688 208.369 64.1962L211.605 60.3848ZM210.252 58.5215L214.915 56.7165C214.871 56.6038 214.83 56.4406 214.83 56.1836H209.83H204.83C204.83 57.5906 205.07 58.986 205.589 60.3265L210.252 58.5215ZM209.83 56.1836H214.83C214.83 55.9428 214.877 55.8067 214.945 55.6841L210.568 53.2656L206.192 50.8472C205.276 52.5058 204.83 54.3151 204.83 56.1836H209.83ZM210.568 53.2656L214.945 55.6841C215.036 55.5187 215.201 55.3017 215.559 55.0492L212.678 50.9629L209.796 46.8766C208.326 47.9131 207.085 49.2313 206.192 50.8472L210.568 53.2656ZM212.678 50.9629L215.594 55.0245C215.955 54.765 216.506 54.4809 217.339 54.2461L215.982 49.4336L214.626 44.6211C212.881 45.1128 211.228 45.8483 209.762 46.9013L212.678 50.9629ZM215.982 49.4336L217.327 54.2493C218.12 54.028 219.106 53.8887 220.324 53.8887V48.8887V43.8887C218.355 43.8887 216.446 44.1127 214.637 44.6179L215.982 49.4336ZM220.324 48.8887V53.8887C220.946 53.8887 221.618 53.9281 222.345 54.0131L222.926 49.0469L223.506 44.0807C222.429 43.9547 221.367 43.8887 220.324 43.8887V48.8887ZM222.926 49.0469L222.416 54.0208C223.197 54.1009 223.957 54.2105 224.698 54.3487L225.615 49.4336L226.533 44.5185C225.515 44.3286 224.483 44.1803 223.436 44.073L222.926 49.0469ZM225.615 49.4336L224.698 54.3487C225.448 54.4887 226.154 54.6512 226.819 54.8343L228.146 50.0137L229.474 45.1931C228.522 44.9308 227.541 44.7066 226.533 44.5185L225.615 49.4336ZM228.146 50.0137L226.884 54.8518C227.543 55.0234 228.057 55.1923 228.449 55.3476L230.291 50.6992L232.133 46.0508C231.283 45.7139 230.368 45.4258 229.409 45.1756L228.146 50.0137ZM230.291 50.6992L225.656 48.8249L224.021 52.8679L228.656 54.7422L233.292 56.6165L234.926 52.5735L230.291 50.6992ZM228.656 54.7422L230.398 50.0554C228.855 49.4818 227.296 49.0253 225.722 48.6911L224.684 53.582L223.645 58.4729C224.72 58.7013 225.809 59.0182 226.914 59.4289L228.656 54.7422ZM224.684 53.582L225.773 48.7021C224.09 48.3264 222.37 48.1426 220.623 48.1426V53.1426V58.1426C221.665 58.1426 222.652 58.2517 223.594 58.4619L224.684 53.582ZM220.623 53.1426V48.1426C219.415 48.1426 218.2 48.2347 217.051 48.4921L218.145 53.3711L219.238 58.25C219.449 58.2028 219.885 58.1426 220.623 58.1426V53.1426ZM218.145 53.3711L217.114 48.4783C216.114 48.6889 215.018 49.0327 213.99 49.6323L216.51 53.9512L219.029 58.2701C218.927 58.3298 218.877 58.3445 218.907 58.3337C218.936 58.3233 219.021 58.2962 219.175 58.2638L218.145 53.3711ZM216.51 53.9512L214.082 49.5804C213.133 50.1075 212.106 50.9081 211.347 52.1133L215.578 54.7773L219.809 57.4414C219.449 58.0138 219.043 58.2636 218.938 58.322L216.51 53.9512ZM215.578 54.7773L211.32 52.1569C210.674 53.2061 210.297 54.4293 210.297 55.7441H215.297H220.297C220.297 56.3793 220.107 56.9579 219.836 57.3978L215.578 54.7773ZM215.297 55.7441H210.297C210.297 56.639 210.471 57.6012 210.913 58.5411L215.438 56.4121L219.962 54.2831C220.216 54.8246 220.297 55.3414 220.297 55.7441H215.297ZM215.438 56.4121L211.019 58.7515C211.571 59.7951 212.346 60.5456 213.106 61.066L215.93 56.9395L218.753 52.8129C219.068 53.0286 219.515 53.4276 219.856 54.0727L215.438 56.4121ZM215.93 56.9395L213.357 61.2269C214.179 61.7201 215.018 61.9909 215.725 62.1506L216.826 57.2734L217.927 52.3962C217.929 52.3966 217.983 52.4087 218.075 52.443C218.167 52.4772 218.317 52.5411 218.502 52.652L215.93 56.9395ZM216.826 57.2734L215.905 62.1878C216.679 62.333 217.465 62.3789 218.197 62.3789V57.3789V52.3789C218.034 52.3789 217.915 52.3735 217.834 52.3673C217.751 52.3609 217.726 52.355 217.748 52.3591L216.826 57.2734ZM218.197 57.3789V62.3789C218.886 62.3789 219.586 62.338 220.291 62.263L219.762 57.291L219.233 52.3191C218.836 52.3612 218.493 52.3789 218.197 52.3789V57.3789ZM219.762 57.291L220.291 62.263C220.827 62.2059 221.387 62.1487 221.972 62.0914L221.484 57.1152L220.997 52.1391C220.386 52.1989 219.798 52.2589 219.233 52.3191L219.762 57.291ZM221.484 57.1152L222.069 62.081C222.623 62.0158 223.197 61.9556 223.791 61.9006L223.33 56.9219L222.869 51.9432C222.197 52.0054 221.541 52.0741 220.9 52.1495L221.484 57.1152ZM223.33 56.9219L223.783 61.9013C224.272 61.8569 224.777 61.834 225.299 61.834V56.834V51.834C224.485 51.834 223.677 51.8697 222.877 51.9424L223.33 56.9219ZM225.299 56.834V61.834C226.165 61.834 226.719 61.938 227.042 62.0404L228.551 57.2734L230.059 52.5064C228.531 52.0229 226.917 51.834 225.299 51.834V56.834ZM228.551 57.2734L227.059 62.0458C227.482 62.1778 227.609 62.2936 227.599 62.2847L230.871 58.5039L234.143 54.7231C232.914 53.6595 231.495 52.955 230.042 52.501L228.551 57.2734ZM230.871 58.5039L227.599 62.2847C227.618 62.301 227.629 62.3126 227.636 62.3192C227.639 62.3226 227.641 62.325 227.642 62.3265C227.643 62.3279 227.644 62.3286 227.644 62.3286C227.644 62.3286 227.643 62.3282 227.643 62.3275C227.642 62.3267 227.642 62.3259 227.642 62.3252C227.641 62.3235 227.641 62.3239 227.643 62.3277L232.242 60.3672L236.842 58.4067C236.228 56.9657 235.306 55.7293 234.143 54.7231L230.871 58.5039ZM232.242 60.3672L227.643 62.3277C227.661 62.3712 227.699 62.4768 227.699 62.7051H232.699H237.699C237.699 61.2459 237.433 59.7929 236.842 58.4067L232.242 60.3672ZM232.699 62.7051H227.699C227.699 62.9893 227.642 63.187 227.539 63.3789L231.943 65.7461L236.347 68.1133C237.252 66.4302 237.699 64.6005 237.699 62.7051H232.699ZM231.943 65.7461L227.539 63.3789C227.458 63.5308 227.282 63.7771 226.842 64.082L229.693 68.1895L232.544 72.2969C234.097 71.219 235.421 69.8364 236.347 68.1133L231.943 65.7461ZM229.693 68.1895L226.875 64.0593C226.465 64.3392 225.787 64.6699 224.709 64.9498L225.967 69.7891L227.224 74.6284C229.124 74.1348 230.929 73.3991 232.512 72.3196L229.693 68.1895ZM225.967 69.7891L224.7 64.9522C223.732 65.2057 222.463 65.3691 220.834 65.3691V70.3691V75.3691C223.096 75.3691 225.249 75.1458 227.234 74.6259L225.967 69.7891ZM220.834 70.3691V65.3691C219.851 65.3691 218.924 65.3065 218.049 65.1868L217.371 70.1406L216.693 75.0945C218.045 75.2794 219.426 75.3691 220.834 75.3691V70.3691ZM217.371 70.1406L217.998 65.18C217.058 65.0613 216.185 64.9009 215.376 64.7033L214.189 69.5605L213.003 74.4178C214.21 74.7124 215.458 74.9387 216.744 75.1012L217.371 70.1406ZM214.189 69.5605L215.429 64.7165C214.589 64.5016 213.822 64.2588 213.124 63.9926L211.342 68.6641L209.559 73.3355C210.643 73.749 211.775 74.1038 212.95 74.4046L214.189 69.5605ZM211.342 68.6641L213.145 64.0005C212.427 63.7228 211.809 63.4408 211.283 63.1605L208.934 67.5742L206.584 71.988C207.511 72.4811 208.499 72.9256 209.539 73.3276L211.342 68.6641ZM208.934 67.5742L213.275 70.0549L215.525 66.1174L211.184 63.6367L206.842 61.156L204.592 65.0935L208.934 67.5742ZM251.279 61.8262L253.738 57.4724C251.448 56.179 248.547 56.8813 247.102 59.079L251.279 61.8262ZM254.303 63.3555L252.257 67.918C252.278 67.9274 252.299 67.9367 252.321 67.9458L254.303 63.3555ZM257.502 64.498L256.122 69.3037C256.137 69.3083 256.153 69.3127 256.169 69.3171L257.502 64.498ZM260.965 65.2012L260.291 70.1556L260.298 70.1565L260.965 65.2012ZM269.068 65.1309L269.963 70.0502C269.979 70.0473 269.995 70.0443 270.011 70.0412L269.068 65.1309ZM271.898 64.2344L274.192 68.6775C274.201 68.6729 274.21 68.6682 274.218 68.6635L271.898 64.2344ZM273.498 62.8633L269.295 60.1548C269.281 60.177 269.267 60.1993 269.253 60.2218L273.498 62.8633ZM272.76 58.7852L269.881 62.8732C269.894 62.8823 269.907 62.8913 269.92 62.9003L272.76 58.7852ZM266.502 58.0645L267.054 63.0339C267.077 63.0314 267.099 63.0287 267.122 63.0258L266.502 58.0645ZM263.936 58.3809L263.266 53.4259L263.257 53.4271L263.936 58.3809ZM261.387 58.7148L261.947 63.6834C261.967 63.6811 261.987 63.6787 262.007 63.6762L261.387 58.7148ZM255.48 58.3809L254.127 63.1941L254.14 63.1977L255.48 58.3809ZM252.475 56.957L249.527 60.996C249.536 61.0023 249.544 61.0085 249.553 61.0147L252.475 56.957ZM249.926 49.0293L245.118 47.6557C245.111 47.6793 245.105 47.703 245.098 47.7267L249.926 49.0293ZM250.91 46.9199L246.761 44.1299C246.757 44.1354 246.754 44.1409 246.75 44.1464L250.91 46.9199ZM252.668 45.0391L255.799 48.9372C255.812 48.9268 255.825 48.9165 255.838 48.906L252.668 45.0391ZM255.252 43.5273L253.34 38.9073C253.334 38.9099 253.328 38.9125 253.321 38.9151L255.252 43.5273ZM258.768 42.543L259.639 47.4664C259.65 47.4644 259.662 47.4623 259.673 47.4602L258.768 42.543ZM267.029 42.3848L266.467 47.353C266.482 47.3548 266.498 47.3565 266.513 47.3581L267.029 42.3848ZM270.65 42.9473L269.623 47.8405L269.633 47.8426L270.65 42.9473ZM274.061 43.8438L272.526 48.6023C272.541 48.6073 272.557 48.6122 272.572 48.6171L274.061 43.8438ZM277.102 44.9863L281.496 47.3722C282.159 46.1499 282.284 44.7065 281.839 43.3886C281.395 42.0707 280.422 40.9975 279.153 40.4267L277.102 44.9863ZM274.658 49.4863L272.647 54.0639C275.027 55.1098 277.812 54.157 279.052 51.8722L274.658 49.4863ZM272.162 48.5547L270.6 53.3043C270.619 53.3105 270.638 53.3166 270.656 53.3226L272.162 48.5547ZM266.344 47.3066L265.724 52.268C265.744 52.2706 265.765 52.2731 265.785 52.2754L266.344 47.3066ZM259.383 47.4473L258.292 42.5677L258.28 42.5705L259.383 47.4473ZM257.027 48.3086L259.536 52.6337C259.557 52.6213 259.579 52.6088 259.6 52.5961L257.027 48.3086ZM255.797 49.4688L251.398 47.0912C251.39 47.1057 251.383 47.1203 251.375 47.135L255.797 49.4688ZM256.57 52.7559L253.664 56.8245C253.678 56.8348 253.693 56.845 253.707 56.8551L256.57 52.7559ZM262.037 53.4062L262.557 58.3792C262.578 58.3769 262.6 58.3745 262.621 58.372L262.037 53.4062ZM264.533 53.1074L263.937 48.143L263.93 48.144L264.533 53.1074ZM267.205 52.8262L267.658 57.8056C267.677 57.8039 267.696 57.802 267.715 57.8001L267.205 52.8262ZM274.148 53.2305L272.745 58.0295L272.757 58.033L274.148 53.2305ZM277.295 54.7949L274.158 58.6887C274.169 58.6976 274.18 58.7064 274.191 58.7152L277.295 54.7949ZM279.211 57.2383L274.653 59.2947C274.657 59.3017 274.66 59.3088 274.663 59.3158L279.211 57.2383ZM278.754 64.6738L274.456 62.1193C274.453 62.1234 274.451 62.1275 274.448 62.1316L278.754 64.6738ZM275.625 67.8027L278.278 72.0407L278.288 72.0345L275.625 67.8027ZM270.738 69.7363L271.845 74.6123C271.855 74.6101 271.864 74.608 271.873 74.6058L270.738 69.7363ZM259.822 70.0879L260.491 65.1328C260.478 65.131 260.465 65.1294 260.452 65.1277L259.822 70.0879ZM255.568 69.2793L254.267 74.107C254.283 74.1114 254.3 74.1158 254.316 74.12L255.568 69.2793ZM251.701 67.9961L249.791 72.6167C249.809 72.6241 249.826 72.6313 249.844 72.6385L251.701 67.9961ZM248.309 66.3438L244.131 63.5966C243.373 64.749 243.125 66.1633 243.445 67.5049C243.766 68.8465 244.626 69.9962 245.823 70.682L248.309 66.3438ZM251.279 61.8262L248.821 66.1799C249.948 66.8166 251.094 67.3963 252.257 67.918L254.303 63.3555L256.348 58.7929C255.473 58.4005 254.603 57.9608 253.738 57.4724L251.279 61.8262ZM254.303 63.3555L252.321 67.9458C253.552 68.4773 254.819 68.9296 256.122 69.3037L257.502 64.498L258.882 59.6924C257.982 59.4336 257.116 59.1242 256.285 58.7652L254.303 63.3555ZM257.502 64.498L256.169 69.3171C257.501 69.6855 258.876 69.9633 260.291 70.1556L260.965 65.2012L261.638 60.2467C260.639 60.111 259.706 59.92 258.835 59.679L257.502 64.498ZM260.965 65.2012L260.298 70.1565C261.761 70.3535 263.28 70.4473 264.85 70.4473V65.4473V60.4473C263.677 60.4473 262.606 60.377 261.632 60.2459L260.965 65.2012ZM264.85 65.4473V70.4473C266.693 70.4473 268.417 70.3313 269.963 70.0502L269.068 65.1309L268.174 60.2115C267.4 60.3523 266.311 60.4473 264.85 60.4473V65.4473ZM269.068 65.1309L270.011 70.0412C271.452 69.7647 272.897 69.3459 274.192 68.6775L271.898 64.2344L269.605 59.7913C269.447 59.8729 269.005 60.0517 268.126 60.2205L269.068 65.1309ZM271.898 64.2344L274.218 68.6635C275.486 67.9998 276.81 67.005 277.743 65.5048L273.498 62.8633L269.253 60.2218C269.53 59.7763 269.788 59.6955 269.578 59.8052L271.898 64.2344ZM273.498 62.8633L277.701 65.5718C278.556 64.2456 279.008 62.7326 279.008 61.1406H274.008H269.008C269.008 60.9888 269.03 60.8087 269.086 60.6183C269.142 60.4283 269.22 60.2716 269.295 60.1548L273.498 62.8633ZM274.008 61.1406H279.008C279.008 58.4721 277.76 56.161 275.6 54.67L272.76 58.7852L269.92 62.9003C269.767 62.7947 269.495 62.555 269.278 62.1456C269.059 61.7335 269.008 61.3585 269.008 61.1406H274.008ZM272.76 58.7852L275.639 54.6971C273.555 53.2297 271.025 52.9062 268.91 52.9062V57.9062V62.9062C269.514 62.9062 269.878 62.9589 270.06 63.0005C270.245 63.0428 270.128 63.0471 269.881 62.8732L272.76 58.7852ZM268.91 57.9062V52.9062C267.919 52.9062 266.908 52.9748 265.882 53.1031L266.502 58.0645L267.122 63.0258C267.783 62.9432 268.378 62.9062 268.91 62.9062V57.9062ZM266.502 58.0645L265.95 53.095C265.066 53.1933 264.171 53.3036 263.266 53.4259L263.936 58.3809L264.605 63.3358C265.434 63.2238 266.251 63.1231 267.054 63.0339L266.502 58.0645ZM263.936 58.3809L263.257 53.4271C262.421 53.5417 261.591 53.6505 260.767 53.7535L261.387 58.7148L262.007 63.6762C262.87 63.5683 263.74 63.4544 264.614 63.3346L263.936 58.3809ZM261.387 58.7148L260.827 53.7463C260.157 53.8218 259.56 53.8555 259.031 53.8555V58.8555V63.8555C259.979 63.8555 260.953 63.7954 261.947 63.6834L261.387 58.7148ZM259.031 58.8555V53.8555C258.234 53.8555 257.503 53.7538 256.821 53.564L255.48 58.3809L254.14 63.1977C255.731 63.6408 257.367 63.8555 259.031 63.8555V58.8555ZM255.48 58.3809L256.834 53.5676C256.227 53.3969 255.764 53.1645 255.396 52.8994L252.475 56.957L249.553 61.0147C250.943 62.0152 252.484 62.732 254.127 63.1941L255.48 58.3809ZM252.475 56.957L255.422 52.9181C255.157 52.7249 254.958 52.4996 254.794 52.1973L250.4 54.584L246.007 56.9706C246.874 58.5668 248.058 59.9236 249.527 60.996L252.475 56.957ZM250.4 54.584L254.794 52.1973C254.74 52.0972 254.627 51.8372 254.627 51.2617H249.627H244.627C244.627 53.2175 245.03 55.1723 246.007 56.9706L250.4 54.584ZM249.627 51.2617H254.627C254.627 50.9602 254.666 50.6539 254.753 50.3319L249.926 49.0293L245.098 47.7267C244.787 48.8813 244.627 50.0632 244.627 51.2617H249.627ZM249.926 49.0293L254.733 50.4029C254.796 50.1842 254.899 49.9508 255.07 49.6934L250.91 46.9199L246.75 44.1464C246.031 45.225 245.478 46.3978 245.118 47.6557L249.926 49.0293ZM250.91 46.9199L255.059 49.7099C255.204 49.4955 255.431 49.2327 255.799 48.9372L252.668 45.0391L249.537 41.141C248.475 41.9938 247.531 42.985 246.761 44.1299L250.91 46.9199ZM252.668 45.0391L255.838 48.906C256.117 48.6771 256.543 48.4074 257.183 48.1395L255.252 43.5273L253.321 38.9151C251.945 39.4911 250.649 40.2291 249.498 41.1721L252.668 45.0391ZM255.252 43.5273L257.164 48.1474C257.785 47.8903 258.597 47.6509 259.639 47.4664L258.768 42.543L257.896 37.6195C256.29 37.9038 254.758 38.3207 253.34 38.9073L255.252 43.5273ZM258.768 42.543L259.673 47.4602C260.647 47.2808 261.853 47.1738 263.32 47.1738V42.1738V37.1738C261.389 37.1738 259.56 37.3129 257.862 37.6257L258.768 42.543ZM263.32 42.1738V47.1738C264.36 47.1738 265.408 47.2332 266.467 47.353L267.029 42.3848L267.592 37.4165C266.166 37.2551 264.742 37.1738 263.32 37.1738V42.1738ZM267.029 42.3848L266.513 47.3581C267.591 47.4699 268.627 47.6314 269.623 47.8405L270.65 42.9473L271.678 38.054C270.33 37.7709 268.952 37.5574 267.545 37.4115L267.029 42.3848ZM270.65 42.9473L269.633 47.8426C270.651 48.0543 271.615 48.3084 272.526 48.6023L274.061 43.8438L275.596 39.0852C274.327 38.6759 273.017 38.3324 271.668 38.052L270.65 42.9473ZM274.061 43.8438L272.572 48.6171C273.491 48.9035 274.314 49.215 275.05 49.5459L277.102 44.9863L279.153 40.4267C278.014 39.9139 276.81 39.4637 275.549 39.0704L274.061 43.8438ZM277.102 44.9863L272.708 42.6005L270.264 47.1005L274.658 49.4863L279.052 51.8722L281.496 47.3722L277.102 44.9863ZM274.658 49.4863L276.67 44.9087C275.715 44.4893 274.713 44.1167 273.668 43.7868L272.162 48.5547L270.656 53.3226C271.393 53.5552 272.055 53.8037 272.647 54.0639L274.658 49.4863ZM272.162 48.5547L273.724 43.8051C272.659 43.4546 271.559 43.1579 270.427 42.9124L269.367 47.7988L268.307 52.6852C269.121 52.8616 269.884 53.0688 270.6 53.3043L272.162 48.5547ZM269.367 47.7988L270.427 42.9124C269.28 42.6637 268.104 42.473 266.902 42.3379L266.344 47.3066L265.785 52.2754C266.669 52.3747 267.509 52.5121 268.307 52.6852L269.367 47.7988ZM266.344 47.3066L266.964 42.3453C265.719 42.1897 264.457 42.1133 263.18 42.1133V47.1133V52.1133C264.058 52.1133 264.906 52.1658 265.724 52.268L266.344 47.3066ZM263.18 47.1133V42.1133C261.442 42.1133 259.777 42.2358 258.292 42.5677L259.383 47.4473L260.474 52.3268C260.981 52.2135 261.847 52.1133 263.18 52.1133V47.1133ZM259.383 47.4473L258.28 42.5705C257 42.8599 255.658 43.2994 254.455 44.0211L257.027 48.3086L259.6 52.5961C259.569 52.6145 259.614 52.5834 259.773 52.5255C259.929 52.4685 260.161 52.3976 260.486 52.3241L259.383 47.4473ZM257.027 48.3086L254.519 43.9834C253.422 44.6193 252.206 45.5973 251.398 47.0912L255.797 49.4688L260.195 51.8463C259.857 52.473 259.46 52.6775 259.536 52.6337L257.027 48.3086ZM255.797 49.4688L251.375 47.135C250.823 48.181 250.463 49.398 250.463 50.7344H255.463H260.463C260.463 51.227 260.326 51.6002 260.219 51.8025L255.797 49.4688ZM255.463 50.7344H250.463C250.463 53.3587 251.774 55.4743 253.664 56.8245L256.57 52.7559L259.477 48.6872C259.61 48.7822 259.888 49.0211 260.125 49.4527C260.371 49.902 260.463 50.3634 260.463 50.7344H255.463ZM256.57 52.7559L253.707 56.8551C255.683 58.2348 258.035 58.5293 259.945 58.5293V53.5293V48.5293C259.457 48.5293 259.188 48.486 259.085 48.4623C258.98 48.4382 259.15 48.4589 259.433 48.6566L256.57 52.7559ZM259.945 53.5293V58.5293C260.77 58.5293 261.646 58.4743 262.557 58.3792L262.037 53.4062L261.518 48.4333C260.858 48.5023 260.339 48.5293 259.945 48.5293V53.5293ZM262.037 53.4062L262.621 58.372C263.425 58.2774 264.264 58.177 265.137 58.0708L264.533 53.1074L263.93 48.144C263.068 48.2487 262.243 48.3476 261.453 48.4405L262.037 53.4062ZM264.533 53.1074L265.129 58.0718C265.959 57.9722 266.802 57.8834 267.658 57.8056L267.205 52.8262L266.752 47.8467C265.803 47.933 264.865 48.0317 263.937 48.143L264.533 53.1074ZM267.205 52.8262L267.715 57.8001C268.472 57.7224 269.186 57.6855 269.859 57.6855V52.6855V47.6855C268.822 47.6855 267.766 47.7424 266.695 47.8523L267.205 52.8262ZM269.859 52.6855V57.6855C271.114 57.6855 272.056 57.8279 272.745 58.0295L274.148 53.2305L275.552 48.4315C273.757 47.9065 271.839 47.6855 269.859 47.6855V52.6855ZM274.148 53.2305L272.757 58.033C273.502 58.2489 273.924 58.5004 274.158 58.6887L277.295 54.7949L280.432 50.9012C278.978 49.7301 277.302 48.9386 275.54 48.428L274.148 53.2305ZM277.295 54.7949L274.191 58.7152C274.422 58.8977 274.556 59.0779 274.653 59.2947L279.211 57.2383L283.768 55.1818C282.999 53.4768 281.855 52.0281 280.398 50.8747L277.295 54.7949ZM279.211 57.2383L274.663 59.3158C274.761 59.5307 274.861 59.8745 274.861 60.4375H279.861H284.861C284.861 58.6333 284.528 56.8443 283.759 55.1608L279.211 57.2383ZM279.861 60.4375H274.861C274.861 61.2083 274.692 61.7222 274.456 62.1193L278.754 64.6738L283.052 67.2284C284.293 65.1411 284.861 62.8308 284.861 60.4375H279.861ZM278.754 64.6738L274.448 62.1316C274.175 62.5949 273.732 63.0866 272.962 63.571L275.625 67.8027L278.288 72.0345C280.237 70.808 281.88 69.2137 283.059 67.2161L278.754 64.6738ZM275.625 67.8027L272.972 63.5648C272.186 64.0565 271.097 64.5187 269.603 64.8669L270.738 69.7363L271.873 74.6058C274.2 74.0633 276.368 73.2365 278.278 72.0407L275.625 67.8027ZM270.738 69.7363L269.631 64.8604C268.147 65.1973 266.399 65.3867 264.357 65.3867V70.3867V75.3867C267.003 75.3867 269.509 75.1425 271.845 74.6123L270.738 69.7363ZM264.357 70.3867V65.3867C263.026 65.3867 261.738 65.301 260.491 65.1328L259.822 70.0879L259.154 75.043C260.86 75.2732 262.595 75.3867 264.357 75.3867V70.3867ZM259.822 70.0879L260.452 65.1277C259.173 64.9653 257.963 64.7342 256.82 64.4386L255.568 69.2793L254.316 74.12C255.892 74.5276 257.519 74.8355 259.192 75.0481L259.822 70.0879ZM255.568 69.2793L256.87 64.4516C255.701 64.1365 254.598 63.7696 253.558 63.3537L251.701 67.9961L249.844 72.6385C251.265 73.207 252.741 73.6955 254.267 74.107L255.568 69.2793ZM251.701 67.9961L253.612 63.3755C252.572 62.9455 251.635 62.4872 250.795 62.0055L248.309 66.3438L245.823 70.682C247.068 71.3956 248.393 72.0389 249.791 72.6167L251.701 67.9961ZM248.309 66.3438L252.486 69.0909L255.457 64.5734L251.279 61.8262L247.102 59.079L244.131 63.5966L248.309 66.3438ZM288.475 53.1602H293.475C293.475 50.3987 291.236 48.1602 288.475 48.1602V53.1602ZM283.465 53.1602H278.465C278.465 55.9216 280.703 58.1602 283.465 58.1602V53.1602ZM283.465 49.2578V44.2578C280.703 44.2578 278.465 46.4964 278.465 49.2578H283.465ZM288.475 49.2578V54.2578C291.236 54.2578 293.475 52.0192 293.475 49.2578H288.475ZM288.475 42.8066V37.8066C285.713 37.8066 283.475 40.0452 283.475 42.8066H288.475ZM293.678 42.8066H298.678C298.678 40.0452 296.439 37.8066 293.678 37.8066V42.8066ZM293.678 49.2578H288.678C288.678 52.0192 290.916 54.2578 293.678 54.2578V49.2578ZM298.688 49.2578H303.688C303.688 46.4964 301.449 44.2578 298.688 44.2578V49.2578ZM298.688 53.1602V58.1602C301.449 58.1602 303.688 55.9216 303.688 53.1602H298.688ZM293.678 53.1602V48.1602C290.916 48.1602 288.678 50.3987 288.678 53.1602H293.678ZM293.678 70V75C296.439 75 298.678 72.7614 298.678 70H293.678ZM288.475 70H283.475C283.475 72.7614 285.713 75 288.475 75V70ZM288.475 53.1602V48.1602H283.465V53.1602V58.1602H288.475V53.1602ZM283.465 53.1602H288.465V49.2578H283.465H278.465V53.1602H283.465ZM283.465 49.2578V54.2578H288.475V49.2578V44.2578H283.465V49.2578ZM288.475 49.2578H293.475V42.8066H288.475H283.475V49.2578H288.475ZM288.475 42.8066V47.8066H293.678V42.8066V37.8066H288.475V42.8066ZM293.678 42.8066H288.678V49.2578H293.678H298.678V42.8066H293.678ZM293.678 49.2578V54.2578H298.688V49.2578V44.2578H293.678V49.2578ZM298.688 49.2578H293.688V53.1602H298.688H303.688V49.2578H298.688ZM298.688 53.1602V48.1602H293.678V53.1602V58.1602H298.688V53.1602ZM293.678 53.1602H288.678V70H293.678H298.678V53.1602H293.678ZM293.678 70V65H288.475V70V75H293.678V70ZM288.475 70H293.475V53.1602H288.475H283.475V70H288.475ZM304.928 58.627L307.727 62.7699C307.74 62.7613 307.752 62.7526 307.765 62.7439L304.928 58.627ZM308.162 57.2559L309.354 62.1117C309.364 62.1092 309.375 62.1066 309.385 62.104L308.162 57.2559ZM316.723 57.0449L316.062 62.0011L316.067 62.0018L316.723 57.0449ZM321.1 57.9062L319.851 62.7479C321.424 63.1535 323.097 62.7695 324.335 61.7183C325.574 60.6671 326.224 59.0797 326.08 57.4616L321.1 57.9062ZM320.502 56.0957L316.222 58.6813C316.23 58.6946 316.239 58.708 316.247 58.7212L320.502 56.0957ZM319.078 54.6543L316.249 58.7769C316.28 58.798 316.311 58.8187 316.342 58.8391L319.078 54.6543ZM316.898 53.7051L315.623 58.5396C315.628 58.541 315.634 58.5424 315.639 58.5439L316.898 53.7051ZM307.67 54.3203L306.296 49.5127C306.289 49.5146 306.283 49.5166 306.276 49.5186L307.67 54.3203ZM305.631 55.0762L300.942 56.8127C301.426 58.1205 302.435 59.1665 303.724 59.6983C305.013 60.2301 306.466 60.1994 307.731 59.6135L305.631 55.0762ZM304.049 50.8047L302.363 46.0976C301.106 46.5479 300.081 47.4824 299.517 48.6928C298.953 49.9033 298.896 51.289 299.36 52.5413L304.049 50.8047ZM306.562 50.0312L305.306 45.1918C305.3 45.1932 305.295 45.1945 305.29 45.1959L306.562 50.0312ZM309.322 49.4336L310.184 54.3587C310.204 54.3553 310.224 54.3517 310.244 54.348L309.322 49.4336ZM326.338 70V75C329.099 75 331.338 72.7614 331.338 70H326.338ZM321.135 70H316.135C316.135 72.7614 318.373 75 321.135 75V70ZM321.135 68.0488H326.135C326.135 66.2561 325.175 64.6006 323.619 63.7098C322.063 62.819 320.15 62.8293 318.604 63.7367L321.135 68.0488ZM319.359 68.9453L317.36 64.3626C317.349 64.3671 317.339 64.3717 317.329 64.3763L319.359 68.9453ZM314.859 70.1758L314.19 65.2208C314.165 65.2242 314.139 65.2278 314.114 65.2316L314.859 70.1758ZM307.863 69.8418L306.477 74.6459L306.49 74.6494L307.863 69.8418ZM302.941 66.2031L298.445 68.3891C298.457 68.4143 298.469 68.4393 298.482 68.4643L302.941 66.2031ZM308.074 64.2695L303.703 66.6977C303.717 66.7213 303.73 66.7448 303.743 66.7681L308.074 64.2695ZM308.918 65.0957L306.234 69.314C306.264 69.3336 306.295 69.3528 306.326 69.3717L308.918 65.0957ZM310.395 65.6758L309.16 70.5209C309.196 70.5302 309.233 70.5392 309.27 70.5477L310.395 65.6758ZM321.135 62.9688L324.562 66.6098C325.566 65.6649 326.135 64.3474 326.135 62.9688H321.135ZM321.135 62.0547H326.135C326.135 59.8115 324.641 57.8428 322.48 57.2391L321.135 62.0547ZM318.762 61.4922L317.795 66.3979C317.8 66.3988 317.805 66.3997 317.809 66.4006L318.762 61.4922ZM316.529 61.1406L315.868 66.0968C315.899 66.1008 315.929 66.1045 315.959 66.108L316.529 61.1406ZM314.525 60.9473L314.243 65.9393L314.248 65.9396L314.525 60.9473ZM308.9 61.6152L311.24 66.0342C311.273 66.0165 311.306 65.9984 311.339 65.98L308.9 61.6152ZM302.326 63.4609H307.326C307.326 63.2178 307.372 63.1207 307.397 63.0729L302.977 60.7363L298.556 58.3998C297.714 59.9926 297.326 61.7119 297.326 63.4609H302.326ZM302.977 60.7363L307.397 63.0729C307.4 63.0674 307.452 62.9556 307.727 62.7699L304.928 58.627L302.128 54.484C300.669 55.4702 299.42 56.7647 298.556 58.3998L302.977 60.7363ZM304.928 58.627L307.765 62.7439C308.022 62.5668 308.507 62.3197 309.354 62.1117L308.162 57.2559L306.97 52.4C305.239 52.8248 303.568 53.4918 302.09 54.51L304.928 58.627ZM308.162 57.2559L309.385 62.104C310.192 61.9005 311.277 61.7637 312.697 61.7637V56.7637V51.7637C310.672 51.7637 308.734 51.9549 306.939 52.4077L308.162 57.2559ZM312.697 56.7637V61.7637C313.731 61.7637 314.851 61.8396 316.062 62.0011L316.723 57.0449L317.383 52.0888C315.782 51.8752 314.218 51.7637 312.697 51.7637V56.7637ZM316.723 57.0449L316.067 62.0018C317.27 62.1608 318.531 62.4074 319.851 62.7479L321.1 57.9062L322.348 53.0646C320.669 52.6317 319.011 52.3041 317.378 52.0881L316.723 57.0449ZM321.1 57.9062L326.08 57.4616C325.953 56.0464 325.512 54.694 324.757 53.4702L320.502 56.0957L316.247 58.7212C316.215 58.6705 316.183 58.6045 316.158 58.5287C316.133 58.4533 316.123 58.3906 316.119 58.3509L321.1 57.9062ZM320.502 56.0957L324.782 53.5101C324.014 52.239 322.983 51.2337 321.814 50.4694L319.078 54.6543L316.342 58.8391C316.373 58.8594 316.364 58.8579 316.334 58.8273C316.302 58.7954 316.261 58.746 316.222 58.6813L320.502 56.0957ZM319.078 54.6543L321.907 50.5317C320.74 49.7306 319.455 49.2039 318.158 48.8663L316.898 53.7051L315.639 58.5439C316.053 58.6515 316.221 58.7577 316.249 58.7769L319.078 54.6543ZM316.898 53.7051L318.174 48.8706C316.83 48.5158 315.428 48.3711 314.016 48.3711V53.3711V58.3711C314.76 58.3711 315.279 58.449 315.623 58.5396L316.898 53.7051ZM314.016 53.3711V48.3711C313.234 48.3711 312.421 48.4178 311.585 48.5014L312.082 53.4766L312.58 58.4517C313.15 58.3947 313.625 58.3711 314.016 58.3711V53.3711ZM312.082 53.4766L311.585 48.5014C310.729 48.587 309.86 48.7137 308.981 48.8786L309.902 53.793L310.824 58.7073C311.444 58.591 312.029 58.5068 312.58 58.4517L312.082 53.4766ZM309.902 53.793L308.981 48.8786C308.078 49.048 307.183 49.2595 306.296 49.5127L307.67 54.3203L309.044 59.1279C309.634 58.9593 310.227 58.8192 310.824 58.7073L309.902 53.793ZM307.67 54.3203L306.276 49.5186C305.328 49.7939 304.41 50.1316 303.53 50.5388L305.631 55.0762L307.731 59.6135C308.117 59.4348 308.559 59.2686 309.064 59.122L307.67 54.3203ZM305.631 55.0762L310.32 53.3396L308.738 49.0681L304.049 50.8047L299.36 52.5413L300.942 56.8127L305.631 55.0762ZM304.049 50.8047L305.735 55.5118C306.371 55.284 307.07 55.068 307.835 54.8666L306.562 50.0312L305.29 45.1959C304.274 45.4633 303.297 45.7629 302.363 46.0976L304.049 50.8047ZM306.562 50.0312L307.819 54.8707C308.589 54.6709 309.377 54.5001 310.184 54.3587L309.322 49.4336L308.46 44.5084C307.393 44.6953 306.341 44.9229 305.306 45.1918L306.562 50.0312ZM309.322 49.4336L310.244 54.348C311.043 54.1982 311.839 54.0838 312.632 54.0045L312.135 49.0293L311.637 44.0541C310.556 44.1622 309.477 44.3175 308.401 44.5192L309.322 49.4336ZM312.135 49.0293L312.632 54.0045C313.416 53.9261 314.158 53.8887 314.859 53.8887V48.8887V43.8887C313.803 43.8887 312.728 43.945 311.637 44.0541L312.135 49.0293ZM314.859 48.8887V53.8887C317.952 53.8887 319.282 54.6728 319.888 55.3082L323.508 51.8594L327.128 48.4106C323.96 45.085 319.524 43.8887 314.859 43.8887V48.8887ZM323.508 51.8594L319.888 55.3082C320.535 55.9882 321.338 57.5345 321.338 60.9648H326.338H331.338C331.338 56.2155 330.254 51.6915 327.128 48.4106L323.508 51.8594ZM326.338 60.9648H321.338V70H326.338H331.338V60.9648H326.338ZM326.338 70V65H321.135V70V75H326.338V70ZM321.135 70H326.135V68.0488H321.135H316.135V70H321.135ZM321.135 68.0488L318.604 63.7367C318.256 63.9409 317.844 64.1513 317.36 64.3626L319.359 68.9453L321.359 73.528C322.164 73.1769 322.936 72.7895 323.666 72.3609L321.135 68.0488ZM319.359 68.9453L317.329 64.3763C316.941 64.5488 316.478 64.7165 315.931 64.8703L317.285 69.6836L318.639 74.4968C319.592 74.2288 320.513 73.9044 321.39 73.5144L319.359 68.9453ZM317.285 69.6836L315.931 64.8703C315.431 65.011 314.854 65.1311 314.19 65.2208L314.859 70.1758L315.529 75.1307C316.6 74.9861 317.639 74.7781 318.639 74.4968L317.285 69.6836ZM314.859 70.1758L314.114 65.2316C313.531 65.3195 312.873 65.3691 312.135 65.3691V70.3691V75.3691C313.318 75.3691 314.477 75.2898 315.604 75.12L314.859 70.1758ZM312.135 70.3691V65.3691C310.866 65.3691 309.921 65.2297 309.237 65.0342L307.863 69.8418L306.49 74.6494C308.266 75.157 310.169 75.3691 312.135 75.3691V70.3691ZM307.863 69.8418L309.249 65.0377C308.487 64.8179 308.055 64.572 307.823 64.3965L304.805 68.3828L301.786 72.3691C303.195 73.4358 304.802 74.1625 306.477 74.6459L307.863 69.8418ZM304.805 68.3828L307.823 64.3965C307.545 64.1858 307.445 64.0298 307.401 63.942L302.941 66.2031L298.482 68.4643C299.281 70.0405 300.424 71.3376 301.786 72.3691L304.805 68.3828ZM302.941 66.2031L307.438 64.0172C307.376 63.8882 307.326 63.7263 307.326 63.4609H302.326H297.326C297.326 65.1644 297.687 66.8306 298.445 68.3891L302.941 66.2031ZM307.811 63.2852H302.811C302.811 64.5301 303.143 65.6885 303.703 66.6977L308.074 64.2695L312.445 61.8413C312.654 62.2178 312.811 62.7199 312.811 63.2852H307.811ZM308.074 64.2695L303.743 66.7681C304.425 67.9494 305.367 68.7623 306.234 69.314L308.918 65.0957L311.602 60.8774C311.696 60.9369 312.075 61.1991 312.405 61.7709L308.074 64.2695ZM308.918 65.0957L306.326 69.3717C307.257 69.9354 308.245 70.2878 309.16 70.5209L310.395 65.6758L311.63 60.8307C311.5 60.7977 311.429 60.7721 311.405 60.7627C311.381 60.7531 311.423 60.7673 311.509 60.8197L308.918 65.0957ZM310.395 65.6758L309.27 70.5477C310.355 70.7981 311.486 70.8867 312.592 70.8867V65.8867V60.8867C311.987 60.8867 311.653 60.8347 311.519 60.8038L310.395 65.6758ZM312.592 65.8867V70.8867C313.806 70.8867 315.007 70.7776 316.188 70.5511L315.246 65.6406L314.304 60.7301C313.774 60.8318 313.205 60.8867 312.592 60.8867V65.8867ZM315.246 65.6406L316.188 70.5511C317.278 70.342 318.336 70.0576 319.351 69.687L317.637 64.9902L315.922 60.2934C315.461 60.4619 314.925 60.6111 314.304 60.7301L315.246 65.6406ZM317.637 64.9902L319.351 69.687C320.337 69.3271 321.285 68.8922 322.176 68.3683L319.641 64.0586L317.106 59.7489C316.801 59.9281 316.413 60.1143 315.922 60.2934L317.637 64.9902ZM319.641 64.0586L322.176 68.3683C323.014 67.8754 323.831 67.2974 324.562 66.6098L321.135 62.9688L317.708 59.3277C317.642 59.3901 317.463 59.5387 317.106 59.7489L319.641 64.0586ZM321.135 62.9688H326.135V62.0547H321.135H316.135V62.9688H321.135ZM321.135 62.0547L322.48 57.2391C321.558 56.9815 320.636 56.7626 319.714 56.5837L318.762 61.4922L317.809 66.4006C318.458 66.5265 319.118 66.6826 319.789 66.8702L321.135 62.0547ZM318.762 61.4922L319.728 56.5864C318.836 56.4107 317.959 56.2719 317.099 56.1732L316.529 61.1406L315.959 66.108C316.529 66.1735 317.141 66.269 317.795 66.3979L318.762 61.4922ZM316.529 61.1406L317.19 56.1845C316.374 56.0757 315.578 55.998 314.803 55.955L314.525 60.9473L314.248 65.9396C314.739 65.9668 315.278 66.018 315.868 66.0968L316.529 61.1406ZM314.525 60.9473L314.808 55.9553C314.121 55.9164 313.478 55.8945 312.891 55.8945V60.8945V65.8945C313.24 65.8945 313.688 65.9078 314.243 65.9393L314.525 60.9473ZM312.891 60.8945V55.8945C311.729 55.8945 310.565 55.9688 309.484 56.185L310.465 61.0879L311.445 65.9908C311.653 65.9492 312.106 65.8945 312.891 65.8945V60.8945ZM310.465 61.0879L309.484 56.185C308.533 56.3752 307.467 56.6885 306.461 57.2505L308.9 61.6152L311.339 65.98C311.279 66.0138 311.234 66.0346 311.21 66.0452C311.185 66.0558 311.176 66.0582 311.187 66.0545C311.198 66.0508 311.225 66.0424 311.269 66.0309C311.313 66.0195 311.371 66.0057 311.445 65.9908L310.465 61.0879ZM308.9 61.6152L306.561 57.1963C305.596 57.7071 304.464 58.5533 303.694 59.9281L308.057 62.3711L312.419 64.8141C311.977 65.6029 311.408 65.9452 311.24 66.0342L308.9 61.6152ZM308.057 62.3711L303.694 59.9281C303.139 60.9202 302.811 62.0607 302.811 63.2852H307.811H312.811C312.811 63.8768 312.647 64.408 312.419 64.8141L308.057 62.3711ZM333.229 49.2578V44.2578C330.467 44.2578 328.229 46.4964 328.229 49.2578H333.229ZM338.432 49.2578H343.432C343.432 46.4964 341.193 44.2578 338.432 44.2578V49.2578ZM338.432 52.2461H333.432C333.432 54.137 334.498 55.8662 336.188 56.7146C337.878 57.563 339.902 57.3855 341.419 56.2559L338.432 52.2461ZM345.885 48.6074L350.645 47.0791C349.835 44.5551 347.196 43.1022 344.63 43.7674L345.885 48.6074ZM347.414 53.3711L347.909 58.3466C349.412 58.1972 350.767 57.3764 351.595 56.1134C352.423 54.8505 352.636 53.2808 352.175 51.8428L347.414 53.3711ZM342.123 54.7246L344.203 59.2716C344.208 59.2692 344.213 59.2668 344.218 59.2644L342.123 54.7246ZM338.432 57.6602L334.432 54.6602C333.783 55.5256 333.432 56.5783 333.432 57.6602H338.432ZM338.432 70V75C341.193 75 343.432 72.7614 343.432 70H338.432ZM333.229 70H328.229C328.229 72.7614 330.467 75 333.229 75V70ZM333.229 49.2578V54.2578H338.432V49.2578V44.2578H333.229V49.2578ZM338.432 49.2578H333.432V52.2461H338.432H343.432V49.2578H338.432ZM338.432 52.2461L341.419 56.2559C342.318 55.5858 343.263 55.011 344.257 54.5279L342.07 50.0312L339.884 45.5346C338.323 46.2937 336.842 47.1954 335.445 48.2363L338.432 52.2461ZM342.07 50.0312L344.257 54.5279C345.261 54.0395 346.221 53.6855 347.14 53.4474L345.885 48.6074L344.63 43.7674C343.017 44.1856 341.434 44.7808 339.884 45.5346L342.07 50.0312ZM345.885 48.6074L341.124 50.1358L342.653 54.8994L347.414 53.3711L352.175 51.8428L350.645 47.0791L345.885 48.6074ZM347.414 53.3711L346.919 48.3956C344.469 48.6392 342.146 49.207 340.028 50.1848L342.123 54.7246L344.218 59.2644C345.147 58.836 346.351 58.5014 347.909 58.3466L347.414 53.3711ZM342.123 54.7246L340.043 50.1776C337.812 51.198 335.907 52.6924 334.432 54.6602L338.432 57.6602L342.432 60.6602C342.854 60.0967 343.41 59.634 344.203 59.2716L342.123 54.7246ZM338.432 57.6602H333.432V70H338.432H343.432V57.6602H338.432ZM338.432 70V65H333.229V70V75H338.432V70ZM333.229 70H338.229V49.2578H333.229H328.229V70H333.229ZM354.428 53.1602H359.428C359.428 50.3987 357.189 48.1602 354.428 48.1602V53.1602ZM349.418 53.1602H344.418C344.418 55.9216 346.657 58.1602 349.418 58.1602V53.1602ZM349.418 49.2578V44.2578C346.657 44.2578 344.418 46.4964 344.418 49.2578H349.418ZM354.428 49.2578V54.2578C357.189 54.2578 359.428 52.0192 359.428 49.2578H354.428ZM354.428 42.8066V37.8066C351.666 37.8066 349.428 40.0452 349.428 42.8066H354.428ZM359.631 42.8066H364.631C364.631 40.0452 362.392 37.8066 359.631 37.8066V42.8066ZM359.631 49.2578H354.631C354.631 52.0192 356.869 54.2578 359.631 54.2578V49.2578ZM364.641 49.2578H369.641C369.641 46.4964 367.402 44.2578 364.641 44.2578V49.2578ZM364.641 53.1602V58.1602C367.402 58.1602 369.641 55.9216 369.641 53.1602H364.641ZM359.631 53.1602V48.1602C356.869 48.1602 354.631 50.3987 354.631 53.1602H359.631ZM359.631 70V75C362.392 75 364.631 72.7614 364.631 70H359.631ZM354.428 70H349.428C349.428 72.7614 351.666 75 354.428 75V70ZM354.428 53.1602V48.1602H349.418V53.1602V58.1602H354.428V53.1602ZM349.418 53.1602H354.418V49.2578H349.418H344.418V53.1602H349.418ZM349.418 49.2578V54.2578H354.428V49.2578V44.2578H349.418V49.2578ZM354.428 49.2578H359.428V42.8066H354.428H349.428V49.2578H354.428ZM354.428 42.8066V47.8066H359.631V42.8066V37.8066H354.428V42.8066ZM359.631 42.8066H354.631V49.2578H359.631H364.631V42.8066H359.631ZM359.631 49.2578V54.2578H364.641V49.2578V44.2578H359.631V49.2578ZM364.641 49.2578H359.641V53.1602H364.641H369.641V49.2578H364.641ZM364.641 53.1602V48.1602H359.631V53.1602V58.1602H364.641V53.1602ZM359.631 53.1602H354.631V70H359.631H364.631V53.1602H359.631ZM359.631 70V65H354.428V70V75H359.631V70ZM354.428 70H359.428V53.1602H354.428H349.428V70H354.428Z" fill="black" mask="url(#path-3-outside-1_31_987)"/>
</svg>
