<svg width="565" height="187" viewBox="0 0 565 187" fill="none" xmlns="http://www.w3.org/2000/svg">
<path d="M67.512 17.92V23.968H55.024V26.264L68.632 33.32L65.44 39.032L50.768 31.64L35.704 39.816L31.952 34.104L46.232 26.32V23.968H33.632V17.92H46.064V12.88H55.192V17.92H67.512ZM79.216 37.576L71.376 39.648V15.12H79.216V22.4H86.72V29.456H79.216V37.576ZM36.32 59.136V41.552H79.048V59.136H36.32ZM71.208 53.256V47.432H44.16V53.256H71.208ZM138.576 56.672L130.848 59.304V46.816H124.184V39.144H130.848V29.456H124.184V21.784H130.848V15.12H138.576V56.672ZM123.008 33.264V37.352C123.008 47.824 117.296 53.928 106.656 53.928H105.592C94.896 53.928 89.184 47.432 89.184 36.792V33.264C89.184 22.792 94.84 16.128 105.536 16.128H106.712C117.352 16.128 123.008 22.792 123.008 33.264ZM115.28 36.344V33.712C115.28 25.424 111.416 22.4 106.488 22.4H105.704C100.944 22.4 96.912 25.256 96.912 33.712V36.344C96.912 44.632 100.776 47.544 105.704 47.544H106.488C111.584 47.544 115.28 44.632 115.28 36.344ZM161.047 28V27.496C161.047 19.32 167.263 14.224 177.623 14.224H179.079C189.271 14.224 195.599 19.544 195.599 27.496V28C195.599 36.512 189.103 41.272 179.079 41.272H177.623C167.599 41.272 161.047 36.512 161.047 28ZM209.711 45.024L201.871 47.096V15.12H209.711V45.024ZM168.887 27.44V28.056C168.887 32.48 172.415 35.168 177.735 35.168H178.967C183.951 35.168 187.759 32.48 187.759 28.056V27.44C187.759 23.016 184.623 20.328 178.967 20.328H177.735C172.415 20.328 168.887 23.016 168.887 27.44ZM166.815 58.744V44.184H175.215V52.808H210.663V58.688L166.815 58.744ZM262.911 15.232V21.28H247.175V22.176L264.647 26.32L263.191 32.48L242.975 27.72L222.871 32.984L221.023 26.656L238.663 22.176V21.28H222.591V15.232H262.911ZM217.719 40.264V34.384H267.559V40.264H217.719ZM221.079 51.296C221.079 46.144 223.711 42.448 241.127 42.448H244.599C261.847 42.448 264.591 46.312 264.591 51.296C264.591 56.448 261.679 60.144 244.599 60.144H241.127C224.047 60.144 221.079 56.448 221.079 51.296ZM229.199 51.296C229.199 53.032 231.719 53.872 241.743 53.872H243.983C253.503 53.872 256.471 53.088 256.471 51.296C256.471 49.56 254.343 48.72 243.983 48.72H241.743C231.887 48.72 229.199 49.56 229.199 51.296ZM307.263 20.608V26.992H272.095V20.608H285.367V13.44H294.439V20.608H307.263ZM326.415 31.472V38.528H318.911V56.672L311.183 59.304V15.12H318.911V31.472H326.415ZM305.247 41.608C305.247 49.168 299.983 54.488 289.847 54.488H289.567C279.375 54.488 274.111 49.224 274.111 41.608C274.111 34.328 279.375 28.728 289.567 28.728H289.847C299.983 28.728 305.247 34.16 305.247 41.608ZM297.519 41.608C297.519 37.184 294.775 34.776 289.679 34.776C284.751 34.776 281.839 37.184 281.839 41.608C281.839 46.032 284.583 48.328 289.679 48.328C294.943 48.328 297.519 46.032 297.519 41.608ZM371.943 44.464H364.495L366.903 22.568H334.143V16.688H375.079L371.943 44.464ZM329.831 56.392V50.456H346.519V31.584H354.359V50.456H379.559V56.392H329.831Z" fill="black"/>
<rect x="4.45898" y="76.6055" width="561" height="81" rx="40.5" transform="rotate(2.95265 4.45898 76.6055)" fill="#FFF2AF"/>
<rect x="2" y="91" width="561" height="81" rx="40.5" fill="#FFEC8E"/>
<path d="M87.72 119.528V126.584H80.216V135.936L72.376 138.008V134.592L49.696 137.112H35.808V120.648H57.48V116.448H35.808V110.68H65.32V126.248H43.76V131.064H51.208L72.376 128.768V110.12H80.216V119.528H87.72ZM80.384 154.472H72.544V145.792H35.864V139.912H80.384V154.472ZM104.24 136.16H103.568C95.56 136.16 89.568 131.288 89.568 123V122.272C89.568 114.152 95.56 109.112 103.568 109.112H104.296C112.248 109.112 118.24 114.152 118.24 122.272V123C118.24 131.288 112.248 136.16 104.24 136.16ZM141.144 139.408L133.584 141.592V127.144H128.208V139.52L120.648 141.592V110.12H128.208V120.536H133.584V110.12H141.144V139.408ZM103.68 129.776H104.128C107.88 129.776 110.512 127.256 110.512 122.832V122.44C110.512 118.016 107.88 115.384 104.128 115.384H103.68C99.928 115.384 97.296 117.848 97.296 122.44V122.832C97.296 127.256 99.928 129.776 103.68 129.776ZM98.472 153.688V139.52H106.872V147.808H142.32V153.688H98.472ZM199.72 119.528V126.584H192.216V135.936L184.376 138.008V134.592L161.696 137.112H147.808V120.648H169.48V116.448H147.808V110.68H177.32V126.248H155.76V131.064H163.208L184.376 128.768V110.12H192.216V119.528H199.72ZM192.384 154.472H184.544V145.792H147.864V139.912H192.384V154.472ZM218.831 151.56V145.624H239.551V136.608H222.975V111.632H264.415V117.512H230.815V130.728H264.583V136.608H247.951V145.624H268.559V151.56H218.831ZM322.711 151.672L314.983 154.304V110.12H322.711V151.672ZM292.303 131.848L279.031 147.976L273.039 143.384L287.935 125.128V111.408H296.447V124.848L311.455 142.824L305.911 147.528L292.303 131.848ZM383.415 119.528V126.584H375.911V135.936L368.071 138.008V134.592L345.391 137.112H331.503V120.648H353.175V116.448H331.503V110.68H361.015V126.248H339.455V131.064H346.903L368.071 128.768V110.12H375.911V119.528H383.415ZM376.079 154.472H368.239V145.792H331.559V139.912H376.079V154.472ZM455.111 118.296V125.352H447.607V132.744L439.767 134.816V110.12H447.607V118.296H455.111ZM433.943 133.136H402.583V110.624H410.311V116.84H426.215V110.624H433.943V133.136ZM410.311 127.256H426.215V122.328H410.311V127.256ZM404.991 154.136V136.888H447.719V142.768H412.831V148.256H447.887V154.136H404.991ZM511.111 126.472V133.528H503.607V151.672L495.879 154.304V110.12H503.607V126.472H511.111ZM490.951 112.36V118.408H478.575V128.544L492.463 143.216L487.535 147.976L474.487 134.592L461.551 148.928L456.063 144.224L470.175 128.768V118.408H457.743V112.36H490.951ZM517.103 109.448H527.015L525.335 138.176H518.783L517.103 109.448ZM517.663 153.408V145.008H526.455V153.408H517.663Z" fill="black"/>
</svg>
