<svg width="345" height="97" viewBox="0 0 345 97" fill="none" xmlns="http://www.w3.org/2000/svg">
<rect x="6.53516" width="340" height="60" rx="14" transform="rotate(6.25274 6.53516 0)" fill="#BDE1F6"/>
<rect x="2" y="20" width="340" height="60" rx="14" fill="#93CFF2"/>
<path d="M24.728 50.12C24.728 55.208 25.88 57.64 31.864 57.64C34.68 57.64 37.432 57.384 39.992 56.936V52.264H32.312L31.064 48.456H44.408V59.848C40.696 60.712 36.312 61.288 31.48 61.32C22.264 61.384 20.28 56.552 20.28 50.12C20.28 43.688 22.296 39.048 31.64 39.048C36.056 39.048 40.92 39.688 44.248 40.392L43.064 43.944C40.12 43.272 35.448 42.696 31.864 42.696C26.296 42.696 24.728 45.032 24.728 50.12ZM60.9953 61.16H59.4273C52.9633 61.16 47.9713 57.96 47.9713 52.52V51.784C47.9713 46.344 52.9633 43.144 59.4273 43.144H60.9953C67.4593 43.144 72.4193 46.344 72.4193 51.784V52.52C72.4193 57.96 67.4593 61.16 60.9953 61.16ZM59.3313 57.512H61.0913C64.8353 57.512 68.0033 55.56 68.0033 52.52V51.784C68.0033 48.744 64.8353 46.792 61.0913 46.792H59.3313C55.5553 46.792 52.3873 48.744 52.3873 51.784V52.52C52.3873 55.56 55.5553 57.512 59.3313 57.512ZM88.3703 61.16H86.8023C80.3383 61.16 75.3463 57.96 75.3463 52.52V51.784C75.3463 46.344 80.3383 43.144 86.8023 43.144H88.3703C94.8343 43.144 99.7943 46.344 99.7943 51.784V52.52C99.7943 57.96 94.8343 61.16 88.3703 61.16ZM86.7063 57.512H88.4663C92.2103 57.512 95.3783 55.56 95.3783 52.52V51.784C95.3783 48.744 92.2103 46.792 88.4663 46.792H86.7063C82.9303 46.792 79.7623 48.744 79.7623 51.784V52.52C79.7623 55.56 82.9303 57.512 86.7063 57.512ZM126.305 61H121.953V58.44C119.745 60.168 117.121 61.16 114.177 61.16H113.377C106.913 61.16 102.721 58.216 102.721 52.776V51.624C102.721 46.184 106.913 43.24 113.377 43.24H114.177C117.761 43.24 120.417 44.424 121.953 46.248V37.544H126.305V61ZM107.105 51.656V52.744C107.105 55.784 109.505 57.544 113.281 57.544H114.177C117.665 57.544 119.553 56.712 121.953 54.344V50.536C120.257 48.36 117.441 46.856 114.177 46.856H113.281C109.505 46.856 107.105 48.616 107.105 51.656ZM143.787 43.4H148.555L153.707 56.264L158.763 43.4H163.243L155.531 61.16H151.947L146.155 47.976L140.555 61.16H136.971L129.035 43.4H133.579L138.731 56.264L143.787 43.4ZM166.126 41.416V36.616H171.086V41.416H166.126ZM166.542 47.88H164.206V44.392H170.926V61H166.542V47.88ZM176.635 41.064H174.299V37.576H181.019V61H176.635V41.064ZM186.729 41.064H184.393V37.576H191.113V61H186.729V41.064ZM217.792 52.008L214.624 51.688C207.168 51.016 204.608 49.096 204.608 45.096C204.608 41.128 207.072 38.728 215.808 38.728C220.224 38.728 224.608 39.368 227.936 40.072L226.784 43.688C223.84 43.016 219.616 42.44 215.52 42.44C210.496 42.44 209.056 43.24 209.056 45.096C209.056 46.792 210.176 47.4 215.328 47.912L218.272 48.168C226.016 48.936 228.576 50.856 228.576 54.824C228.576 58.824 226.24 61.352 216.896 61.352C212.48 61.352 207.616 60.712 204.288 60.04L205.44 56.392C208.384 57.096 213.056 57.64 217.184 57.64C222.336 57.64 224.096 56.776 224.096 54.984C224.096 53.224 222.816 52.52 217.792 52.008ZM235.531 55.944V48.008H231.179V44.36H235.531V39.208H239.915V44.36H248.395V48.008H239.915V55.4C239.915 56.968 240.587 57.576 242.731 57.576C245.003 57.576 246.923 57.224 249.227 56.584L248.267 60.328C245.963 60.84 244.267 61.096 241.419 61.096C237.451 61.096 235.531 59.4 235.531 55.944ZM264.058 61.16H262.49C256.026 61.16 251.034 57.96 251.034 52.52V51.784C251.034 46.344 256.026 43.144 262.49 43.144H264.058C270.522 43.144 275.482 46.344 275.482 51.784V52.52C275.482 57.96 270.522 61.16 264.058 61.16ZM262.394 57.512H264.154C267.898 57.512 271.066 55.56 271.066 52.52V51.784C271.066 48.744 267.898 46.792 264.154 46.792H262.394C258.618 46.792 255.45 48.744 255.45 51.784V52.52C255.45 55.56 258.618 57.512 262.394 57.512ZM283.881 51.144V61H279.529V43.4H283.881V46.568C285.609 44.424 287.753 43.24 291.337 43.24H291.817C294.025 43.24 296.041 43.496 298.281 44.232L297.161 47.656C295.305 47.016 293.673 46.856 291.817 46.888H291.337C288.073 46.888 285.513 48.552 283.881 51.144ZM305.258 50.696H318.57C318.57 47.656 317.322 46.856 313.162 46.856H310.25C306.218 46.856 304.106 48.584 304.106 51.624V53.096C304.106 56.136 306.218 57.896 310.25 57.896H312.266C315.85 57.896 319.05 57.448 321.866 56.584L323.018 60.168C320.074 61 316.394 61.48 312.266 61.48H310.346C303.882 61.48 299.69 58.536 299.69 53.096V51.624C299.69 46.184 303.882 43.24 310.346 43.24H312.938C319.402 43.24 322.954 45.352 322.954 50.792V54.28H306.506L305.258 50.696Z" fill="white"/>
</svg>
