<svg width="60" height="60" viewBox="0 0 60 60" fill="none" xmlns="http://www.w3.org/2000/svg">
<circle cx="30" cy="30" r="29" fill="white" stroke="black" stroke-width="2"/>
<path d="M35.42 19.4201C35.235 19.2347 35.0152 19.0876 34.7733 18.9872C34.5313 18.8869 34.2719 18.8352 34.01 18.8352C33.7481 18.8352 33.4887 18.8869 33.2468 18.9872C33.0048 19.0876 32.785 19.2347 32.6 19.4201L23.42 28.6001C23.2346 28.7851 23.0875 29.0049 22.9871 29.2468C22.8868 29.4888 22.8351 29.7482 22.8351 30.0101C22.8351 30.272 22.8868 30.5314 22.9871 30.7733C23.0875 31.0153 23.2346 31.2351 23.42 31.4201L32.6 40.6001C32.7852 40.7853 33.005 40.9321 33.2469 41.0323C33.4888 41.1326 33.7481 41.1841 34.01 41.1841C34.2719 41.1841 34.5312 41.1326 34.7731 41.0323C35.015 40.9321 35.2348 40.7853 35.42 40.6001C35.6052 40.4149 35.752 40.1951 35.8523 39.9532C35.9525 39.7113 36.004 39.452 36.004 39.1901C36.004 38.9282 35.9525 38.6689 35.8523 38.427C35.752 38.1851 35.6052 37.9653 35.42 37.7801L27.66 30.0001L35.42 22.2401C36.2 21.4601 36.18 20.1801 35.42 19.4201Z" fill="black"/>
</svg>
