<svg width="285" height="96" viewBox="0 0 285 96" fill="none" xmlns="http://www.w3.org/2000/svg">
<path d="M27.564 7.876V10.9H21.152V12.272L28.124 16.304L26.276 18.992L19.024 14.988L11.576 19.44L9.476 16.724L16.756 12.328V10.9H10.316V7.876H16.672V5.44H21.236V7.876H27.564ZM34.788 19.552L30.868 20.588V14.764H27.228V11.376H30.868V6.56H34.788V19.552ZM23.644 24.592L13.256 28.96L11.94 25.768L21.46 21.652V19.664H25.716V21.624L35.32 25.32L34.144 28.568L23.644 24.592ZM70.0757 27.336L66.2117 28.652V6.56H70.0757V27.336ZM62.5717 7.68L59.8837 25.908H55.9917L58.3717 10.62H45.9957V7.68H62.5717ZM97.6557 18.18H76.3477V6.7H80.2117V9.808H93.7917V6.7H97.6557V18.18ZM80.2117 15.24H93.7917V12.72H80.2117V15.24ZM88.8637 28.624H84.6637V23.136H74.4157V20.168H99.2797V23.136H88.8637V28.624ZM128.708 14.736V18.264H124.956V27.336L121.092 28.652V6.56H124.956V14.736H128.708ZM118.628 7.68V10.704H112.44V15.772L119.384 23.108L116.92 25.488L110.396 18.796L103.928 25.964L101.184 23.612L108.24 15.884V10.704H102.024V7.68H118.628ZM149.4 27.308L145.62 28.624V17.732H143.492C143.296 22.604 141.364 25.348 136.744 25.348H136.38C131.452 25.348 129.576 22.072 129.576 16.584V15.66C129.576 10.256 131.452 6.896 136.38 6.896H136.744C141.14 6.896 143.1 9.612 143.464 14.064H145.62V6.56H149.4V27.308ZM155.42 27.308L151.64 28.624V6.56H155.42V27.308ZM139.656 16.36V15.884C139.656 11.908 138.704 10.032 136.66 10.032H136.436C134.392 10.032 133.44 11.824 133.44 15.884V16.36C133.44 20.336 134.392 22.156 136.436 22.156H136.66C138.788 22.156 139.656 20.336 139.656 16.36ZM176.98 27.308L173.2 28.624V18.012H169.084L167.852 25.908H164.044L166.592 10.62H157.968V7.68H170.736L169.644 14.568H173.2V6.56H176.98V27.308ZM183.532 27.308L179.752 28.624V6.56H183.532V27.308ZM196.391 20.112V7.316H217.027V10.256H200.311V17.172H217.111V20.112H196.391ZM194.263 27.28V24.312H219.127V27.28H194.263ZM245.923 27.336L242.059 28.652V23.388L229.879 25.404H222.879V14.624H233.715V10.284H222.879V7.344H237.579V17.536H226.799V22.324H229.907L242.059 20.336V6.56H245.923V27.336ZM252.419 14.176V6.028H256.619V11.236H273.167V14.176H252.419ZM250.263 19.328V16.388H275.127V19.328H250.263ZM252.251 28.344V21.4H256.451V25.404H273.447V28.344H252.251Z" fill="black"/>
<rect y="40.8567" width="152.344" height="47.6074" rx="9.52148" fill="#1C7CED"/>
<rect x="138.538" y="48.522" width="142.822" height="47.6074" rx="9.52148" transform="rotate(-4.22486 138.538 48.522)" fill="#1C7CED"/>
<path d="M23.988 67.58H19.788V65.256H9.512V62.316H27.04L27.964 57.528H11.5V54.588H32.136L30.652 62.316H34.432V65.256H23.988V67.58ZM21.916 72.788L11.584 76.96L10.212 73.768L19.62 70.016V68.308H24.156V69.932L33.732 73.348L32.528 76.456L21.916 72.788ZM38.1 57.836C38.1 55.344 40.62 53.944 46.388 53.944H47.228C52.996 53.944 55.488 55.428 55.488 57.836C55.488 60.328 52.828 61.672 47.228 61.672H46.388C40.788 61.672 38.1 60.328 38.1 57.836ZM61.816 66.124L57.868 67.44V64.22L52.044 65.424H48.124V66.964H43.952V65.424H37.008V62.624H51.82L57.868 61.364V54.56H61.816V66.124ZM42.02 57.836C42.02 58.536 42.944 58.956 46.612 58.956H47.004C50.42 58.956 51.568 58.564 51.568 57.836C51.568 57.136 50.84 56.716 47.004 56.716H46.612C43.028 56.716 42.02 57.136 42.02 57.836ZM40.872 71.052H57.812V70.156H40.872V67.72H61.732V73.18H44.792V74.104H62.656V76.54H40.872V71.052ZM78.084 61.952L69.124 69.092L66.66 66.348L75.76 59.068V54.924H80.296V59.012L89.452 66.012L87.436 68.728L78.084 61.952ZM65.568 75.28V72.312H90.432V75.28H65.568ZM93.568 75.28V72.312H103.928V69.092H95.472V55.288H116.416V58.2H99.336V60.776H116.416V63.66H99.336V66.152H116.976V69.092H108.128V72.312H118.432V75.28H93.568ZM145.788 75.336L141.924 76.652V66.18H138.256C138.088 71.108 135.092 73.964 129.884 73.964H129.52C124.088 73.964 121.092 70.716 121.092 65.396V63.632C121.092 58.396 124.088 55.064 129.52 55.064H129.884C134.868 55.064 137.808 57.92 138.228 62.484H141.924V54.56H145.788V75.336ZM134.42 65.172V63.856C134.42 59.88 132.432 58.2 129.8 58.2H129.576C127.028 58.2 124.956 59.796 124.956 63.856V65.172C124.956 69.148 126.944 70.772 129.576 70.772H129.8C132.516 70.772 134.42 69.148 134.42 65.172ZM174.412 56.324V59.264H170.94C172.536 60.16 173.208 61.504 173.292 62.988V63.156C173.292 66.404 170.912 69.064 165.48 69.064C159.88 69.064 157.668 66.32 157.668 63.156V62.988C157.752 61.504 158.368 60.132 159.964 59.264H156.52V56.324H163.184V53.44H167.72V56.324H174.412ZM183.708 60.076V63.604H179.956V69.54L176.036 70.576V54.56H179.956V60.076H183.708ZM161.588 63.072C161.588 64.864 163.128 66.068 165.48 66.068C167.832 66.068 169.372 64.892 169.372 63.072C169.372 61.196 167.888 60.076 165.48 60.076C163.072 60.076 161.588 61.196 161.588 63.072ZM158.508 76.344V70.044H162.708V73.404H180.432V76.344H158.508ZM209.636 66.488L205.716 67.524V62.064H201.348V58.676H205.716V54.532H209.636V66.488ZM201.936 54.812V57.836H195.944V59.6L203 64.108L200.956 66.88L193.844 62.484L186.648 67.384L184.352 64.528L191.576 59.712V57.836H185.388V54.812H201.936ZM187.32 72.396V72.172C187.32 69.344 189.952 67.524 197.988 67.524H198.884C206.836 67.524 209.524 69.372 209.524 72.172V72.396C209.524 75.308 206.752 77.044 198.884 77.044H197.988C190.12 77.044 187.32 75.308 187.32 72.396ZM191.38 72.284C191.38 73.656 193.592 73.908 198.016 73.908H198.856C203.028 73.908 205.464 73.684 205.464 72.284C205.464 70.912 203.448 70.66 198.856 70.66H198.016C193.676 70.66 191.38 70.912 191.38 72.284ZM245.203 75.336L241.339 76.652V54.56H245.203V75.336ZM238.007 55.68L235.599 73.908H231.763L232.855 65.844L221.599 67.748L221.039 64.416L233.331 62.428L233.863 58.62H221.907V55.68H238.007ZM272.923 67.244L269.003 68.28V66.18L257.383 67.272H249.879V59.516H260.967V57.668H249.879V54.84H264.831V62.204H253.799V64.304H257.999L269.003 63.352V54.56H272.923V67.244ZM251.223 72.816V72.592C251.223 69.764 253.855 68.336 261.891 68.336H262.787C270.739 68.336 273.427 69.876 273.427 72.592V72.816C273.427 75.644 270.655 77.072 262.787 77.072H261.891C254.023 77.072 251.223 75.644 251.223 72.816ZM255.283 72.704C255.283 73.908 257.495 74.02 261.919 74.02H262.759C266.931 74.02 269.367 73.936 269.367 72.704C269.367 71.5 267.351 71.388 262.759 71.388H261.919C257.579 71.388 255.283 71.5 255.283 72.704Z" fill="white"/>
</svg>
