<svg width="63" height="37" viewBox="0 0 63 37" fill="none" xmlns="http://www.w3.org/2000/svg">
<circle cx="17" cy="19" r="17" fill="black"/>
<circle cx="46" cy="19" r="17" fill="black"/>
<circle cx="17" cy="19" r="16" fill="#4EAF85"/>
<path d="M5.26 18.592C5.26 12.964 7.696 8.82 15.872 8.82H17.72C25.896 8.82 28.332 12.964 28.332 18.592C28.332 22.064 27.408 24.948 24.776 26.656L28.528 30.464H23.628L21.22 28.028C20.184 28.224 19.036 28.336 17.72 28.336H15.872C7.696 28.336 5.26 24.22 5.26 18.592ZM24.412 18.592C24.412 14.14 22.48 12.124 17.608 12.124H15.984C11.112 12.124 9.18 14.14 9.18 18.592C9.18 23.044 11.112 25.032 15.984 25.032H18.252L14.22 20.944H19.148L22.172 24.024C23.712 23.016 24.412 21.224 24.412 18.592Z" fill="black"/>
<circle cx="46" cy="19" r="16" fill="#FFF2AF"/>
<path d="M45.188 29.28V13.404L39.756 15.252V11.864L45.3 9.932H49.136V29.28H45.188Z" fill="black"/>
</svg>
