<svg width="1920" height="1080" viewBox="0 0 1920 1080" fill="none" xmlns="http://www.w3.org/2000/svg">
<mask id="mask0_480_2050" style="mask-type:alpha" maskUnits="userSpaceOnUse" x="0" y="0" width="1920" height="1080">
<rect width="1920" height="1080" fill="#FFFDF5"/>
</mask>
<g mask="url(#mask0_480_2050)">
<rect width="1920" height="1080" fill="#FFFDF5"/>
<rect opacity="0.6" x="159.121" y="378.238" width="61.1034" height="49.5572" transform="rotate(103.106 159.121 378.238)"/>
<g opacity="0.6">
<circle cx="295.23" cy="809.243" r="33.75" transform="rotate(67.8471 295.23 809.243)" fill="#FFF2AF"/>
<circle cx="276.696" cy="853.227" r="33.75" transform="rotate(67.8471 276.696 853.227)" fill="#FFF2AF"/>
<circle cx="232.712" cy="834.696" r="33.75" transform="rotate(67.8471 232.712 834.696)" fill="#FFF2AF"/>
<circle cx="251.243" cy="790.712" r="33.75" transform="rotate(67.8471 251.243 790.712)" fill="#FFF2AF"/>
</g>
<circle cx="1668.79" cy="260.884" r="25.0001" transform="rotate(-65 1668.79 260.884)" fill="#FFF2AF"/>
<circle cx="1702.01" cy="248.791" r="25.0001" transform="rotate(-65 1702.01 248.791)" fill="#FFF2AF"/>
<circle cx="1714.1" cy="282.013" r="25.0001" transform="rotate(-65 1714.1 282.013)" fill="#FFF2AF"/>
<circle cx="1680.88" cy="294.107" r="25.0001" transform="rotate(-65 1680.88 294.107)" fill="#FFF2AF"/>
<g opacity="0.8">
<circle cx="1319.16" cy="1036.16" r="20" fill="#FFF2AF"/>
<circle cx="1339.16" cy="1056.16" r="20" fill="#FFF2AF"/>
<circle cx="1319.16" cy="1076.16" r="20" fill="#FFF2AF"/>
<circle cx="1299.16" cy="1056.16" r="20" fill="#FFF2AF"/>
</g>
<rect opacity="0.7" x="1920" y="643.379" width="35.4935" height="45.2172" transform="rotate(180 1920 643.379)"/>
</g>
</svg>
