<svg width="598" height="179" viewBox="0 0 598 179" fill="none" xmlns="http://www.w3.org/2000/svg">
<path d="M61.128 14.752V20.8H48.304V23.544L62.248 31.608L58.552 36.984L44.048 28.976L29.152 37.88L24.952 32.448L39.512 23.656V20.8H26.632V14.752H39.344V9.88H48.472V14.752H61.128ZM75.576 38.104L67.736 40.176V28.528H60.456V21.752H67.736V12.12H75.576V38.104ZM53.288 48.184L32.512 56.92L29.88 50.536L48.92 42.304V38.328H57.432V42.248L76.64 49.64L74.288 56.136L53.288 48.184ZM146.151 53.672L138.423 56.304V12.12H146.151V53.672ZM131.143 14.36L125.767 50.816H117.983L122.743 20.24H97.9913V14.36H131.143ZM201.311 35.36H158.695V12.4H166.423V18.616H193.583V12.4H201.311V35.36ZM166.423 29.48H193.583V24.44H166.423V29.48ZM183.727 56.248H175.327V45.272H154.831V39.336H204.559V45.272H183.727V56.248ZM263.415 28.472V35.528H255.911V53.672L248.183 56.304V12.12H255.911V28.472H263.415ZM243.255 14.36V20.408H230.879V30.544L244.767 45.216L239.839 49.976L226.791 36.592L213.855 50.928L208.367 46.224L222.479 30.768V20.408H210.047V14.36H243.255ZM304.799 53.616L297.239 56.248V34.464H292.983C292.591 44.208 288.727 49.696 279.487 49.696H278.759C268.903 49.696 265.151 43.144 265.151 32.168V30.32C265.151 19.512 268.903 12.792 278.759 12.792H279.487C288.279 12.792 292.199 18.224 292.927 27.128H297.239V12.12H304.799V53.616ZM316.839 53.616L309.279 56.248V12.12H316.839V53.616ZM285.311 31.72V30.768C285.311 22.816 283.407 19.064 279.319 19.064H278.871C274.783 19.064 272.879 22.648 272.879 30.768V31.72C272.879 39.672 274.783 43.312 278.871 43.312H279.319C283.575 43.312 285.311 39.672 285.311 31.72ZM359.959 53.616L352.399 56.248V35.024H344.167L341.703 50.816H334.087L339.183 20.24H321.935V14.36H347.471L345.287 28.136H352.399V12.12H359.959V53.616ZM373.063 53.616L365.503 56.248V12.12H373.063V53.616ZM398.783 39.224V13.632H440.055V19.512H406.623V33.344H440.223V39.224H398.783ZM394.527 53.56V47.624H444.255V53.56H394.527ZM497.847 53.672L490.119 56.304V45.776L465.759 49.808H451.759V28.248H473.431V19.568H451.759V13.688H481.159V34.072H459.599V43.648H465.815L490.119 39.672V12.12H497.847V53.672ZM510.839 27.352V11.056H519.239V21.472H552.335V27.352H510.839ZM506.527 37.656V31.776H556.255V37.656H506.527ZM510.503 55.688V41.8H518.903V49.808H552.895V55.688H510.503Z" fill="black"/>
<rect y="63" width="320" height="100" rx="20" fill="#1C7CED"/>
<rect x="291" y="79.1016" width="300" height="100" rx="20" transform="rotate(-4.22486 291 79.1016)" fill="#1C7CED"/>
<path d="M55.976 117.16H47.576V112.512H27.024V106.632H62.08L63.928 97.056H31V91.176H72.272L69.304 106.632H76.864V112.512H55.976V117.16ZM51.832 127.576L31.168 135.92L28.424 129.536L47.24 122.032V118.616H56.312V121.864L75.464 128.696L73.056 134.912L51.832 127.576ZM84.2 97.672C84.2 92.688 89.24 89.888 100.776 89.888H102.456C113.992 89.888 118.976 92.856 118.976 97.672C118.976 102.656 113.656 105.344 102.456 105.344H100.776C89.576 105.344 84.2 102.656 84.2 97.672ZM131.632 114.248L123.736 116.88V110.44L112.088 112.848H104.248V115.928H95.904V112.848H82.016V107.248H111.64L123.736 104.728V91.12H131.632V114.248ZM92.04 97.672C92.04 99.072 93.888 99.912 101.224 99.912H102.008C108.84 99.912 111.136 99.128 111.136 97.672C111.136 96.272 109.68 95.432 102.008 95.432H101.224C94.056 95.432 92.04 96.272 92.04 97.672ZM89.744 124.104H123.624V122.312H89.744V117.44H131.464V128.36H97.584V130.208H133.312V135.08H89.744V124.104ZM164.168 105.904L146.248 120.184L141.32 114.696L159.52 100.136V91.848H168.592V100.024L186.904 114.024L182.872 119.456L164.168 105.904ZM139.136 132.56V126.624H188.864V132.56H139.136ZM195.136 132.56V126.624H215.856V120.184H198.944V92.576H240.832V98.4H206.672V103.552H240.832V109.32H206.672V114.304H241.952V120.184H224.256V126.624H244.864V132.56H195.136ZM299.576 132.672L291.848 135.304V114.36H284.512C284.176 124.216 278.184 129.928 267.768 129.928H267.04C256.176 129.928 250.184 123.432 250.184 112.792V109.264C250.184 98.792 256.176 92.128 267.04 92.128H267.768C277.736 92.128 283.616 97.84 284.456 106.968H291.848V91.12H299.576V132.672ZM276.84 112.344V109.712C276.84 101.76 272.864 98.4 267.6 98.4H267.152C262.056 98.4 257.912 101.592 257.912 109.712V112.344C257.912 120.296 261.888 123.544 267.152 123.544H267.6C273.032 123.544 276.84 120.296 276.84 112.344ZM356.823 94.648V100.528H349.879C353.071 102.32 354.415 105.008 354.583 107.976V108.312C354.583 114.808 349.823 120.128 338.959 120.128C327.759 120.128 323.335 114.64 323.335 108.312V107.976C323.503 105.008 324.735 102.264 327.927 100.528H321.039V94.648H334.367V88.88H343.439V94.648H356.823ZM375.415 102.152V109.208H367.911V121.08L360.071 123.152V91.12H367.911V102.152H375.415ZM331.175 108.144C331.175 111.728 334.255 114.136 338.959 114.136C343.663 114.136 346.743 111.784 346.743 108.144C346.743 104.392 343.775 102.152 338.959 102.152C334.143 102.152 331.175 104.392 331.175 108.144ZM325.015 134.688V122.088H333.415V128.808H368.863V134.688H325.015ZM427.271 114.976L419.431 117.048V106.128H410.695V99.352H419.431V91.064H427.271V114.976ZM411.871 91.624V97.672H399.887V101.2L413.999 110.216L409.911 115.76L395.687 106.968L381.295 116.768L376.703 111.056L391.151 101.424V97.672H378.775V91.624H411.871ZM382.639 126.792V126.344C382.639 120.688 387.903 117.048 403.975 117.048H405.767C421.671 117.048 427.047 120.744 427.047 126.344V126.792C427.047 132.616 421.503 136.088 405.767 136.088H403.975C388.239 136.088 382.639 132.616 382.639 126.792ZM390.759 126.568C390.759 129.312 395.183 129.816 404.031 129.816H405.711C414.055 129.816 418.927 129.368 418.927 126.568C418.927 123.824 414.895 123.32 405.711 123.32H404.031C395.351 123.32 390.759 123.824 390.759 126.568ZM498.407 132.672L490.679 135.304V91.12H498.407V132.672ZM484.015 93.36L479.199 129.816H471.527L473.711 113.688L451.199 117.496L450.079 110.832L474.663 106.856L475.727 99.24H451.815V93.36H484.015ZM553.847 116.488L546.007 118.56V114.36L522.767 116.544H507.759V101.032H529.935V97.336H507.759V91.68H537.663V106.408H515.599V110.608H523.999L546.007 108.704V91.12H553.847V116.488ZM510.447 127.632V127.184C510.447 121.528 515.711 118.672 531.783 118.672H533.575C549.479 118.672 554.855 121.752 554.855 127.184V127.632C554.855 133.288 549.311 136.144 533.575 136.144H531.783C516.047 136.144 510.447 133.288 510.447 127.632ZM518.567 127.408C518.567 129.816 522.991 130.04 531.839 130.04H533.519C541.863 130.04 546.735 129.872 546.735 127.408C546.735 125 542.703 124.776 533.519 124.776H531.839C523.159 124.776 518.567 125 518.567 127.408Z" fill="white"/>
</svg>
