<svg width="225" height="76" viewBox="0 0 225 76" fill="none" xmlns="http://www.w3.org/2000/svg">
<rect x="5" y="5" width="219" height="70" rx="17" fill="white" stroke="black" stroke-width="2"/>
<rect x="1" y="1" width="219" height="70" rx="17" fill="#00A856"/>
<rect x="1" y="1" width="219" height="70" rx="17" stroke="black" stroke-width="2"/>
<path d="M77.472 28.168H73.872V32.632C73.872 33.448 74.016 34.264 74.4 34.984C75.384 36.856 76.776 38.848 78.36 40.672L76.584 42.112C75.024 40.528 73.824 39.04 72.576 37.168C71.232 39.232 70.056 40.72 68.448 42.328L66.528 40.936C68.184 39.136 69.384 37.456 70.632 35.176C71.04 34.408 71.184 33.496 71.184 32.608V28.168H67.44V25.912H77.472V28.168ZM81.672 45.4H79.104V33.712H75.912V31.312H79.104V24.928H81.672V45.4ZM85.848 46.36H83.28V24.64H85.848V46.36ZM107.755 46.144H91.2913V40.672H104.611V39.544H91.2913V37.408H97.9153V35.848H88.5553V33.688H110.035V35.848H100.651V37.408H107.275V42.736H93.9553V44.008H107.755V46.144ZM107.467 28H100.699C100.819 28.456 101.131 28.816 101.611 29.032C103.699 30.04 105.835 30.76 108.403 31.384L107.515 33.328C104.731 32.68 102.163 31.84 99.2833 30.64C96.4033 31.84 93.8353 32.68 91.0513 33.328L90.1633 31.384C92.7313 30.76 94.8673 30.04 96.9553 29.032C97.4353 28.816 97.7233 28.456 97.8433 28H91.0993V25.792H97.9153V23.872H100.651V25.792H107.467V28ZM124.143 36.328C124.143 39.688 121.599 42.064 118.191 42.064C114.783 42.064 112.239 39.688 112.239 36.328C112.239 32.968 114.783 30.592 118.191 30.592C121.599 30.592 124.143 32.968 124.143 36.328ZM129.279 46.36H126.615V24.64H129.279V33.28H132.543V35.584H129.279V46.36ZM124.839 29.608H111.447V27.352H116.823V24.64H119.559V27.352H124.839V29.608ZM121.479 36.328C121.479 34.144 119.991 32.848 118.191 32.848C116.391 32.848 114.903 34.144 114.903 36.328C114.903 38.512 116.391 39.808 118.191 39.808C119.991 39.808 121.479 38.512 121.479 36.328ZM152.074 46.36H149.41V24.64H152.074V46.36ZM145.906 25.912C145.642 33.4 140.65 39.304 134.626 42.52L133.066 40.696C138.658 37.408 142.042 33.208 142.834 28.216H134.29V25.912H145.906Z" fill="white"/>
</svg>
